<svg xmlns="http://www.w3.org/2000/svg" viewBox="0 0 200 200" fill="#0b4892">
    <path
        d="M77.2 0L19.4.1h-.2l-.2.2-6.7 6.6-.3.4.4.4L27 22.5l.2.2h.2l41.9-.1h.2l.2-.2L84.1 7.6l.4-.4-.4-.4L77.6.2l-.2-.2h-.2zm-4.5 26V62.3l.2.2 14.4 14.6.4.4.4-.4 6.7-6.6.2-.2V17.8l-.2-.2-6.8-6.8-.4-.4-.4.4-14.3 14.8-.2.2v.2zM23 69.7L12.4 80.3l-.4.4.4.4L23 91.7l.2.2h50.2l.2-.2L84 81.1l.4-.4-.4-.4-10.3-10.6-.2-.2H23.2l-.2.2zM1.8 91.3V143.6l.2.2 6.5 6.8.4.4.4-.4 14.6-14.8.2-.2V99.2l-.3-.2L9.2 84.3l-.4-.4-.4.4-6.5 6.6-.2.2v.2zM27 139l-14.6 14.8-.4.4.4.4 6.7 6.6.2.2H77.4l.2-.2 6.5-6.6.4-.4-.4-.4L69.7 139l-.2-.2H27.1l-.1.2z">
    </path>
    <path
        d="M77.2 0L19.4.1h-.2l-.2.2-6.7 6.6-.3.4.4.4L27 22.5l.2.2h.2l41.9-.1h.2l.2-.2L84.1 7.6l.4-.4-.4-.4L77.6.2l-.2-.2h-.2zm-4.5 26V62.3l.2.2 14.4 14.6.4.4.4-.4 6.7-6.6.2-.2V17.8l-.2-.2-6.8-6.8-.4-.4-.4.4-14.3 14.8-.2.2v.2zM23 69.7L12.4 80.3l-.4.4.4.4L23 91.7l.2.2h50.2l.2-.2L84 81.1l.4-.4-.4-.4-10.3-10.6-.2-.2H23.2l-.2.2zM1.8 91.3V143.6l.2.2 6.5 6.8.4.4.4-.4 14.6-14.8.2-.2V99.2l-.3-.2L9.2 84.3l-.4-.4-.4.4-6.5 6.6-.2.2v.2zM27 139l-14.6 14.8-.4.4.4.4 6.7 6.6.2.2H77.4l.2-.2 6.5-6.6.4-.4-.4-.4L69.7 139l-.2-.2H27.1l-.1.2z">
    </path>
    <path
        d="M121.5.2l-6.7 6.6-.4.4.4.4 14.6 14.8.2.2H172l.2-.2 14.4-14.8.4-.4-.4-.4-6.5-6.6-.2-.2H121.8l-.3.2zM175.2 26V62.3l.2.2 14.4 14.6.4.4.4-.4 6.7-6.6.2-.2V17.8l-.2-.2-6.7-6.8-.4-.4-.4.4-14.4 14.8-.2.2v.2zm-71-8V70.3l.2.2 6.5 6.6.4.4.4-.4 14.6-14.6.2-.2V25.8l-.2-.2-14.6-14.8-.4-.4-.4.4-6.5 6.8-.2.2v.2zm71 81.4V135.7l.2.2 14.4 14.8.4.4.4-.4 6.7-6.8.2-.2V91.1l-.2-.2-6.7-6.6-.4-.4-.4.4L175.3 99l-.2.2v.2zm-71-8.1V143.6l.2.2 6.5 6.8.4.4.4-.4 14.6-14.8.2-.2V99.2l-.2-.2-14.6-14.6-.4-.4-.4.4-6.5 6.6-.2.2v.1zm25.2 47.7l-14.6 14.8-.4.4.4.4 6.7 6.6.2.2H179.8l.2-.2 6.5-6.6.4-.4-.4-.4-14.3-14.8-.2-.2H129.6l-.2.2z">
    </path>
    <path
        d="M121.5.2l-6.7 6.6-.4.4.4.4 14.6 14.8.2.2H172l.2-.2 14.4-14.8.4-.4-.4-.4-6.5-6.6-.2-.2H121.8l-.3.2zM175.2 26V62.3l.2.2 14.4 14.6.4.4.4-.4 6.7-6.6.2-.2V17.8l-.2-.2-6.7-6.8-.4-.4-.4.4-14.4 14.8-.2.2v.2zm-71-8V70.3l.2.2 6.5 6.6.4.4.4-.4 14.6-14.6.2-.2V25.8l-.2-.2-14.6-14.8-.4-.4-.4.4-6.5 6.8-.2.2v.2zm71 81.4V135.7l.2.2 14.4 14.8.4.4.4-.4 6.7-6.8.2-.2V91.1l-.2-.2-6.7-6.6-.4-.4-.4.4L175.3 99l-.2.2v.2zm-71-8.1V143.6l.2.2 6.5 6.8.4.4.4-.4 14.6-14.8.2-.2V99.2l-.2-.2-14.6-14.6-.4-.4-.4.4-6.5 6.6-.2.2v.1zm25.2 47.7l-14.6 14.8-.4.4.4.4 6.7 6.6.2.2H179.8l.2-.2 6.5-6.6.4-.4-.4-.4-14.3-14.8-.2-.2H129.6l-.2.2z">
    </path>
    <path
        d="M32 198.9c.1-2.7.1-6.4.1-10.7 0-2.3-1.2-3.4-3.8-3.4-2.7 0-4.9 1.2-4.9 4.6 0 4.7 0 7.3.1 9.5H17c.1-2.7.1-5.8.1-10.7 0-2.2-1.1-3.4-3.8-3.4-2.7 0-4.9 1.2-4.9 4.6 0 4.6 0 7.7.1 9.5H2c.1-2.7.1-5.4.1-9.4 0-4.2 0-6.9-.1-9.7h6.7c0 1.2-.1 2.2-.2 3.4l.2.1c1.4-2.6 3.8-3.8 7.4-3.8 3.9 0 6.3 1.4 6.9 4h.3c1.4-3 4.2-4 7.8-4 4.9 0 7.3 2.4 7.3 6.6 0 2.8-.1 4.6-.1 6.9 0 2.1 0 4.2.1 6H32zM45.4 198.9c.1-3.1.1-6.1.1-9.9 0-3.6 0-6.2-.1-9.2h6.9c-.1 3.1-.1 5.6-.1 9.4 0 4.2 0 6.6.1 9.7h-6.9zM76.4 198.9c.1-2.3.1-5.7.1-9.5 0-3.4-1.3-4.7-4.9-4.7-3.4 0-6.1 1.5-6.1 5.4 0 5.1 0 7.1.1 8.8h-7.1c.1-2.7.1-4.9.1-9.3 0-4.2 0-7.1-.1-9.8h7.1c0 1.5-.1 2.5-.1 3.9h.2c1.4-3.1 4.4-4.3 8.9-4.3 5.6 0 8.9 2.4 8.9 8.4 0 2.2-.1 3.5-.1 5 0 2.2 0 4.2.1 6.2h-7.1zM115.2 179.7c-.1 2.7-.1 4.8-.1 9.3 0 4.2 0 7.1.1 9.8h-7.1c0-1.5.1-2.5.1-3.9h-.2c-1.4 3.1-4.3 4.3-8.8 4.3-5.6 0-8.9-2.4-8.9-8.2v-5.2c0-2.2 0-4.2-.1-6.2h7.1c-.1 2.3-.1 5.9-.1 9.8 0 3.4 1.3 4.6 4.9 4.6 3.4 0 6.1-1.5 6.1-5.5 0-5.2 0-7.2-.1-8.9h7.1zM120.6 184.9v-5.1h2.6v-4c1.1 0 2.3.1 3.4.1s2.2 0 3.3-.1c0 1.3-.1 2.6-.1 4h10.4c-.1 1.5-.2 3.8-.1 5.4-2.3-.1-6.4-.1-10.4-.2v5.6c0 2 .8 2.9 3.9 2.9 2.7 0 4.7-.4 6.2-.9.3 1.9.6 4 1 5.7-2.5.5-4.8.8-8 .8-7.8 0-9.7-3.3-9.7-7.3v-6.9h-2.5zM151.3 187.7c3.9.1 8.2.1 11.6 0v-.7c0-2.3-1.5-3.3-5.3-3.3-4.2 0-5.9.8-6.3 4m17.8 4.9c.2 4.5-2.1 6.9-11.4 6.9-8.2 0-12.8-3.2-12.8-10.3 0-7 4.8-10.1 12.8-10.1 8.4 0 11.4 3 11.4 8.2 0 1.6-.1 2.6-.1 3.6-2.2-.1-6.2-.1-9.9-.1h-7.8c.4 3 2.3 3.9 6.4 3.9 3.8 0 5.1-.8 5.2-2.3.9.1 1.9.1 3.2.1 1.3.2 2.2.2 3 .1M180.6 192.6c0 1.4 1.2 2 6.1 2 4.2 0 5.2-.4 5.2-1.4 0-.9-.7-1.6-6.7-1.8-8.2-.3-10.5-2.6-10.5-6.2 0-4 2.9-6.1 11.4-6.1 7.6 0 11.5 1.5 11.5 6.2v.8c-.7-.1-1.9-.1-3-.1-1.2 0-2.3 0-2.9.1v-.3c0-1.3-1.2-1.9-5.6-1.9-4.3 0-5.1.5-5.1 1.4 0 .8.6 1.5 7 1.8 8.2.4 10.1 2.3 10.1 6.1 0 4-2.8 6.3-11.5 6.3-9.2 0-11.8-2.3-11.8-6.3v-.8c.7.1 1.8.1 3 .1 1.1 0 2.2 0 3-.1v.2zM52.5 173.3c0 2-1.6 3.6-3.6 3.6s-3.6-1.6-3.6-3.6 1.6-3.6 3.6-3.6c1.9 0 3.6 1.6 3.6 3.6">
    </path>
</svg>