<svg id="Layer_1" data-name="Layer 1" xmlns="http://www.w3.org/2000/svg" viewBox="0 0 432.58 393.59"><defs><style>.cls-1{fill:#959697;}.cls-2{fill:#077ee8;}</style></defs><title>bcast</title><path class="cls-1" d="M48,312.51c-8.32,0-21.29,4.48-25.94,12.65V281.45H2.5V353.9c0,12.08,2.45,41.23,45,41.23,23.22,0,40.67-15.37,40.67-41.31C88.16,326.6,71,312.51,48,312.51ZM46.21,377c-12.33,0-22.89-9-22.89-23.22a22.52,22.52,0,0,1,22.89-23.06c12.49,0,22.42,8.81,22.42,23.06C68.63,367.59,58.7,377,46.21,377Z" transform="translate(-2.5 -2.5)"/><path class="cls-1" d="M156.49,376.08c-27.7,0-38.43-19.38-38.59-37.95-.16-18.74,11.53-38.91,38.59-38.91a38.49,38.49,0,0,1,27.06,10.57l14.09-13.61A57.83,57.83,0,0,0,156.49,279c-40.51,0-59.56,29.79-59.4,59.09.16,29.14,17.77,57.8,59.4,57.8,16.17,0,31.06-5.29,42.59-16.65l-14.41-14.57C177.31,372.07,166.26,376.08,156.49,376.08Z" transform="translate(-2.5 -2.5)"/><path class="cls-1" d="M268.08,325.32c-4.48-7.85-14.57-12.81-25.13-12.81-23.06-.16-41.15,14.09-41.15,41.31,0,27.7,17.29,42.11,40.67,41.95,8.8-.16,21.13-4.64,25.61-13.93l1,11.53h18.41V314.43H268.73Zm-23.37,52.52c-13,0-23.38-9-23.38-24S231.74,330,244.71,330C275.45,330,275.45,377.84,244.71,377.84Z" transform="translate(-2.5 -2.5)"/><path class="cls-1" d="M336.29,344.85c-10.09-.64-14.73-3.52-14.73-8.64,0-5,5.12-7.85,14.41-7.85,7.53,0,13.93,1.76,19.54,7.05l10.88-12.81c-9.12-8-18.41-10.41-30.74-10.41-14.41,0-33.3,6.4-33.3,24.66,0,17.93,17.77,23.37,32.66,24.49,11.21.64,15.69,2.89,15.69,8.33,0,5.76-6.88,9.61-14.25,9.45-8.81-.16-21.62-4.81-27.22-11.05L299.62,382c11.53,12,24,14.09,36.51,14.09,22.58,0,33.95-12,33.95-25.94C370.08,349.17,351.18,345.81,336.29,344.85Z" transform="translate(-2.5 -2.5)"/><path class="cls-1" d="M429.64,374.31a22.4,22.4,0,0,1-9.45,2.41c-6.09,0-10.25-3.69-10.25-11.21V331.4h21.94V314.59H410.1V292.17l-19.53,2.08v20.34H375.84V331.4h14.73v34.11c0,19.69,11.21,29.46,28.34,28.82A43.65,43.65,0,0,0,435.08,391Z" transform="translate(-2.5 -2.5)"/><path class="cls-1" d="M222,90.15V40.3a16.62,16.62,0,1,0-33.24,0V95.52a85.4,85.4,0,0,1,30-5.45C219.86,90.07,220.92,90.11,222,90.15Z" transform="translate(-2.5 -2.5)"/><path class="cls-1" d="M270.69,19.12a16.62,16.62,0,0,0-33.24,0v73a85.38,85.38,0,0,1,33.24,15.5Z" transform="translate(-2.5 -2.5)"/><path class="cls-2" d="M218.79,254.41a78.67,78.67,0,1,0-45.43-142.87V61.38a16.62,16.62,0,1,0-33.24,0V175.74C140.12,225.35,175.34,254.41,218.79,254.41Zm0-124.1a45.43,45.43,0,1,1-45.43,45.43A45.43,45.43,0,0,1,218.79,130.31Z" transform="translate(-2.5 -2.5)"/></svg>