<svg xmlns="http://www.w3.org/2000/svg" fill="none" viewBox="0 0 138 40">
    <path fill="#fff"
        d="M126.014 39.573H11.967A11.959 11.959 0 0 1 0 27.606c0-5.993 4.435-11.07 10.391-11.858L124.438.538C131.622-.435 138 5.154 138 12.393v15.212c0 6.615-5.37 11.967-11.986 11.967Z" />
    <path fill="#000" fill-rule="evenodd"
        d="M107.365 22.564a6.585 6.585 0 0 1 3.958-1.32c3.647 0 6.58 2.951 6.58 6.58a6.586 6.586 0 0 1-10.538 5.26v1.191h-2.603v-6.048c-.018-.146-.018-.274-.018-.403 0-.076.005-.146.009-.215.005-.064.009-.126.009-.188V11.953l2.603-.293v10.904Zm-.073 5.169c0 2.18 1.851 4.031 4.031 4.031 2.181 0 3.959-1.759 3.959-3.94a3.966 3.966 0 0 0-3.959-3.958c-2.18 0-4.031 1.686-4.031 3.867ZM14.87 30.337a3.896 3.896 0 0 1-2.95 1.338 3.954 3.954 0 0 1-3.96-3.959c0-2.18 1.76-3.958 3.96-3.958 1.172 0 2.235.513 2.95 1.338l3.005-.184a6.574 6.574 0 0 0-5.956-3.793 6.586 6.586 0 0 0-6.579 6.58c0 3.628 2.95 6.578 6.58 6.578a6.574 6.574 0 0 0 5.955-3.793l-3.005-.147Zm68.458 1.338a3.954 3.954 0 0 1-3.958-3.959c0-2.18 1.76-3.958 3.958-3.958 1.173 0 2.236.513 2.95 1.338l3.006-.184a6.574 6.574 0 0 0-5.956-3.793 6.586 6.586 0 0 0-6.579 6.58c0 3.628 2.95 6.578 6.58 6.578a6.574 6.574 0 0 0 5.956-3.793l-3.006-.184a3.807 3.807 0 0 1-2.95 1.375Zm-42.506-3.941c0 3.629-2.95 6.58-6.579 6.58a6.586 6.586 0 0 1-6.58-6.58c0-3.629 2.951-6.58 6.58-6.58a6.574 6.574 0 0 1 6.58 6.58Zm-6.579-3.959a3.954 3.954 0 0 0-3.959 3.959c0 2.18 1.76 3.958 3.96 3.958 2.18 0 3.958-1.759 3.958-3.958-.019-2.18-1.778-3.959-3.959-3.959Zm38.045-1.3v-5.663l2.639-.275v17.777h-2.64v-1.32a6.628 6.628 0 0 1-3.958 1.32 6.586 6.586 0 0 1-6.579-6.58 6.586 6.586 0 0 1 10.538-5.26Zm-7.917 5.241c0 2.2 1.777 3.959 3.958 3.959s4.032-1.76 4.032-3.959c0-2.2-1.85-3.958-4.032-3.958a3.954 3.954 0 0 0-3.958 3.958Zm-36.964-6.653a7.411 7.411 0 0 0-.916-.073c-1.43 0-2.786.458-3.647 1.301a4.613 4.613 0 0 1-.07.068c-.074.07-.154.147-.223.244v-1.448h-2.64v13.158h2.64V27.79c0-.183.018-.568.036-.733.239-2.18 1.906-3.427 3.922-3.427.22 0 .422.018.642.055l.256-2.62Zm72.556 7.422v-7.33h2.621v13.103h-2.64v-1.154c-.824.88-2.07 1.3-3.28 1.3a5.897 5.897 0 0 1-5.9-5.9v-7.35h2.638v7.331c.006.064.01.127.014.187.008.131.016.256.041.381a3.287 3.287 0 0 0 3.226 2.694c1.52 0 2.767-1.026 3.17-2.419.055-.22.092-.55.11-.843Zm-51.075 5.772L51.4 25.02l2.53 9.237h3.738l3.555-13.085h-2.859l-2.602 9.933-2.694-9.933H49.75l-2.713 9.933-2.584-9.933h-2.877l3.555 13.085h3.757Zm83.829-5.79h-.825v.018h-9.603a3.954 3.954 0 0 0 3.885 3.207c1.21 0 2.291-.568 3.024-1.429l2.804.531a6.586 6.586 0 0 1-5.828 3.52 6.585 6.585 0 0 1-6.579-6.58c0-3.629 2.95-6.58 6.579-6.58a6.585 6.585 0 0 1 6.579 6.58c0 .238-.018.495-.036.733Zm-2.988-2.474a3.959 3.959 0 0 0-7.11 0h7.11Z"
        clip-rule="evenodd" />
</svg>