<?xml version="1.0" encoding="UTF-8" standalone="no"?>
<!-- Created with Inkscape (http://www.inkscape.org/) -->

<svg
   xmlns:dc="http://purl.org/dc/elements/1.1/"
   xmlns:cc="http://creativecommons.org/ns#"
   xmlns:rdf="http://www.w3.org/1999/02/22-rdf-syntax-ns#"
   xmlns:svg="http://www.w3.org/2000/svg"
   xmlns="http://www.w3.org/2000/svg"
   xmlns:xlink="http://www.w3.org/1999/xlink"
   version="1.1"
   width="708.66138"
   height="679.57416"
   id="svg15938">
  <defs
     id="defs15940">
    <clipPath
       id="clipPath12796">
      <path
         d="m 553.778,321.135 c -2.695,22.443 -16.268,26.137 -32.201,23.85 -16.297,-1.943 -28.533,-9.062 -25.891,-31.243 2.675,-22.315 16.439,-26.246 32.404,-24.091 16.158,1.913 28.504,9.196 25.688,31.484"
         id="path12798" />
    </clipPath>
    <radialGradient
       cx="0"
       cy="0"
       r="1"
       fx="0"
       fy="0"
       id="radialGradient12826"
       gradientUnits="userSpaceOnUse"
       gradientTransform="matrix(35.257526,0,0,-35.257526,546.39355,304.32635)"
       spreadMethod="pad">
      <stop
         id="stop12828"
         style="stop-color:#cadc44;stop-opacity:1"
         offset="0" />
      <stop
         id="stop12830"
         style="stop-color:#8dc23c;stop-opacity:1"
         offset="1" />
    </radialGradient>
    <radialGradient
       cx="0"
       cy="0"
       r="1"
       fx="0"
       fy="0"
       id="radialGradient16168"
       xlink:href="#radialGradient12826"
       gradientUnits="userSpaceOnUse"
       gradientTransform="matrix(35.257526,0,0,-35.257526,546.39355,304.32635)"
       spreadMethod="pad" />
  </defs>
  <metadata
     id="metadata15943">
    <rdf:RDF>
      <cc:Work
         rdf:about="">
        <dc:format>image/svg+xml</dc:format>
        <dc:type
           rdf:resource="http://purl.org/dc/dcmitype/StillImage" />
        <dc:title></dc:title>
      </cc:Work>
    </rdf:RDF>
  </metadata>
  <g
     transform="matrix(12.04107,0,0,-12.04107,-5964.257,4161.0485)"
     clip-path="url(#clipPath12796)"
     id="g12794">
    <path
       d="m 0,1191 842,0 L 842,0 0,0 0,1191 z"
       id="path12832"
       style="fill:url(#radialGradient16168);stroke:none" />
  </g>
  <path
     d="m 286.91265,329.15859 0,-90.23578 33.78725,0 -0.0361,96.53326 c 1.32452,51.58394 27.57405,60.28964 53.1252,60.28964 34.67829,0 51.9813,-15.54503 50.56046,-70.94599 l 0,-85.87691 25.53911,0 0,90.23578 c 0,73.89605 -27.87508,96.5453 -82.80644,96.5453 -50.5725,0 -80.16945,-22.64925 -80.16945,-96.5453"
     id="path12860"
     style="fill:#111827;fill-opacity:1;fill-rule:nonzero;stroke:none" />
  <path
     d="m 503.0619,421.3691 -26.94791,0 0,-235.6919 34.73848,-0.38532 -7.79057,236.07722"
     id="path12862"
     style="fill:#111827;fill-opacity:1;fill-rule:nonzero;stroke:none" />
  <path
     d="m 559.75126,421.3691 -22.87803,0 1.50513,-243.56676 c 0,-0.28899 34.12439,-0.28899 34.12439,-0.28899 L 559.75126,421.3691"
     id="path12864"
     style="fill:#111827;fill-opacity:1;fill-rule:nonzero;stroke:none" />
  <path
     d="m 623.882,421.3691 -28.83836,0 5.90012,-182.81956 29.32001,0 -6.38177,182.81956 z m -24.91298,-205.42065 0,-30.65657 34.08827,0 -1.78207,30.65657 -32.3062,0"
     id="path12866"
     style="fill:#111827;fill-opacity:1;fill-rule:nonzero;stroke:none" />
  <path
     d="m 176.17093,398.68373 c -38.0859,0 -68.71838,-13.0164 -68.71838,-65.53955 0,-52.34253 30.63248,-65.31076 68.71838,-65.31076 37.9655,0 68.76655,12.53475 68.76655,65.31076 0,52.52315 -30.80105,65.53955 -68.76655,65.53955 z m 18.71183,115.79897 c 0,29.83777 -17.51976,37.29119 -39.09736,37.29119 -21.68596,0 -39.12143,-7.45342 -39.12143,-37.29119 0,-29.76553 17.43547,-37.18283 39.12143,-37.18283 21.5776,0 39.09736,7.20056 39.09736,37.18283 z m -4.56357,-83.22788 c -0.77063,-4.57561 1.36064,-7.79057 7.42934,-9.59673 46.81568,-10.27103 79.57943,-38.32673 70.82558,-107.46655 -9.47633,-78.92922 -57.21917,-91.95765 -113.24627,-83.90218 -57.315491,6.87545 -100.386399,31.90884 -91.078652,109.94701 7.212601,60.12107 37.315272,82.24051 76.292222,85.87691 6.24931,1.14391 13.22109,8.36855 -2.55271,14.17234 -26.52648,7.23669 -44.901149,26.34586 -44.901149,69.12779 0,58.47143 34.100309,72.98092 76.557119,72.98092 42.25212,0 76.59325,-14.50949 76.59325,-72.98092 0,-33.84745 -11.37881,-52.71581 -29.04306,-62.7701 0.0482,0 0.13245,0 0.13245,0 0,0 -0.59001,-0.31307 -1.5533,-0.77063 -1.22819,-0.66226 -2.45638,-1.3486 -3.75681,-1.86637 -10.29512,-3.85314 -20.07246,-7.70628 -21.69801,-12.75149"
     id="path12868"
     style="fill:#111827;fill-opacity:1;fill-rule:nonzero;stroke:none" />
</svg>
