<svg xmlns="http://www.w3.org/2000/svg" viewBox="0 0 690 131" width="690" height="131"><path d="M239.1 47.5c5-3.8 9.4-10.6 9.4-20.1 0-16-12.3-26.4-31.3-26.4h-41a2 2 0 00-2 2v14.8c0 1 .9 2 2 2h6.7v69c0 7.4 3.6 11 11 11h23.7c21.4 0 34.7-11.3 34.7-29.5 0-10.3-5-18.9-13.2-22.8zm-34.8-27.8H217c6.3 0 9.9 3.6 9.9 9.8 0 6.2-3.8 10.2-9.6 10.2h-13v-20zM218.9 81h-13.6c-.8 0-1-.2-1-1V57.6h14.6c7 0 11.4 4.5 11.4 11.7 0 7.4-4.2 11.8-11.4 11.8zM358.6 1h-16.9c-1 0-1.9.9-1.9 2v14.8c0 1 .9 2 2 2h16.8c1 0 2-1 2-2V2.9c0-1-1-2-2-2m153.8 25.2c-21.5 0-36.6 15.5-36.6 37.6a36.9 36.9 0 0038.6 37.7 43.1 43.1 0 0028.8-10.9 2 2 0 00.3-2.4l-7.1-11.7a2 2 0 00-3-.4s-7.7 7-17.8 7c-7.5 0-16-3.8-18.2-14.4h44.8a2 2 0 002-1.7c0-.2.4-4.4.4-6.5 0-20.5-13-34.3-32.2-34.3zM498.3 53a14 14 0 0114.1-9.9c5.5 0 9.7 4 10.7 9.9h-24.8zM349.5 27.7h-16a2 2 0 00-2 2V44c0 1 .9 2 2 2h5.3c.9 0 1 0 1 1v50.7c0 1.1.9 2 2 2h16.8c1 0 2-.9 2-2v-60c0-4.5-2-10-11.1-10M388.1 1h-16.8a2 2 0 00-2 2v94.8c0 1.1.9 2 2 2H388a2 2 0 002-2V3c0-1-.9-2-2-2m-57.2 80.6h-5.4c-.8 0-1-.2-1-1v-51c0-1-1-1.9-2-1.9h-16.9c-1 0-2 .9-2 2v31.2c0 10.2-5.3 21-17.1 21-6.3 0-8.6-3.2-8.6-11.9V29.7a2 2 0 00-2-2H259c-1 0-2 .9-2 2v43.8c0 18.5 8.6 27.9 25.5 27.9 9.6 0 17.2-4.4 21.8-9.8.6 5.1 4.5 8.2 10.8 8.2h15.7c1 0 2-.9 2-2V83.5c0-1-1-2-2-2m143.6.1h-5.2c-.8 0-1-.2-1-1V2.9c0-1-.8-2-2-2h-16.8c-1 0-1.9 1-1.9 2v28.8a28 28 0 00-18-5.6c-19.4 0-33 15.5-33 37.6 0 22.6 13 37.7 32.4 37.7 10.2 0 16.5-4.5 19.8-8 .8 2.9 3 6.4 10.1 6.4h15.6a2 2 0 002-2V83.5c0-1-.9-2-2-2zm-41.8 1.6c-9 0-14.9-7.6-14.9-19.5 0-11.4 6.1-19.1 15.2-19.1 10.3 0 14.9 9.5 14.9 19 0 14.4-7.9 19.6-15.2 19.6zM597.8 27l-3.4-.2a24 24 0 00-19.7 11c0-4.7-2-10-11-10H548c-1 0-2 .8-2 1.9V44c0 1 1 2 2 2h5.4c.8 0 1 0 1 1v50.7c0 1.1.8 2 2 2h16.8c1 0 2-.9 2-2V70.2c0-15.6 8-22.8 18-22.8 2.2 0 3.8.2 3.9.2a2 2 0 002.2-2V29.1a2 2 0 00-1.6-2M172.8 75.4c.3-.3-.1 0 0-.6l-.3-1.5c.5 0 .2-.8-.2-1.5-.5-.8-1.2-1.4-1.3-2l-.6-.4-1-.6c-.2-.2-.6-.2-1-.2h-.8l-3.1-.2c.6.5-1.8 0-2.8 0l.6-15.1.4-11.5c0-3.2.3-2.6 0-3.2-.2-.5-.2-2.7-.2-2.7l-.1-6c.2.1 0-.3.1-.5V26l-.1-2.5.2-.6a37.6 37.6 0 00-2-10.9 7.8 7.8 0 00-3-3.7c-.2 0 0 .1 0 .3l-.5-.2-1-.3H155l-1-.3c-1.2 0-2.8.3-3.8 1s-1.6 1.5-2 1.8c.2 0 0 .5-.7 1.6-2.6 3.5-1 1-2.6 3-.2.6-.7 1.3-1.2 2-.5.8-.8 1.4-.7 1.5-.6 1.1-.9 1.3-1.2 1.6A211.9 211.9 0 01129.5 48h-.1c-.7 1.1-4 5.5-6.8 9-.4-.7-.6-1.3-.5-1.6-.7-1.1-1-2-1.3-2.8v-.9l-.4-1.2c-.5-2.2-.6-3.5-.9-5l-.8-5.1c.4 1.4.1-2.4 0-4.7v-3c0-4.6-.5-8.7-.9-12.5a80 80 0 01-.4-5.6 31.7 31.7 0 00-.4-5.4v-.1l-.1-.2a8.5 8.5 0 00-2-3.2c-.3-.4-1-.9-1.6-1.1a3 3 0 00-1.6-.1c-.9 0-1.5.3-1.8.4-1.6.6-2.4 1.3-3.1 1.8l-1.6 1.6c-.5.6-1 1-1.6 1.9l-1.6 3.2-.8 2.3-.1.1v.6c-.3 1-.6 3-.8 4.4-.3 1.5-.3 2.5-.3 1.8l-.3 1.5A313 313 0 0197 34.6v.3l-.6 3.1-.3 1.4c-.1.5-.1-.2-1 2.3-1.3 2.7-.2-.4-2 4.6l-.2.5c-1.6 4.3-3.6 7.3-5 9.6-.6 1.4 0 .2-.7 1.3l.2.3c-.8 1.3-.6 1-.7.9-.2.9-.9 1.6-1.2 2.1v-2.2l-.3-1.4c-.1-.8-.3-1.5-.3-4.8V49c.3-4.1 0-4.5 0-6.7-.1-.8-.2-.5-.1-3.3l.4-3.8.3-3v-4.5c.1 0 .3 0 .1-1-.8-2.8-1.6-4.2-2.6-5.6a8.1 8.1 0 00-5.4-3 3.4 3.4 0 00-.9-.2c-1 0-3.5.3-4.6.5a7.4 7.4 0 00-4.3 2.7 13 13 0 00-2 4.1l-1.3 4.6c-.4 1.6 0 .9-.7 2.8 0 1-1.4 4.6-2 7-.2-.2-.8 1.3-1.3 2.2.2 0-1.8 5.5-1.5 6.4l-1.4 3.2-1 3.2-.2.6v.5l-.2.7-.6 3.5-.2.6v.1l-.2-.2c-.2-.4-.3-2.3-.5-2.8l-.4-1.7-.1-.7v-2.9c-.2-1-.4-1.2-.4-3.6 0-.1 0 0 0 0 0-.5-.1-2-.3-1.6.7-6.4.3-18 .3-23.6a30 30 0 00-1.7-7.5c-.5-1.2-1.2-2.4-2-3.5-1-1-1.8-1.8-3-2.3a7.8 7.8 0 00-4.7-.7c-.5 0-3 .4-4 .7h-.2a3 3 0 00-1.8.7c-.8.5-1.6 1.3-2.3 2.4-.7 1-1.2 2.3-1.7 3.5l-.6 1.7c-.3.6-.2.1-.4.6-1.3 3-2.7 7.5-4.8 12.3 0 0 0-.2-.1 0-1.1 3.4-3.8 9.8-5.6 14.6l-.8 2.2-1.1 2.9-.2.1-.1.2v-1.2l-.3-3.3v-.6l.2-.7.2-.8.2-3.5.2.3.3-6.8c0-1.8 0-3 .4-6.5 0-4 .7-3.2 1-7.2l.6-1 .3-2.6c.1-1 .2-2.5-.4-3.9-1-2.8-3-5-5.6-5.5l-.8-.2h-1c-.8 0-1.2.4-1.7.6a6.1 6.1 0 01-2.4.7h-.3a1 1 0 00-.3 0l-.5.4a5 5 0 00-.9 1.8c-.1-.3-.5.4-.8 1.6a37 37 0 00-.7 5.1c-.3 4-.6 8.5-1 10.3-.2 9.2-1 18.2-1.6 28.8.3 1.4-.2 3.1.6 2.6a32 32 0 01-.3 3.6v-.5.5l-1 7.4c-.2 1.3-.6 0-1 3.6 0 .5.1 2-.2 5v2c-.2 7.5-.4 2.4-.6 5l-.1.4c0 2-.4 5.6-.5 9.3v.8c0 .4.2.7.3 1l.6 1.5c.5 1 1 1.8 1.6 2.5 1.1 1.5 1.6 2.3 2.7 3 .3.2.3.4.4.5l.5.3.7.4c.5.3 1.1.4 1.6.4.8 0 1.6 0 2.4-.3a7 7 0 003.6-2.5c1.7-2.3 2.5-4.8 3.2-7.1 1.3-4.8 2.7-9.2 4-12.5l.2-.5c.4-1.6.3-1.7 1.2-3.7a32.8 32.8 0 011.8-4.7c3.2-8.4 4-13.2 6.4-20.4.5.2 3-6.4 4.2-9.8v.2c.8-2 1.4-4 2-5.9l.2-.8.2-.5.1-.7V37h.1l.2.1.3.4.2.6v.3l.1.3v.5c.4 2.6.5 5.3.6 8.2a216.6 216.6 0 000 22.7l.2 4.4.9 4.2c.3.7.3.2 1.2 2C43 82 44 83.5 45 84.6s.3.5.8 1.1c-.2 0 0 0 0 0 .3.5.8 1.2 1.6 1.8a12.5 12.5 0 003.4 2 4 4 0 002.4-.5 15.4 15.4 0 003.4-3l-.1-.8c1.7-1.8 3.2-4.2 4.5-7 1.1-2.6 2-5.6 2.7-8.3 1.5-5.6 2.7-10.6 3.9-13 .5-2.2 1.4-4.9 2-7l.4.3c.8-1.9.7-1.6 1-2l.4-.7v-.1.2l.1.5V50c.1 0 .1.2 0 .2v1.3l.4 2.2c.2 1.4.5 2.8.5 4.9l-.4 1.2v7.6a15.3 15.3 0 001.5 4.9 16.7 16.7 0 005.2 6c.4.3.8.5 1.3.6a5 5 0 002.2-.2c1.2-.3.7.2 1.5-.4 0 0 1.1-.6.3-.2 1-.4 2-1.2 3.2-2.2a25.4 25.4 0 005.7-7.4 82.7 82.7 0 005.7-10.2l.2.2c1.2-3.3 1.2-3.5 3.1-8 .3-.6.4-.7.5-.6l.2-.5.1-.2c0-.1.1 0 .1 0l.2-.3.4-.3.2 1.5V50v2.2l.2 1.4c0 .7.2 1.2.5 2.3l.8 5c.3 1.8.8 3.3.7 3.6.4.5.6 2 2.3 4.1a11.4 11.4 0 005.5 4.4l1.2.6.8.9c1.1.2 1.5 0 3 0 1.3-.1 2.7-.5 4-1a28.3 28.3 0 007-4l.6-.4c.9-.6-.1-.3.5-1 1-.8 1.7-1.4 2.6-2.4.2 0 .8-1.8 1.7-3 1-1 2-2.4 2.6-3.3-.2 0 0-.4.2-.7 2.1-2.2 3.2-10 3.8-10.5a110.6 110.6 0 006.3-14.5l.3-1 .2-1 .2-.6.8-1.6.3 6.1.1 4-.1 3.4-.2.6c.1 2.6.2 10 0 10.5 0 .3.4 4.1-.1 9.1l-.5 6.4v.4l-.9.2-3.5 1.2-.8.4c-.4.2-.3 0-.3 0l-1.2.6c-.6.2-.5.3-.7.4-.2.1 0 .4 0 .4l-.8.2-.6.1-.9.3c-.3 0-.3.2-1 .5l-1.6.8-1 .4c-.6.2-.2.2-.6.5-.3.3 0-.2-.3 0l-1 .3c-.2 0-1.1.7-1.1.7l-.8.3s-.1-.1-.2 0l-.3.7-.4.4h-.6c0 .1-.7.3-1 .6l-1.1.5h-.3c-.3 0-.4.3-.6.4l-.8.6-1 .5c-.4.1-1 1-1.6 1.3-.6.4-1.3 1.2-1.8 1.4-.4.3-1.6 1-2 1.6-.6.7-1.3 1-2.3 1.5-1 .6-1.8 1.5-3.4 2.7-1.5 1.1-1.2.9-2.8 2.4-.1.1-1 1-1.4 1.7-.3.7-.2 0-.5.5-.2.6-.8.8-1.5 1.5v-.2c-2 1.3-1.4 3-3.5 4.4h.2c-2 1.9-2.9 4.4-4.7 6.4-.4.6-.2.7-.2 1.2h-.4v.8c-.3.8-.7 2-1 2.4-.4.4-.7 1.2-1 1.9l-.8 2.1c0 .5.3 1.3.4 1.3v.1l.1.6v.7h-.2c.3 2 .8 3.9 1.7 5.7l.9 1.8v.3c0 .1-.1.2.2.7.4.5 1 1.4 3 2.5a34.7 34.7 0 007.1 1.8h2.6l-.9-.1.2-.2h.4a43.3 43.3 0 0030.4-12.4l-.1.3.5-.6c.9-1 1.1-.9 2-1.9l.2-.1c1.8-1.8 1.3-1.8 3-3.4.1-.2 0 0 0 .1l1.2-1.4c2.8-3.5 3.5-6 4.6-7.3l-.1.3c1.4-2.8 1.3-3 1.2-3 0 0-.2.1-.1-.1l1.2-2.6 1.3-1.8-.1-.6c.2-.6.7-1.8.7-1.5.5-2.3 0-1 0-1 .6-1.4.7-2.4 1-4.1 0 0 .5-1.1.5-1.4l.1-1.4.2-2c.5-.4.7-3.6.8-5.5V78c.6-.1 1-.2 1.3-.5h2.1c.4.4 1 .1 1.5.1 1.4-.2 1.4-.6 2.8-.8h-.2c.8-.6.8 0 1.5-.4l.4.4h.5a5 5 0 001-.3c.2 0 .2-.1.3-.2.5-.3.8-.7.8-.9 0 .1.3-.2 0 0zM102.7 49zm44.5 34.8c-1 6-2 11-4.2 17-1.1 3-3 6-4.8 8.8a28 28 0 01-6.8 7.4c-1.7 1.2-2.7 1.7-3.5 2.2-.8.5-1.4.8-2.7 1.3h-1c-1.5.4-3 .6-4.7.6a13 13 0 01-4.1-.7c-1.2-.4-2.2-1-2.9-1.8-.6-.8-.5-1.6-.8-2.6l-.4-1.6-.3-2.5.1-1.3c.2-.2-.3-.6-.2-.7l.4-.6c0-.3.5-1 .5-1.1v-.8c-.4-.1.1-1 .3-1.7l1.2-1.8h.1l.4-.9.6-.8c.4-.6 1-1.7 1.6-2.4 1.2-.7 1.7-2 2-2.4l1.8-2.2 1.4-1.6c.5-.6 1-.7 1.2-1.2.1-.1.5-.2.6 0l1.1-1s.3 0 .8-.4l.7-.6 1.7-1 1.8-1.3c.4-.3 1-.9 1.3-1l1.8-1c.2 0 .1-.3.4-.4.3-.2.5 0 .5 0l1-.4 1-.8s.8-.2 1.3-.6l.6-.5s.5 0 .9-.2c.5-.2 1.5-.5 1.7-.7l1.6-.2.2-.4.5-.2c.4-.2-.2 0 0-.2.2-.1 1.2 0 1.6-.4l.6-.5c.4-.3 1.5-.1 2.1-.4a4 4 0 011-.2h.7l-.7 3.8zm442 8.3h-4.8c-.8 0-1.4.6-1.4 1.4v4.9c0 .8.6 1.4 1.4 1.4h4.8c.8 0 1.4-.6 1.4-1.4v-4.9c0-.8-.6-1.4-1.4-1.4m26.5-1.1c-.2-.3-.6-.6-1-.6-.5 0-.9 0-1.2.4 0 0-2.6 2.8-6.4 2.8a7 7 0 01-7-7.3c0-4.1 2.9-7.1 6.9-7.1 3.4 0 5.6 2.3 5.6 2.3.3.3.7.5 1.1.4.5 0 .8-.2 1-.6l2.3-3.2c.3-.5.3-1.2-.1-1.7-.2-.1-3.5-4-10.1-4-8.1 0-14.2 6-14.2 14s6 14 14.2 14c6.8 0 10.5-4.2 10.6-4.4.4-.4.5-1 .2-1.5l-1.9-3.4m17.7-18.7a14 14 0 00-14.4 14 14 14 0 0014.4 14 14 14 0 0014.3-14 14 14 0 00-14.3-14zm0 21.2c-4 0-7-3.1-7-7.3 0-4 3-7.1 7-7.1 3.9 0 6.8 3 6.8 7.1 0 4.2-3 7.3-6.8 7.3zm47.1-21.2a11 11 0 00-8.3 4c-1.4-2.6-4-4-7.6-4-2.6 0-5 1.2-6.8 2.8v-.8c0-.8-.7-1.4-1.4-1.4h-4.5c-.7 0-1.4.6-1.4 1.4v24c0 .8.7 1.4 1.4 1.4h4.6c.8 0 1.4-.6 1.4-1.4v-11c0-.9 0-1.9.2-2.7.7-2.5 2.5-5.3 5.6-5.3 1.9 0 2.8.7 2.8 4.6v14.4c0 .8.6 1.4 1.4 1.4h4.6c.7 0 1.3-.6 1.3-1.4v-11c0-1.2.1-2.1.3-3 .7-2.5 2.6-5 5.4-5 2 0 3 .7 3 4.6v14.4c0 .8.5 1.4 1.3 1.4h4.6c.8 0 1.4-.6 1.4-1.4V83c0-8.7-5-10.6-9.3-10.6" fill="#000"/></svg>