<svg width="2130" height="848" fill="none" xmlns="http://www.w3.org/2000/svg">
  <path d="M1273.93 258.058c0-13.99-3.49-25.171-10.49-33.562-6.75-8.619-17.01-12.937-30.75-12.937-13.05 0-23.54 4.318-31.46 12.937-7.69 8.619-11.54 20.046-11.54 34.256v103.82h-41.59V175.908h40.54v25.172c14.22-19.345 33.21-29.017 56.98-29.017 22.83 0 40.19 6.987 52.08 20.977 11.88 13.981 17.82 32.158 17.82 54.53v115.002h-41.59V258.058zM1388.86 281.475c.23 13.981 5.83 25.637 16.78 34.958 10.95 9.084 23.53 13.63 37.75 13.63 26.1 0 42.64-10.488 49.63-31.456l34.6 11.884c-5.12 17.009-15.61 30.525-31.45 40.549-15.62 10.023-32.98 15.025-52.08 15.025-27.73 0-51.03-9.198-69.91-27.611-18.64-18.642-27.96-41.83-27.96-69.565 0-26.796 8.97-49.633 26.91-68.512 17.95-18.879 40.32-28.314 67.11-28.314 28.43 0 50.69 8.856 66.77 26.568 16.07 17.711 24.11 41.014 24.11 69.907 0 5.599-.23 9.909-.7 12.937h-141.56zm51.38-73.76c-12.81 0-23.77 3.844-32.85 11.541-9.09 7.689-14.57 17.94-16.43 30.754h97.87c-.7-13.042-5.71-23.302-15.03-30.754-9.09-7.697-20.28-11.541-33.56-11.541zM1602.86 280.429c0 13.982 3.38 25.277 10.13 33.905 6.99 8.391 17.36 12.586 31.11 12.586 13.04 0 23.42-4.318 31.11-12.937 7.92-8.619 11.88-20.037 11.88-34.256v-103.82h41.6v186.664h-40.55v-25.163c-14.22 19.336-33.21 29.008-56.97 29.008-22.61 0-39.97-6.987-52.08-20.968-11.89-14.219-17.83-32.509-17.83-54.881v-114.66h41.6v104.522zM1876.13 217.851c-3.49-.693-7.46-1.044-11.88-1.044-15.85 0-27.96 4.423-36.35 13.279-8.16 8.856-12.23 21.442-12.23 37.758v94.728h-41.6V175.907h40.54v28.665c5.59-9.786 12.94-17.246 22.02-22.372 9.32-5.362 19.12-8.039 29.37-8.039 3.49 0 6.87.351 10.13 1.044v42.646zM2003.63 362.572v-25.514c-11.42 19.107-29.72 28.665-54.88 28.665-18.17 0-33.21-5.134-45.09-15.386-11.88-10.251-17.82-23.416-17.82-39.495v-2.098c0-10.26 2.44-19.23 7.33-26.918 4.9-7.926 11.31-13.867 19.23-17.826 8.16-4.195 16.43-7.223 24.81-9.093a110.653 110.653 0 0126.22-3.142h23.07c11.65 0 17.48-5.248 17.48-15.736 0-7.917-3.27-14.561-9.79-19.924-6.3-5.591-15.27-8.39-26.91-8.39-11.19 0-20.4 2.914-27.62 8.741-7.22 5.591-11.65 12.937-13.28 22.021l-37.75-8.39c.93-8.856 5.12-18.177 12.58-27.963 7.46-10.023 17.25-17.598 29.37-22.723 10.71-4.889 23.3-7.338 37.74-7.338 34.96 0 58.26 12.701 69.91 38.101 4.2 9.32 6.29 20.511 6.29 33.562v118.846h-40.89zm0-81.448h-40.2c-8.85 0-17.13 2.334-24.81 6.995-7.46 4.423-11.19 10.716-11.19 18.87 0 7.697 2.68 13.867 8.04 18.528 5.59 4.66 12.82 6.995 21.67 6.995 14.21 0 25.51-4.081 33.9-12.235 8.39-8.154 12.59-19.23 12.59-33.211v-5.942zM2087.94 362.57V78.027h41.59V362.57h-41.59zM1049.17 721.056c0-8.628 2.91-15.851 8.74-21.679 6.06-6.056 13.28-9.084 21.67-9.084 8.62 0 15.84 3.028 21.67 9.084 5.83 5.828 8.74 13.051 8.74 21.679 0 8.391-3.03 15.614-9.09 21.67-5.83 5.828-12.93 8.741-21.32 8.741s-15.61-3.028-21.67-9.092c-5.83-6.056-8.74-13.165-8.74-21.319zM1148.08 749.722V465.178h41.59v284.544h-41.59zM1250.61 724.901c-19.11-18.642-28.66-41.602-28.66-68.863 0-27.269 9.67-50.22 29.01-68.862 19.34-18.642 42.64-27.972 69.91-27.972 27.03 0 50.1 9.207 69.2 27.621 19.11 18.405 28.66 41.251 28.66 68.511 0 27.498-9.55 50.686-28.66 69.565-18.87 18.642-42.06 27.963-69.55 27.963-27.27 0-50.57-9.321-69.91-27.963zm29.36-110.816c-10.25 11.191-15.38 24.944-15.38 41.251 0 16.316 5.24 30.412 15.73 42.296 10.49 11.655 24 17.483 40.55 17.483 16.54 0 29.94-5.714 40.19-17.132 10.26-11.419 15.38-25.401 15.38-41.945s-5.24-30.534-15.73-41.953c-10.25-11.418-23.65-17.123-40.19-17.123-16.55 0-30.06 5.705-40.55 17.123zM1422.88 563.058h45.09l54.88 138.076 54.87-138.076h43.7l-77.95 186.664h-41.6l-78.99-186.664zM1668.59 668.624c.23 13.982 5.82 25.628 16.78 34.949 10.95 9.093 23.53 13.639 37.74 13.639 26.1 0 42.65-10.488 49.64-31.464l34.6 11.883c-5.13 17.019-15.61 30.535-31.46 40.549-15.61 10.023-32.97 15.035-52.08 15.035-27.73 0-51.03-9.207-69.9-27.612-18.64-18.651-27.96-41.839-27.96-69.565 0-26.804 8.96-49.641 26.91-68.52 17.94-18.87 40.31-28.314 67.11-28.314 28.43 0 50.68 8.856 66.76 26.567 16.08 17.712 24.12 41.023 24.12 69.916 0 5.591-.24 9.9-.71 12.937h-141.55zm51.38-73.76c-12.82 0-23.77 3.844-32.86 11.533-9.09 7.688-14.56 17.948-16.43 30.762h97.87c-.7-13.051-5.71-23.302-15.03-30.762-9.08-7.689-20.27-11.533-33.55-11.533zM476.631 777.403l51.251 46.495 51.251-46.495c182.03-164.502 302.204-273.347 302.204-406.144 0-108.845-85.534-193.737-194.403-193.737-61.498 0-120.525 28.532-159.052 73.268-35.553-41.283-88.563-68.767-144.865-72.763v513.93c28.881 26.937 60.206 55.25 93.614 85.446zM352.524 647.615l.001-470.093h-58.757v58.761h-58.756v58.762h-58.756v235.046h58.756v58.761h58.756v58.763h58.756zM117.518 177.522h58.756v58.761h-58.756v-58.761zM58.756 236.283H0v58.762h58.756v58.761h58.756v-58.761H58.756v-58.762zM352.552 0h30.425v135.886h-30.425V0zM352.552 716.792l30.483 28.235V847.17h-30.483V716.792z" fill="#4A4B65"/>
</svg>