<?xml version="1.0" encoding="iso-8859-1"?>
<!-- Generator: Adobe Illustrator 27.0.0, SVG Export Plug-In . SVG Version: 6.00 Build 0)  -->
<svg version="1.1" id="Layer_1" xmlns="http://www.w3.org/2000/svg" xmlns:xlink="http://www.w3.org/1999/xlink" x="0px" y="0px"
	 viewBox="0 150 500 180" style="enable-background:new 0 0 500 500" xml:space="preserve">
<g>
	<path d="M183.513,212.473c0,25.95,0,51.901,0,77.983c-8.258-3.315-16.684-2.135-22.551,2.978
		c-6.248,5.446-5.502,14.57,1.691,18.592c5.962,3.334,12.205,3.292,18.33,0.398c5.845-2.761,8.871-7.209,8.783-14.003
		c-0.213-16.32-0.067-51.004-0.067-52.023c2.232,0,8.179,6.329,10.272,12.267c0.427-0.479,18.101-24.972,27.99-35.289
		c8.822-9.203,18.318-17.568,30.186-22.745c0.876-0.382,1.875-0.479,2.875-0.722c0,23.868,0,47.292,0,70.818
		c-6.487-1.332-12.516-1.193-17.966,2.571c-4.262,2.944-7.028,6.8-6.221,12.235c0.696,4.688,3.967,7.605,8.124,9.103
		c5.964,2.148,11.912,1.827,17.534-1.561c4.681-2.82,7.113-6.572,7.089-12.313c-0.148-34.783-0.219-106.754-0.299-108.204
		c-24.428,2.908-68.327,52.188-68.327,61.402C198.082,228.101,189.409,216.322,183.513,212.473z"/>
	<path d="M429.626,250.852c2.021-8.578,7.85-10.94,15.377-12.151c4.018-0.646,8.074-1.053,12.1-1.653
		c2.141-0.319,3.583-1.458,3.651-3.828c0.068-2.385-1.22-3.906-3.333-4.588c-4.86-1.568-9.383-0.904-13.357,2.479
		c-0.887,0.755-1.68,1.631-2.617,2.314c-2.386,1.739-5.261,1.633-7.206-0.176c-1.964-1.826-2.503-4.416-0.481-6.767
		c2.078-2.416,4.634-4.824,7.49-6.088c7.478-3.31,15.374-2.911,23.096-0.737c6.321,1.78,9.555,6.37,9.623,12.997
		c0.071,6.9-0.038,13.802,0.052,20.702c0.025,1.914,0.318,3.862,0.771,5.726c0.929,3.825-1.324,6.958-5.35,7.196
		c-3.694,0.218-5.835-1.479-8.28-6.747c-4.853,4.671-10.664,7.026-17.301,6.7c-6.956-0.341-11.896-3.748-14.222-10.972
		c-3.21,7.003-8.888,9.757-15.774,10.712c-7.041,0.976-13.54-0.311-19.252-4.651c-4.157-3.159-5.965-7.692-7.123-12.631
		c-2.32-9.9,1.414-20.94,9.142-26.563c7.81-5.683,21.889-5.304,29.247,0.882c1.162,0.977,2.172,2.25,2.928,3.572
		c1.904,3.327,1.134,6.63-1.763,8.416c-2.658,1.638-5.884,0.795-8.103-2.119c-3.61-4.74-8.825-6.033-13.395-2.985
		c-1.529,1.02-2.91,2.682-3.665,4.362c-2.271,5.054-2.44,10.378-0.514,15.569c2.537,6.837,11.194,8.343,16.119,2.944
		c0.458-0.502,0.891-1.028,1.316-1.558C422.343,246.792,425.564,246.606,429.626,250.852z M460.597,244.389
		c-2.597,0.498-5.034,0.906-7.441,1.443c-2.528,0.563-5.085,1.086-7.523,1.931c-2.14,0.741-3.064,2.611-2.993,4.832
		c0.075,2.319,1.528,3.727,3.584,4.431c4.299,1.472,8.277,0.531,11.668-2.292C461.249,251.938,461.135,248.084,460.597,244.389z"/>
	<path d="M52.248,267.596c-8.893,0.688-24.25-3.752-27.057-15.159c-0.63-2.561,0.733-4.668,3.157-5.942
		c2.459-1.292,4.765-0.841,6.767,0.827c1.248,1.04,2.317,2.362,3.243,3.711c4.585,6.672,13.594,7.17,19.402,4.857
		c3.08-1.227,5.335-4.689,5.132-7.476c-0.207-2.846-2.15-4.806-5.965-5.851c-6.355-1.741-12.811-3.165-19.072-5.19
		c-12.43-4.021-16.701-17.183-9.004-27.162c2.917-3.782,7.003-5.825,11.459-7.006c9.174-2.431,18.083-1.623,26.496,2.952
		c3.293,1.791,6.127,4.119,7.417,7.846c0.973,2.811,0.379,5.343-1.579,6.846c-2.342,1.798-5.851,1.894-8.134,0.094
		c-0.98-0.773-1.817-1.746-2.637-2.699c-4.368-5.079-12.204-6.87-18.33-4.158c-3.074,1.361-4.286,3.222-4.302,6.219
		c-0.017,3.012,1.985,4.453,4.348,5.137c5.299,1.535,10.715,2.661,16.045,4.098c2.697,0.727,5.421,1.529,7.938,2.711
		c7.16,3.363,10.123,9.342,9.656,17.018c-0.464,7.622-4.579,12.999-11.535,15.695C61.435,266.613,56.848,267.24,52.248,267.596z"/>
	<path d="M157.639,261.306c-3.88,1.832-7.518,4.164-11.496,5.284c-5.809,1.635-11.618,1.099-16.328-3.378
		c-7.051-6.702-4.601-18.557,4.7-21.411c5.133-1.575,10.611-2.025,15.937-2.963c0.763-0.134,1.557-0.096,2.317-0.243
		c2.171-0.419,3.861-1.463,4.108-3.868c0.254-2.471-1.073-4.284-3.248-4.954c-4.655-1.434-9.211-1.269-13.157,2.134
		c-0.955,0.824-1.864,1.705-2.853,2.485c-2.371,1.868-5.183,1.888-7.158,0.105c-2.148-1.938-2.367-4.655-0.471-7.347
		c2.336-3.316,5.65-5.22,9.486-6.325c7.408-2.134,14.783-1.957,22.03,0.595c6.166,2.171,8.371,7.025,8.362,13.204
		c-0.01,6.605-0.046,13.21,0.024,19.814c0.019,1.831,0.232,3.687,0.606,5.48c0.766,3.678,0.019,5.701-2.809,6.944
		c-2.87,1.262-7.017,0.16-8.594-2.403C158.403,263.336,157.975,262.051,157.639,261.306z M156.795,245.471
		c-3.962,0.782-7.721,1.492-11.464,2.279c-1.219,0.256-2.454,0.586-3.582,1.101c-2.378,1.086-3.495,3.012-3.1,5.632
		c0.35,2.323,3.021,4.193,6.134,4.435C152.963,259.554,157.817,254.034,156.795,245.471z"/>
	<path d="M110.515,259.546c-4.423,5.516-9.76,8.017-16.48,7.744c-8.394-0.341-14.601-6.186-14.742-14.573
		c-0.155-9.23-0.054-18.464,0.007-27.697c0.024-3.575,2.214-5.499,6.038-5.549c4.13-0.053,6.353,1.72,6.408,5.424
		c0.096,6.51,0.015,13.022,0.05,19.533c0.008,1.547,0.171,3.095,0.287,4.64c0.269,3.578,1.591,6.39,5.402,7.39
		c3.768,0.989,6.844-0.238,9.479-2.92c2.204-2.243,2.735-5.083,2.757-8.047c0.047-6.414,0-12.828,0.02-19.242
		c0.014-4.532,1.986-6.704,6.081-6.775c4.42-0.076,6.548,1.877,6.589,6.587c0.101,11.564,0.095,23.13,0.008,34.694
		c-0.033,4.473-1.945,6.465-5.707,6.496c-3.88,0.032-5.421-1.673-5.763-6.355C110.93,260.632,110.786,260.375,110.515,259.546z"/>
	<path d="M308.262,259.104c-1.024,0.965-1.839,1.73-2.651,2.499c-7.545,7.152-21.137,6.149-25.941-2.422
		c-1.889-3.371-2.502-7.724-2.749-11.689c-0.428-6.872-0.142-13.79-0.097-20.689c0.008-1.248,0.224-2.508,0.468-3.738
		c0.776-3.922,3.124-5.338,7.874-4.821c2.877,0.313,4.769,2.595,4.784,5.916c0.031,6.899,0.002,13.798,0.02,20.697
		c0.003,1.063,0.03,2.141,0.206,3.184c0.93,5.493,3.102,7.332,8.352,7.157c4.582-0.153,8.647-3.578,8.816-8.037
		c0.28-7.374,0.168-14.763,0.231-22.145c0.041-4.805,2.02-6.815,6.659-6.793c4.129,0.019,6.356,1.995,6.386,6.189
		c0.087,11.95,0.065,23.901-0.022,35.851c-0.025,3.486-2.319,5.804-5.488,6.011c-3.184,0.208-5.309-1.662-6.041-5.254
		C308.964,260.49,308.65,260.003,308.262,259.104z"/>
	<path d="M344.172,218.286c5.26-0.356,9.823,0.616,13.99,2.83c1.881,1,3.598,2.64,4.869,4.372c1.49,2.03,0.854,5.03-0.858,6.685
		c-1.808,1.748-4.326,1.973-6.713,0.531c-0.741-0.447-1.437-0.997-2.069-1.59c-3.723-3.491-8.093-4.014-12.717-2.502
		c-1.031,0.337-2.375,1.79-2.363,2.712c0.015,1.125,1.086,2.885,2.092,3.231c3.653,1.258,7.498,1.944,11.215,3.036
		c2.497,0.734,4.972,1.634,7.333,2.727c9.263,4.285,8.747,15.626,2.202,20.972c-5.449,4.451-11.861,5.593-18.61,4.814
		c-4.72-0.545-9.451-1.579-13.234-4.73c-1.581-1.317-2.989-3.072-3.891-4.915c-1.131-2.311-0.399-4.667,1.673-6.238
		c1.986-1.506,4.224-1.401,6.227,0.074c1.399,1.03,2.635,2.283,3.944,3.436c3.77,3.323,8.041,4,12.742,2.418
		c1.851-0.623,3.327-1.943,2.815-3.817c-0.358-1.309-1.802-2.861-3.093-3.28c-4.97-1.612-10.139-2.608-15.112-4.209
		c-8.784-2.827-12.416-11.962-7.684-19.228c3.16-4.853,8.199-6.59,13.655-7.305C341.923,218.137,343.302,218.286,344.172,218.286z"
		/>
	<path d="M384.155,242.211c0,5.721,0.018,11.443-0.006,17.165c-0.019,4.427-2.327,6.881-6.421,6.902
		c-4.16,0.021-6.639-2.345-6.664-6.699c-0.066-11.54-0.077-23.08,0.006-34.62c0.035-4.9,2.184-6.822,7.038-6.736
		c4.03,0.072,6.027,2.306,6.041,6.824C384.169,230.768,384.155,236.489,384.155,242.211z"/>
	<path d="M215.368,327.441c-5.01-0.058-9.8-1.113-14.186-3.632c-3.044-1.749-3.882-4.188-2.497-6.768
		c1.517-2.827,3.985-3.649,7.144-1.962c9.04,4.826,19.517,1.427,24.375-6.091c2.5-3.869,6.45-3.909,8.777-0.492
		c1.429,2.098,0.87,4.041-0.417,5.943C233.012,322.645,225.231,326.871,215.368,327.441z"/>
	<path d="M291.751,210.085c0.75-2.74,8.776-8.613,13.781-11.348c1.905-1.041,3.753,0.343,4.934,2.138
		c1.156,1.758,1.323,3.811-0.299,5.035c-4.3,3.244-8.734,6.35-13.358,9.104C295.017,216.082,290.762,213.7,291.751,210.085z"/>
	<path d="M377.669,200.696c3.666,0.014,6.642,2.963,6.648,6.588c0.006,3.815-2.984,6.84-6.752,6.831
		c-3.567-0.009-6.965-3.46-6.832-6.938C370.866,203.732,374.13,200.683,377.669,200.696z"/>
</g>
</svg>
