<svg xmlns="http://www.w3.org/2000/svg" xmlns:xlink="http://www.w3.org/1999/xlink" width="144.561" height="27.057" viewBox="0 0 144.561 27.057"> <defs> <linearGradient id="a" x1="0.5" x2="0.5" y2="1" gradientUnits="objectBoundingBox"> <stop offset="0" stop-color="#304053"></stop> <stop offset="1" stop-color="#152438"></stop> </linearGradient> </defs> <g transform="translate(-101.47 -47.391)"> <path class="tree" d="M10.116,23.876a9.974,9.974,0,0,1-7.674-3.538A10.47,10.47,0,0,1,.063,12.616a5.874,5.874,0,0,1,2.117-4.1A6.375,6.375,0,0,1,4.905,7.224,9.172,9.172,0,0,1,13.948,0a9.556,9.556,0,0,1,8.768,6.073,5.019,5.019,0,0,1,3.409,1.559,4.549,4.549,0,0,1,.372,5.511c.608,3.817-.8,7.282-3.56,8.688a9.058,9.058,0,0,1-7.91.017,4.814,4.814,0,0,1-1.11,1.066,7.083,7.083,0,0,1-3.8.96M13.948,1.622A7.515,7.515,0,0,0,6.417,8.031l-.082.621-.623.08A4.906,4.906,0,0,0,3.184,9.789a4.307,4.307,0,0,0-1.512,3.021,8.825,8.825,0,0,0,2.022,6.5c2.6,3.156,7.371,3.545,9.313,2.267a3.2,3.2,0,0,0,1.01-1.153l.385-.735.727.4a7.543,7.543,0,0,0,7.068.3c2.191-1.116,3.255-4.036,2.649-7.265l-.061-.324.184-.273a3,3,0,0,0-.061-3.822,3.486,3.486,0,0,0-2.321-1.014l-.337.376-.376-.327-.026,0L21,6.923l.208-.253a7.9,7.9,0,0,0-7.261-5.048" transform="translate(101.97 48.133)" fill="#2376e5" opacity="0"></path> <path class="tree" d="M7.588,13.949h0a1.089,1.089,0,0,1-1.079-1.235l.27-1.983a.817.817,0,0,1,1.618,0l.27,1.983a1.089,1.089,0,0,1-1.079,1.235" transform="translate(109.526 59.791)" fill="#2376e5" opacity="0"></path> <path d="M67.531,4.247a6.66,6.66,0,0,0-4.84-1.7H59.245a6.692,6.692,0,0,0-4.86,1.683,6.463,6.463,0,0,0-1.724,4.823v7.124A6.468,6.468,0,0,0,54.385,21a6.691,6.691,0,0,0,4.86,1.681H62.69a6.659,6.659,0,0,0,4.84-1.7,6.439,6.439,0,0,0,1.743-4.806V9.051a6.434,6.434,0,0,0-1.743-4.8M64.044,9.207V16.02a2.233,2.233,0,0,1-.463,1.6,2.3,2.3,0,0,1-1.626.448H59.98a2.223,2.223,0,0,1-1.6-.446,2.225,2.225,0,0,1-.446-1.6V9.207a2.233,2.233,0,0,1,.446-1.6,2.233,2.233,0,0,1,1.6-.446h1.975a2.366,2.366,0,0,1,1.626.45,2.223,2.223,0,0,1,.463,1.6" transform="translate(163.206 51.092)" fill="url(#a)"></path> <path d="M24.211,9.879h3.264a1.709,1.709,0,0,0,1.709-1.709V6.9A1.709,1.709,0,0,0,27.475,5.19H24.2a.491.491,0,0,1-.489-.489V1.985A1.712,1.712,0,0,0,22.005.272H20.122a1.714,1.714,0,0,0-1.713,1.713V4.7a.487.487,0,0,1-.487.487H16.574A1.709,1.709,0,0,0,14.868,6.9V8.171a1.709,1.709,0,0,0,1.706,1.709h1.332a.5.5,0,0,1,.5.5v8.567a6.371,6.371,0,0,0,1.745,4.786,6.759,6.759,0,0,0,4.877,1.681l1.27,0v-.011l1.183.009A1.655,1.655,0,0,0,28.3,25.2a1.7,1.7,0,0,0,.882-1.482V22.467a1.7,1.7,0,0,0-1.7-1.7H25.844A2.332,2.332,0,0,1,24.2,20.3a2.15,2.15,0,0,1-.484-1.581V10.375a.5.5,0,0,1,.5-.5" transform="translate(119.259 48.449)" fill="url(#a)"></path> <path d="M32.275,2.546H24.653a2.406,2.406,0,0,0-2.4,2.405V20.969a1.713,1.713,0,0,0,1.713,1.713H25.57a1.714,1.714,0,0,0,1.711-1.709V10.724c-.006-1.075-.013-2.414.625-3.054a1.392,1.392,0,0,1,1.047-.387h3.309a1.709,1.709,0,0,0,1.706-1.709V4.242a1.7,1.7,0,0,0-1.694-1.7" transform="translate(127.843 51.094)" fill="url(#a)"></path> <path d="M71.213,2.588h-7.62a2.408,2.408,0,0,0-2.405,2.405V21.011A1.714,1.714,0,0,0,62.9,22.724H64.51a1.712,1.712,0,0,0,1.709-1.709V10.766c0-1.077-.011-2.414.625-3.054a1.426,1.426,0,0,1,1.049-.387H71.2a1.709,1.709,0,0,0,1.706-1.709V4.284a1.7,1.7,0,0,0-1.7-1.7" transform="translate(173.122 51.143)" fill="url(#a)"></path> <path d="M58.181,18.082H53.546a.975.975,0,0,1-.785-1.555l6.268-8.481a3.366,3.366,0,0,0,.638-2.1V4.673a2.057,2.057,0,0,0-2.055-2.055H47.094a2.039,2.039,0,0,0-2.037,2.037V5.2a2.029,2.029,0,0,0,2.027,2.027h4.263a.977.977,0,0,1,.785,1.557l-6.506,8.8a.748.748,0,0,0-.074.117,3.656,3.656,0,0,0-.353,1.648v1.278a2.057,2.057,0,0,0,2.055,2.055H57.772a2.041,2.041,0,0,0,2.037-2.037v-.9a1.665,1.665,0,0,0-1.629-1.67" transform="translate(154.364 51.177)" fill="url(#a)"></path> <path d="M35.008,14.977h5.95a3.712,3.712,0,0,0,3.707-3.707V9.051a6.466,6.466,0,0,0-1.724-4.823,6.692,6.692,0,0,0-4.86-1.683H35.023a6.692,6.692,0,0,0-4.86,1.683,6.463,6.463,0,0,0-1.724,4.823v7.124A6.468,6.468,0,0,0,30.163,21a6.691,6.691,0,0,0,4.86,1.681h7.89A1.68,1.68,0,0,0,44.591,21V19.776a1.67,1.67,0,0,0-1.668-1.668H35.758a2.27,2.27,0,0,1-1.624-.465,1.7,1.7,0,0,1-.415-.945l0-.03v-.251a1.452,1.452,0,0,1,1.291-1.44m-1.3-5.77a2.233,2.233,0,0,1,.446-1.6,2.243,2.243,0,0,1,1.6-.446h1.626a2.236,2.236,0,0,1,1.6.446,2.3,2.3,0,0,1,.446,1.6v.72A1.371,1.371,0,0,1,38.064,11.3H35.079a1.372,1.372,0,0,1-1.371-1.371Z" transform="translate(135.04 51.092)" fill="url(#a)"></path> <path d="M43.368,15.019h5.95a3.712,3.712,0,0,0,3.707-3.707V9.093A6.466,6.466,0,0,0,51.3,4.27a6.7,6.7,0,0,0-4.86-1.683H43.383a6.692,6.692,0,0,0-4.86,1.683A6.463,6.463,0,0,0,36.8,9.093v7.124a6.468,6.468,0,0,0,1.724,4.825,6.691,6.691,0,0,0,4.86,1.681h7.89a1.68,1.68,0,0,0,1.678-1.678V19.818a1.67,1.67,0,0,0-1.668-1.668H44.118a2.274,2.274,0,0,1-1.624-.465,1.7,1.7,0,0,1-.415-.945l0-.03v-.251a1.452,1.452,0,0,1,1.291-1.44m-1.3-5.77a2.232,2.232,0,0,1,.446-1.6,2.243,2.243,0,0,1,1.6-.446h1.626a2.236,2.236,0,0,1,1.6.446,2.3,2.3,0,0,1,.446,1.6v.72a1.371,1.371,0,0,1-1.369,1.369H43.439a1.372,1.372,0,0,1-1.371-1.371Z" transform="translate(144.761 51.141)" fill="url(#a)"></path> <rect width="144.06" height="25.731" transform="translate(101.97 48.134)" fill="none"></rect> <path class="tree" d="M26.523,7.881A4.555,4.555,0,0,0,22.9,6.518c-.142-.137.147.127,0,0A9.345,9.345,0,0,0,14.1,0,8.926,8.926,0,0,0,5.153,7.619,6.145,6.145,0,0,0,1.992,8.944c-2.683,2.008-2.767,7.545.43,11.415s8.8,4.145,11.149,2.6A4.291,4.291,0,0,0,14.95,21.4a9,9,0,0,0,8.408.339c2.86-1.455,3.977-5.12,3.3-8.712a4.084,4.084,0,0,0-.137-5.146" transform="translate(101.969 47.891)" fill="#2376e5" stroke="#2376e5" stroke-width="1"></path> <path class="tree trunk" d="M28.957,48h0A1.166,1.166,0,0,1,27.8,46.681l.29-2.123a.877.877,0,0,1,1.736,0l.29,2.123A1.166,1.166,0,0,1,28.957,48" transform="translate(88.397 26.443)" fill="url(#a)"></path> </g> </svg>