<svg width="110" height="37" viewBox="0 0 110 37" fill="#000" xmlns="http://www.w3.org/2000/svg"><g><path d="M41.7786 13.0602L45.0258 22.6746L48.281 12.9939C48.4503 12.4872 48.5774 12.1335 48.6621 11.9328C48.7565 11.7222 48.9011 11.5379 49.0833 11.396C49.3143 11.2253 49.5977 11.1407 49.8845 11.1568C50.1258 11.1558 50.3629 11.2194 50.5712 11.3411C50.7773 11.4604 50.9491 11.6306 51.0703 11.8355C51.1857 12.0225 51.2478 12.2374 51.25 12.4571C51.2487 12.6136 51.2295 12.7695 51.1927 12.9217C51.1545 13.0878 51.1052 13.251 51.0451 13.4105C50.9879 13.5707 50.9306 13.7344 50.87 13.9049L47.3973 23.2721C47.2749 23.6292 47.1524 23.9703 47.0265 24.2942C46.9159 24.5928 46.7715 24.8777 46.5961 25.1435C46.4302 25.3921 46.2079 25.598 45.9472 25.7444C45.6431 25.9066 45.3015 25.9852 44.9571 25.9721C44.612 25.984 44.2698 25.905 43.9648 25.7432C43.7008 25.5968 43.4759 25.3892 43.3089 25.1377C43.133 24.8692 42.9871 24.5821 42.874 24.2816C42.7515 23.9623 42.6256 23.6235 42.5032 23.2664L39.0901 13.977C39.0305 13.8076 38.9756 13.6417 38.9104 13.478C38.8435 13.3064 38.7911 13.1295 38.7535 12.9492C38.7146 12.793 38.6931 12.6329 38.6895 12.4719C38.6914 12.3002 38.7278 12.1307 38.7967 11.9734C38.8655 11.8161 38.9653 11.6742 39.0901 11.5563C39.2202 11.4219 39.3768 11.3161 39.55 11.2456C39.7232 11.175 39.9092 11.1413 40.0961 11.1465C40.5929 11.1465 40.9431 11.2965 41.148 11.6043C41.3529 11.9122 41.5692 12.3952 41.7786 13.0602Z"></path><path d="M61.9211 11.1564C63.4075 11.1564 64.6833 11.4578 65.7485 12.0606C66.8004 12.6479 67.6448 13.5462 68.1659 14.6324C68.7153 15.7434 68.9892 17.0482 68.9877 18.5469C69 19.5722 68.8489 20.593 68.5402 21.5708C68.2585 22.4413 67.7985 23.2435 67.1896 23.9263C66.5801 24.5977 65.8237 25.1191 64.9794 25.4498C64.1095 25.8034 63.1069 25.974 61.9852 25.974C60.9552 25.9916 59.9318 25.8073 58.9727 25.4315C58.1265 25.0967 57.3676 24.5738 56.7534 23.9023C56.1428 23.2135 55.6848 22.4034 55.4096 21.525C55.0985 20.5554 54.944 19.5423 54.9518 18.524C54.9397 17.4943 55.0998 16.4699 55.4257 15.4931C55.712 14.6225 56.1802 13.8227 56.7992 13.1468C57.4079 12.492 58.1568 11.9834 58.9899 11.6588C59.9262 11.3068 60.921 11.1363 61.9211 11.1564V11.1564ZM66.0416 18.5285C66.0416 17.4786 65.8725 16.5694 65.5345 15.801C65.1911 15.0319 64.7127 14.4482 64.0821 14.0544C63.4316 13.6542 62.6801 13.4488 61.9165 13.4627C61.3653 13.4581 60.8193 13.5696 60.3141 13.79C59.8227 14.0072 59.3874 14.3337 59.0414 14.7446C58.6563 15.2167 58.3705 15.7617 58.2012 16.347C57.9876 17.0557 57.8837 17.793 57.8934 18.5331C57.884 19.2808 57.9878 20.0255 58.2012 20.7421C58.3753 21.3425 58.6715 21.9005 59.0711 22.3812C59.4234 22.797 59.8641 23.129 60.3611 23.3529C60.9457 23.6002 61.58 23.7073 62.2134 23.6656C62.8469 23.6238 63.4617 23.4345 64.0088 23.1126C64.6307 22.7417 65.1267 22.1694 65.4967 21.3957C65.8668 20.622 66.0499 19.6682 66.0461 18.5343L66.0416 18.5285Z"></path><path d="M73.6511 22.947L76.8559 18.2635L74.1581 14.0972C73.9417 13.7652 73.7504 13.4174 73.5858 13.0568C73.465 12.7946 73.4007 12.5099 73.397 12.2213C73.4 12.0788 73.4343 11.9388 73.4976 11.8112C73.5609 11.6836 73.6516 11.5716 73.7632 11.483C74.0089 11.2637 74.3291 11.1466 74.6583 11.1557C75.0612 11.1557 75.3748 11.2701 75.6003 11.5128C75.8257 11.7554 76.1359 12.1915 76.5342 12.8359L78.686 16.3177L80.9855 12.8359L81.4696 12.0851C81.5833 11.9016 81.712 11.7278 81.8542 11.5654C81.9707 11.4353 82.1129 11.3309 82.272 11.2587C82.44 11.1868 82.6215 11.1517 82.8042 11.1557C83.1339 11.1433 83.4553 11.2608 83.6992 11.483C83.8085 11.5807 83.8956 11.7005 83.9548 11.8345C84.014 11.9686 84.0439 12.1137 84.0426 12.2602C84.0426 12.6974 83.792 13.2903 83.2918 14.04L80.4658 18.2635L83.5035 22.947C83.7275 23.2724 83.9269 23.614 84.0998 23.9691C84.2159 24.209 84.2795 24.4708 84.2864 24.7371C84.2876 24.9569 84.2303 25.1729 84.1204 25.3632C84.008 25.5526 83.8456 25.7074 83.6512 25.8107C83.4405 25.9248 83.2039 25.9823 82.9644 25.9779C82.7216 25.9854 82.4814 25.9264 82.2697 25.8073C82.0884 25.6997 81.9323 25.5545 81.8118 25.3815C81.6951 25.2121 81.4765 24.8833 81.156 24.3949L78.638 20.4244L75.9597 24.5117C75.7502 24.8367 75.6026 25.0668 75.5144 25.1984C75.4212 25.3353 75.315 25.4629 75.1974 25.5795C75.0717 25.7053 74.9223 25.8049 74.7579 25.8726C74.5685 25.9486 74.3656 25.9852 74.1615 25.9801C73.8386 25.9908 73.5242 25.8755 73.2848 25.6585C73.0559 25.4422 72.9414 25.1309 72.9414 24.7188C72.9391 24.2358 73.1761 23.6441 73.6511 22.947Z"></path><path d="M89.6992 24.2084V12.9161C89.6992 12.3278 89.8308 11.886 90.0998 11.5953C90.23 11.4509 90.3902 11.3368 90.5691 11.2609C90.748 11.185 90.9414 11.1491 91.1357 11.1558C91.3333 11.1484 91.5302 11.1833 91.7132 11.2584C91.8963 11.3334 92.0611 11.4467 92.1967 11.5907C92.4679 11.8803 92.6018 12.3209 92.6018 12.9161V24.2084C92.6018 24.8025 92.4679 25.2443 92.1967 25.5384C92.062 25.6839 91.8975 25.7985 91.7143 25.8744C91.5312 25.9503 91.3337 25.9856 91.1357 25.9779C90.9421 25.9827 90.7497 25.9455 90.5719 25.8688C90.3941 25.7922 90.235 25.6779 90.1055 25.5338C89.8331 25.2374 89.6992 24.7956 89.6992 24.2084Z"></path><path d="M108.398 13.6383H101.856V17.159H107.882C108.327 17.159 108.656 17.2563 108.875 17.4565C108.983 17.5556 109.069 17.6772 109.126 17.8128C109.183 17.9484 109.209 18.0948 109.203 18.2417C109.21 18.3906 109.184 18.5392 109.128 18.6773C109.072 18.8155 108.987 18.9402 108.879 19.0429C108.665 19.2501 108.333 19.352 107.882 19.352H101.861V23.4278H108.625C109.083 23.4278 109.426 23.5338 109.655 23.746C109.77 23.8541 109.86 23.9858 109.92 24.132C109.979 24.2781 110.006 24.4354 109.999 24.5929C110.004 24.7469 109.977 24.9003 109.917 25.0425C109.858 25.1848 109.769 25.3125 109.655 25.417C109.426 25.6288 109.083 25.7364 108.625 25.7364H100.736C100.103 25.7364 99.6484 25.596 99.3715 25.3152C99.0945 25.0344 98.9556 24.58 98.9548 23.952V13.1781C98.9416 12.8278 99.0057 12.4788 99.1425 12.156C99.2592 11.9005 99.4657 11.6969 99.7228 11.5838C100.044 11.4521 100.389 11.3901 100.736 11.4018H108.404C108.862 11.4018 109.206 11.5036 109.435 11.7085C109.542 11.8149 109.627 11.9414 109.685 12.0808C109.743 12.2202 109.772 12.3696 109.772 12.5206C109.772 12.6716 109.743 12.821 109.685 12.9604C109.627 13.0998 109.542 13.2263 109.435 13.3327C109.203 13.5364 108.859 13.6383 108.398 13.6383Z"></path></g><path d="M23.609 4.32275H6.7026C5.82231 4.32275 4.95064 4.49616 4.13736 4.83307C3.32409 5.16998 2.58515 5.66379 1.96274 6.28631C1.34033 6.90882 0.846647 7.64784 0.509877 8.46117C0.173107 9.2745 -0.000150226 10.1462 9.77354e-08 11.0265V25.598C9.77354e-08 27.3757 0.706165 29.0805 1.96315 30.3375C3.22013 31.5945 4.92496 32.3006 6.7026 32.3006V36.6775L12.4129 32.3006H23.6056C25.3833 32.3006 27.0881 31.5945 28.3451 30.3375C29.6021 29.0805 30.3082 27.3757 30.3082 25.598V11.0265C30.3085 9.24926 29.603 7.54465 28.3467 6.28752C27.0904 5.03039 25.3863 4.32366 23.609 4.32275Z" fill="#000"></path><path d="M11.3956 13.0793C11.083 12.538 10.5682 12.1431 9.96444 11.9813C9.3607 11.8194 8.7174 11.904 8.17596 12.2163L7.84746 12.4097C7.30642 12.7226 6.91173 13.2374 6.75012 13.8412C6.58851 14.4449 6.67321 15.0881 6.9856 15.6294L11.7516 23.8852C12.1557 24.5848 12.8211 25.0953 13.6016 25.3043C14.382 25.5134 15.2135 25.4039 15.9132 25L17.6919 23.9699L11.3956 13.0793Z" fill="white"></path><path d="M22.4488 12.4225L22.1134 12.2279C21.5721 11.9157 20.929 11.8312 20.3255 11.993C19.7219 12.1548 19.2073 12.5498 18.8949 13.0909L12.6055 23.9849L14.3841 25.0151C14.7305 25.215 15.1129 25.3448 15.5094 25.397C15.906 25.4493 16.3089 25.4228 16.6953 25.3193C17.0816 25.2158 17.4438 25.0372 17.7611 24.7937C18.0784 24.5502 18.3447 24.2466 18.5446 23.9002L23.3118 15.6445C23.4669 15.3763 23.5677 15.0802 23.6083 14.773C23.6489 14.4659 23.6285 14.1538 23.5483 13.8545C23.4682 13.5553 23.3298 13.2748 23.1411 13.029C22.9525 12.7833 22.7172 12.5772 22.4488 12.4225V12.4225Z" fill="url(#paint0_linear_307_5157)"></path><path d="M21.01 11.9556C20.5028 11.9562 20.0072 12.1072 19.5858 12.3893C19.1644 12.6714 18.836 13.0721 18.6422 13.5407C18.4483 14.0094 18.3976 14.5249 18.4966 15.0223C18.5955 15.5197 18.8396 15.9766 19.1981 16.3354C19.5565 16.6942 20.0132 16.9387 20.5105 17.0381C21.0078 17.1374 21.5234 17.0872 21.9922 16.8938C22.461 16.7004 22.862 16.3723 23.1445 15.9512C23.427 15.53 23.5784 15.0346 23.5795 14.5274C23.5803 14.1897 23.5143 13.8551 23.3855 13.5429C23.2567 13.2306 23.0675 12.9469 22.8287 12.708C22.59 12.469 22.3065 12.2796 21.9943 12.1505C21.6822 12.0213 21.3477 11.9551 21.01 11.9556Z" fill="white"></path><defs><linearGradient id="paint0_linear_307_5157" x1="16.1834" y1="23.4058" x2="20.7594" y2="14.1588" gradientUnits="userSpaceOnUse"><stop stop-color="white" stop-opacity="0"></stop><stop offset="0.28" stop-color="white" stop-opacity="0.05"></stop><stop offset="0.58" stop-color="white" stop-opacity="0.08"></stop><stop offset="0.62" stop-color="white" stop-opacity="0.1"></stop><stop offset="0.68" stop-color="white" stop-opacity="0.16"></stop><stop offset="0.74" stop-color="white" stop-opacity="0.26"></stop><stop offset="0.8" stop-color="white" stop-opacity="0.39"></stop><stop offset="0.87" stop-color="white" stop-opacity="0.57"></stop><stop offset="0.94" stop-color="white" stop-opacity="0.78"></stop><stop offset="1" stop-color="white"></stop></linearGradient></defs></svg>