<svg width="1427" height="298" viewBox="0 0 1427 298" fill="none" xmlns="http://www.w3.org/2000/svg">
<path d="M96.7981 76.25C96.7981 89.6429 85.941 100.5 72.5481 100.5C59.1552 100.5 48.2981 89.6429 48.2981 76.25C48.2981 62.8571 59.1552 52 72.5481 52C85.941 52 96.7981 62.8571 96.7981 76.25ZM72.5481 124.75C59.1552 124.75 48.2981 135.607 48.2981 149C48.2981 162.393 59.1552 173.25 72.5481 173.25C85.941 173.25 96.7981 162.393 96.7981 149C96.7981 135.607 85.941 124.75 72.5481 124.75ZM72.5481 197.5C59.1552 197.5 48.2981 208.357 48.2981 221.75C48.2981 235.143 59.1552 246 72.5481 246C85.941 246 96.7981 235.143 96.7981 221.75C96.7981 208.357 85.941 197.5 72.5481 197.5ZM145.298 124.75C131.905 124.75 121.048 135.607 121.048 149C121.048 162.393 131.905 173.25 145.298 173.25C158.691 173.25 169.548 162.393 169.548 149C169.548 135.607 158.691 124.75 145.298 124.75ZM145.298 197.5C131.905 197.5 121.048 208.357 121.048 221.75C121.048 235.143 131.905 246 145.298 246C158.691 246 169.548 235.143 169.548 221.75C169.548 208.357 158.691 197.5 145.298 197.5Z" fill="#3AA9E9"/>
<path d="M319.55 235.05C309.5 235.05 300.65 232.95 293 228.75C285.35 224.4 279.35 218.1 275 209.85C270.65 201.6 268.25 191.625 267.8 179.925H272.525V231H247.775V66.75H279.05V148.875L270.725 161.7C271.325 149.1 273.8 138.6 278.15 130.2C282.65 121.8 288.65 115.5 296.15 111.3C303.65 107.1 312.125 105 321.575 105C329.975 105 337.625 106.575 344.525 109.725C351.425 112.875 357.35 117.3 362.3 123C367.25 128.55 371 135.075 373.55 142.575C376.25 150.075 377.6 158.25 377.6 167.1V171.825C377.6 180.675 376.25 188.925 373.55 196.575C370.85 204.225 366.95 210.975 361.85 216.825C356.75 222.525 350.6 227.025 343.4 230.325C336.35 233.475 328.4 235.05 319.55 235.05ZM312.575 208.725C319.325 208.725 325.175 207.075 330.125 203.775C335.225 200.325 339.2 195.675 342.05 189.825C344.9 183.975 346.325 177.225 346.325 169.575C346.325 161.775 344.9 155.025 342.05 149.325C339.2 143.625 335.225 139.2 330.125 136.05C325.175 132.9 319.325 131.325 312.575 131.325C306.425 131.325 300.725 132.675 295.475 135.375C290.375 138.075 286.175 142.05 282.875 147.3C279.725 152.55 278.15 158.85 278.15 166.2V175.2C278.15 182.25 279.8 188.25 283.1 193.2C286.4 198.15 290.675 201.975 295.925 204.675C301.175 207.375 306.725 208.725 312.575 208.725ZM393.849 231V108.825H418.599V160.575H417.924C417.924 143.025 421.674 129.75 429.174 120.75C436.674 111.75 447.699 107.25 462.249 107.25H466.749V134.475H458.199C447.699 134.475 439.524 137.325 433.674 143.025C427.974 148.575 425.124 156.675 425.124 167.325V231H393.849ZM530.219 235.275C519.719 235.275 510.494 233.475 502.544 229.875C494.744 226.275 488.219 221.475 482.969 215.475C477.869 209.325 473.969 202.5 471.269 195C468.719 187.5 467.444 179.85 467.444 172.05V167.775C467.444 159.675 468.719 151.875 471.269 144.375C473.969 136.725 477.869 129.975 482.969 124.125C488.219 118.125 494.669 113.4 502.319 109.95C509.969 106.35 518.819 104.55 528.869 104.55C542.069 104.55 553.094 107.475 561.944 113.325C570.944 119.025 577.694 126.6 582.194 136.05C586.694 145.35 588.944 155.4 588.944 166.2V177.45H480.719V158.325H569.369L559.694 167.775C559.694 159.975 558.569 153.3 556.319 147.75C554.069 142.2 550.619 137.925 545.969 134.925C541.469 131.925 535.769 130.425 528.869 130.425C521.969 130.425 516.119 132 511.319 135.15C506.519 138.3 502.844 142.875 500.294 148.875C497.894 154.725 496.694 161.775 496.694 170.025C496.694 177.675 497.894 184.5 500.294 190.5C502.694 196.35 506.369 201 511.319 204.45C516.269 207.75 522.569 209.4 530.219 209.4C537.869 209.4 544.094 207.9 548.894 204.9C553.694 201.75 556.769 197.925 558.119 193.425H586.919C585.119 201.825 581.669 209.175 576.569 215.475C571.469 221.775 564.944 226.65 556.994 230.1C549.194 233.55 540.269 235.275 530.219 235.275ZM606.745 231V105.9C606.745 91.95 610.57 81.675 618.22 75.075C626.02 68.325 637.495 64.95 652.645 64.95H667.945V89.025H650.395C645.745 89.025 642.145 90.3 639.595 92.85C637.195 95.25 635.995 98.7 635.995 103.2V231H606.745ZM591.445 133.8V110.85H669.97V133.8H591.445ZM769.798 235.275C759.148 235.275 749.923 233.475 742.123 229.875C734.473 226.275 728.023 221.475 722.773 215.475C717.673 209.475 713.848 202.725 711.298 195.225C708.748 187.725 707.473 180.075 707.473 172.275V168C707.473 159.75 708.748 151.875 711.298 144.375C713.998 136.725 717.973 129.975 723.223 124.125C728.473 118.125 734.923 113.4 742.573 109.95C750.373 106.35 759.373 104.55 769.573 104.55C780.223 104.55 789.748 106.65 798.148 110.85C806.548 114.9 813.223 120.6 818.173 127.95C823.273 135.3 826.123 143.85 826.723 153.6H796.348C795.598 147.3 792.898 142.05 788.248 137.85C783.748 133.65 777.523 131.55 769.573 131.55C762.673 131.55 756.898 133.2 752.248 136.5C747.748 139.8 744.373 144.375 742.123 150.225C739.873 155.925 738.748 162.525 738.748 170.025C738.748 177.225 739.798 183.75 741.898 189.6C744.148 195.45 747.523 200.025 752.023 203.325C756.673 206.625 762.598 208.275 769.798 208.275C775.198 208.275 779.848 207.3 783.748 205.35C787.648 203.4 790.723 200.7 792.973 197.25C795.373 193.8 796.873 189.9 797.473 185.55H827.848C827.248 195.45 824.323 204.15 819.073 211.65C813.973 219 807.148 224.775 798.598 228.975C790.198 233.175 780.598 235.275 769.798 235.275ZM843.227 231V66.75H874.502V231H843.227ZM827.927 90.15V66.75H874.502V90.15H827.927ZM957.682 235.275C946.882 235.275 937.357 233.55 929.107 230.1C920.857 226.65 913.882 222 908.182 216.15C902.482 210.15 898.132 203.4 895.132 195.9C892.282 188.4 890.857 180.6 890.857 172.5V167.775C890.857 159.375 892.357 151.425 895.357 143.925C898.507 136.275 902.932 129.525 908.632 123.675C914.482 117.675 921.532 113.025 929.782 109.725C938.032 106.275 947.332 104.55 957.682 104.55C968.032 104.55 977.332 106.275 985.582 109.725C993.832 113.025 1000.81 117.675 1006.51 123.675C1012.36 129.525 1016.78 136.275 1019.78 143.925C1022.78 151.425 1024.28 159.375 1024.28 167.775V172.5C1024.28 180.6 1022.78 188.4 1019.78 195.9C1016.93 203.4 1012.66 210.15 1006.96 216.15C1001.26 222 994.282 226.65 986.032 230.1C977.782 233.55 968.332 235.275 957.682 235.275ZM957.682 208.5C965.332 208.5 971.782 206.85 977.032 203.55C982.282 200.1 986.257 195.525 988.957 189.825C991.657 183.975 993.007 177.375 993.007 170.025C993.007 162.525 991.582 155.925 988.732 150.225C986.032 144.375 981.982 139.8 976.582 136.5C971.332 133.05 965.032 131.325 957.682 131.325C950.332 131.325 943.957 133.05 938.557 136.5C933.307 139.8 929.257 144.375 926.407 150.225C923.557 155.925 922.132 162.525 922.132 170.025C922.132 177.375 923.482 183.975 926.182 189.825C929.032 195.525 933.082 200.1 938.332 203.55C943.582 206.85 950.032 208.5 957.682 208.5ZM1082.04 234.825C1067.94 234.825 1056.99 230.175 1049.19 220.875C1041.54 211.575 1037.72 197.775 1037.72 179.475V108.6H1068.99V182.175C1068.99 189.675 1071.09 195.675 1075.29 200.175C1079.49 204.525 1085.19 206.7 1092.39 206.7C1099.59 206.7 1105.44 204.375 1109.94 199.725C1114.59 195.075 1116.92 188.775 1116.92 180.825V108.6H1148.19V231H1123.44V179.025H1125.92C1125.92 191.325 1124.34 201.6 1121.19 209.85C1118.04 218.1 1113.32 224.325 1107.02 228.525C1100.72 232.725 1092.84 234.825 1083.39 234.825H1082.04ZM1223.49 235.05C1214.94 235.05 1207.07 233.475 1199.87 230.325C1192.67 227.175 1186.44 222.75 1181.19 217.05C1175.94 211.35 1171.89 204.75 1169.04 197.25C1166.19 189.6 1164.77 181.35 1164.77 172.5V167.775C1164.77 159.075 1166.12 150.9 1168.82 143.25C1171.67 135.6 1175.57 128.925 1180.52 123.225C1185.62 117.525 1191.69 113.1 1198.74 109.95C1205.94 106.65 1213.89 105 1222.59 105C1232.19 105 1240.59 107.1 1247.79 111.3C1255.14 115.35 1260.99 121.5 1265.34 129.75C1269.69 138 1272.09 148.35 1272.54 160.8L1263.32 150V66.75H1294.59V231H1269.84V179.025H1275.24C1274.79 191.475 1272.24 201.9 1267.59 210.3C1262.94 218.55 1256.79 224.775 1249.14 228.975C1241.64 233.025 1233.09 235.05 1223.49 235.05ZM1230.47 208.725C1236.62 208.725 1242.24 207.375 1247.34 204.675C1252.44 201.825 1256.49 197.775 1259.49 192.525C1262.64 187.125 1264.22 180.825 1264.22 173.625V164.625C1264.22 157.425 1262.64 151.425 1259.49 146.625C1256.34 141.675 1252.22 137.925 1247.12 135.375C1242.02 132.675 1236.47 131.325 1230.47 131.325C1223.72 131.325 1217.72 132.975 1212.47 136.275C1207.37 139.425 1203.32 143.925 1200.32 149.775C1197.47 155.625 1196.04 162.45 1196.04 170.25C1196.04 178.05 1197.54 184.875 1200.54 190.725C1203.54 196.425 1207.59 200.85 1212.69 204C1217.94 207.15 1223.87 208.725 1230.47 208.725Z" fill="black"/>
</svg>
