<svg viewBox="0 0 125 30" fill="none" xmlns="http://www.w3.org/2000/svg">
<g clip-path="url(#clip0_363_3664)">
<path d="M20.9713 15.4517C20.2838 19.6888 17.19 23.3791 12.6523 23.3791C10.521 23.3791 9.07724 22.559 8.18347 21.1922L6.80843 29.188H1.51453L5.36464 7.31928H9.21475L10.3835 8.61773C11.4836 7.5243 12.9961 6.90924 14.8524 6.90924C19.1838 6.90924 21.6589 10.9413 20.9713 15.4517ZM13.1336 11.7614C11.2086 11.7614 9.62726 12.9915 9.21475 15.0417L9.146 15.2467C8.87099 17.2969 9.97102 18.527 11.8961 18.527C13.8211 18.527 15.4024 17.2285 15.7462 15.11C16.1587 13.0598 15.0587 11.7614 13.1336 11.7614Z" fill="#190f56"/>
<path d="M30.1154 0.143677L27.8466 13.0599L26.1278 22.7641V22.9008C26.1278 23.0375 26.059 23.1741 26.059 23.2425H20.8339C20.8339 23.1058 20.9026 22.9691 20.9026 22.9008L22.6902 12.9232L24.959 0.143677H30.1154Z" fill="#190f56"/>
<path d="M43.1095 7.31928L41.5969 9.02777C40.7719 7.66098 39.3281 6.90924 37.2655 6.90924C32.5217 6.90924 29.4278 10.8046 28.7403 14.905C28.3965 17.0919 28.7403 19.2787 29.7716 20.8505C29.9091 20.9872 29.9778 21.1922 30.1153 21.3289C30.1841 21.3973 30.2528 21.4656 30.3216 21.5339C30.3903 21.6023 30.4591 21.6706 30.5278 21.7389C31.5591 22.6957 32.9342 23.3108 34.7217 23.3108C34.928 23.3108 35.203 23.3108 35.4092 23.3108C35.6155 23.3108 35.8905 23.2424 36.0968 23.2424C36.2343 23.2424 36.3718 23.1741 36.578 23.1741C36.6468 23.1741 36.7155 23.1741 36.7843 23.1057C36.853 23.1057 36.9218 23.0374 36.9905 23.0374C37.0593 23.0374 37.1968 22.9691 37.2655 22.9691C37.403 22.9007 37.5406 22.8324 37.6781 22.8324C37.8156 22.764 37.9531 22.6957 38.0218 22.6274C38.1593 22.559 38.2281 22.4907 38.3656 22.4907C38.7093 22.2857 38.9843 22.0806 39.3281 21.8073C39.2594 22.2173 39.1906 22.6274 39.1218 23.0374C39.1218 23.1741 39.0531 23.3108 39.0531 23.3791H44.2782C45.2408 18.0486 46.1346 12.7181 47.0971 7.38762L43.1095 7.31928ZM36.6468 18.527C34.653 18.527 33.6217 17.1602 33.9654 15.11C34.3092 13.0598 35.8218 11.693 37.8156 11.693C38.1593 11.693 38.4343 11.693 38.7093 11.8297C38.9843 11.898 39.2594 11.9664 39.4656 12.1714C39.5344 12.2397 39.6031 12.2397 39.6719 12.3081C39.7406 12.3764 39.8094 12.4448 39.8781 12.4448C40.4969 13.0598 40.7031 13.9482 40.5656 15.11V15.1783C40.1531 17.2285 38.5718 18.527 36.6468 18.527Z" fill="#190f56"/>
<path d="M64.7663 7.31934L56.8598 22.4907C54.041 27.8212 50.6034 29.5981 46.1345 29.188L47.0283 24.3359C49.2971 24.3359 50.1909 23.8575 51.1534 22.3541L47.6471 7.38767H53.1472L54.7973 16.4085L58.8536 7.38767C58.7849 7.31933 64.7663 7.31934 64.7663 7.31934Z" fill="#190f56"/>
<path d="M76.9354 7.31928L75.4229 9.02777C74.5979 7.66098 73.1541 6.90924 71.0915 6.90924C66.3476 6.90924 63.2538 10.8046 62.5663 14.905C61.81 19.142 63.8726 23.3791 68.6164 23.3791C68.8227 23.3791 69.0977 23.3791 69.304 23.3791C69.5102 23.3791 69.7852 23.3108 69.9915 23.3108C70.129 23.3108 70.2665 23.2424 70.4727 23.2424C70.6102 23.2424 70.8165 23.1741 70.954 23.1057C71.0228 23.1057 71.1603 23.0374 71.229 23.0374C71.6415 22.9007 71.9853 22.6957 72.329 22.4907C72.6728 22.2857 72.9478 22.0806 73.2916 21.8073C73.2228 22.0806 73.2228 22.2857 73.1541 22.559L73.0853 23.0374C73.0853 23.1741 73.0166 23.3108 73.0166 23.3791H78.2417C79.2042 18.0486 80.1668 12.7181 81.0606 7.38762L76.9354 7.31928ZM70.4727 18.527C68.4789 18.527 67.4477 17.1602 67.7914 15.11C68.1352 13.0598 69.6477 11.693 71.6415 11.693C73.6353 11.693 74.6666 13.0598 74.3229 15.11V15.1783C73.9791 17.2285 72.3978 18.527 70.4727 18.527Z" fill="#190f56"/>
<path d="M92.3358 6.9093C90.5482 6.9093 89.0357 7.52436 87.9357 8.61779L89.2419 1.10043L89.3794 0.143677H84.1543L81.8855 12.9232L80.2354 22.2174C80.3729 21.534 80.5104 20.8506 80.5792 20.0989L80.0979 22.9691L80.2354 22.2857C80.1667 22.6274 80.0979 22.9691 80.0292 23.3108H85.2543C85.2543 23.1741 85.3231 23.0375 85.3231 22.9691C85.3918 22.3541 85.5293 21.8073 85.5981 21.1923C86.4231 22.5591 87.9356 23.3792 90.067 23.3792C94.6046 23.3792 97.6984 19.8255 98.3859 15.4518C99.211 10.9413 96.7359 6.9093 92.3358 6.9093ZM93.2983 15.1784C92.9545 17.2969 91.3732 18.5954 89.4482 18.5954C87.5231 18.5954 86.4231 17.4336 86.6981 15.4518C86.6981 15.3834 86.6981 15.3151 86.7669 15.2467C86.7669 15.1101 86.8356 15.0417 86.8356 14.9734C87.3169 12.9915 88.8982 11.8981 90.6857 11.8981C92.542 11.7614 93.6421 13.0599 93.2983 15.1784Z" fill="#190f56"/>
<path d="M107.668 0.143677L105.399 13.0599L103.611 22.9008C103.611 23.0375 103.542 23.1741 103.542 23.2425H98.3173C98.5235 22.2174 98.661 21.124 98.8673 20.0989L100.105 12.9232L102.374 0.143677H107.668Z" fill="#190f56"/>
<path d="M122.587 15.11C122.518 15.5884 122.312 16.3401 122.037 17.0235H111.243C111.586 18.527 112.893 18.937 114.268 18.937C115.505 18.937 116.537 18.5953 117.362 17.8436L120.662 20.8505C118.874 22.559 116.674 23.3791 113.855 23.3791C108.218 23.3791 105.536 19.4837 106.224 14.8366C106.98 10.3262 110.83 6.90924 115.574 6.90924C120.318 6.90924 123.412 10.5312 122.587 15.11ZM117.843 13.4698C117.705 11.898 116.674 11.3513 115.368 11.3513C113.924 11.3513 112.686 12.0347 111.93 13.4698H117.843Z" fill="#190f56"/>
</g>
<defs>
<clipPath id="clip0_363_3664">
<rect width="124.239" height="29.4" fill="#190f56"/>
</clipPath>
</defs>
</svg>
