<svg width="70" height="42" viewBox="0 0 70 42" fill="none" xmlns="http://www.w3.org/2000/svg">
    <path d="M19.7948 15.2183C19.7948 16.0794 19.8878 16.7775 20.0499 17.2894C20.2558 17.8654 20.5036 18.4254 20.7915 18.9648C20.9074 19.1509 20.9536 19.337 20.9536 19.5001C20.9536 19.7326 20.8147 19.9654 20.5134 20.1981L19.0532 21.1754C18.8446 21.3151 18.636 21.3848 18.4503 21.3848C18.2187 21.3848 17.9868 21.2684 17.7549 21.059C17.4427 20.7221 17.1633 20.3558 16.9207 19.9654C16.6888 19.5701 16.4569 19.1275 16.2021 18.5925C14.3941 20.7332 12.1224 21.8037 9.38748 21.8037C7.44061 21.8037 5.88748 21.2451 4.75162 20.1284C3.61604 19.0112 3.03662 17.5219 3.03662 15.6605C3.03662 13.6826 3.73197 12.077 5.14592 10.867C6.55959 9.65696 8.43729 9.05194 10.8247 9.05194C11.6127 9.05194 12.424 9.12167 13.2815 9.23806C14.1393 9.35445 15.02 9.54057 15.9472 9.75002V8.05135C15.9472 6.28269 15.5762 5.04959 14.8576 4.32818C14.116 3.60677 12.8642 3.25759 11.0795 3.25759C10.2682 3.25759 9.43397 3.35092 8.57619 3.56037C7.71869 3.76955 6.88416 4.02567 6.07287 4.35151C5.70209 4.5143 5.424 4.60735 5.26158 4.65402C5.09943 4.70069 4.9835 4.72375 4.8908 4.72375C4.56623 4.72375 4.40408 4.49096 4.40408 4.00233V2.86202C4.40408 2.48979 4.45057 2.21061 4.56623 2.04782C4.68217 1.88477 4.8908 1.72198 5.21537 1.5592C6.02666 1.1403 7.0001 0.791119 8.13568 0.511943C9.27182 0.209433 10.4771 0.0699821 11.7519 0.0699821C14.5103 0.0699821 16.5269 0.69806 17.8249 1.95477C19.0997 3.2112 19.7488 5.11932 19.7488 7.67912V15.2183H19.7953H19.7948ZM10.3842 18.7553C11.1492 18.7553 11.9373 18.6159 12.7715 18.3364C13.6061 18.0572 14.3479 17.5453 14.9735 16.8472C15.3446 16.4052 15.6227 15.9166 15.7616 15.358C15.9008 14.7996 15.9935 14.1246 15.9935 13.3335V12.3562C15.2905 12.1845 14.5786 12.0524 13.8609 11.9606C13.1383 11.8685 12.4106 11.8218 11.6822 11.8209C10.129 11.8209 8.99346 12.1234 8.22865 12.7518C7.46357 13.3801 7.09279 14.2643 7.09279 15.4277C7.09279 16.5214 7.37088 17.3358 7.95029 17.8944C8.50674 18.4761 9.31803 18.7553 10.3842 18.7553ZM28.9968 21.2684C28.5795 21.2684 28.3014 21.1987 28.116 21.0357C27.9306 20.8962 27.7682 20.5704 27.6293 20.1284L22.1824 2.14088C22.043 1.67532 21.9735 1.37281 21.9735 1.21002C21.9735 0.837786 22.1589 0.62806 22.53 0.62806H24.8014C25.2417 0.62806 25.5433 0.69806 25.7054 0.860845C25.8908 1.00057 26.03 1.32641 26.1689 1.76837L30.0629 17.173L33.6788 1.76837C33.7948 1.30308 33.934 1.00057 34.1191 0.860845C34.3047 0.721394 34.6293 0.628335 35.0466 0.628335H36.9008C37.341 0.628335 37.6426 0.69806 37.8277 0.860845C38.0134 1.00057 38.1755 1.32641 38.2682 1.76837L41.9306 17.3592L45.9403 1.76837C46.0792 1.30308 46.2417 1.00057 46.4038 0.860845C46.5892 0.721394 46.8905 0.628335 47.3078 0.628335H49.4633C49.8344 0.628335 50.043 0.814453 50.043 1.21002C50.043 1.32641 50.0197 1.44281 49.9965 1.58226C49.9733 1.72198 49.9271 1.9081 49.8344 2.16422L44.248 20.1515C44.1091 20.617 43.947 20.9195 43.7613 21.059C43.5759 21.1987 43.2746 21.2918 42.8808 21.2918H40.8875C40.447 21.2918 40.1456 21.2221 39.96 21.059C39.7746 20.8962 39.6124 20.5937 39.5197 20.1284L35.9268 5.11931L32.3573 20.1048C32.2417 20.5704 32.1025 20.8729 31.9171 21.0357C31.7317 21.1987 31.4071 21.2684 30.9901 21.2684H28.9965H28.9968ZM58.7815 21.8968C57.5762 21.8968 56.3709 21.7571 55.2121 21.4779C54.053 21.1987 53.1492 20.8959 52.5466 20.5473C52.1755 20.3376 51.9204 20.1051 51.828 19.8956C51.7377 19.6902 51.6904 19.4684 51.6888 19.2439V18.0572C51.6888 17.5686 51.8742 17.3358 52.222 17.3358C52.364 17.3364 52.5049 17.36 52.6393 17.4058C52.7782 17.4525 52.9868 17.5453 53.2187 17.6383C54.0374 17.9998 54.892 18.2729 55.7682 18.4528C56.6762 18.6378 57.6002 18.7313 58.5267 18.732C59.9868 18.732 61.1227 18.4761 61.9107 17.9642C62.6988 17.4522 63.116 16.7077 63.116 15.7535C63.116 15.1021 62.9074 14.5668 62.4901 14.1246C62.0729 13.6826 61.2848 13.2871 60.1492 12.9146L56.7881 11.8676C55.0961 11.3323 53.8446 10.5412 53.0795 9.4939C52.3147 8.46998 51.9207 7.32994 51.9207 6.1199C51.9207 5.14265 52.1293 4.28151 52.5466 3.53677C52.9636 2.7923 53.52 2.14088 54.2154 1.62892C54.9107 1.09363 55.6988 0.69806 56.626 0.418884C57.553 0.139708 58.5264 0.0233154 59.5463 0.0233154C60.0563 0.0233154 60.5895 0.0466488 61.0994 0.116374C61.6326 0.1861 62.1194 0.279159 62.6061 0.372217C63.0696 0.488609 63.5101 0.605002 63.9273 0.744727C64.3446 0.884178 64.6689 1.0239 64.9008 1.16335C65.2253 1.34975 65.4569 1.53586 65.5961 1.74532C65.7353 1.93143 65.8047 2.18728 65.8047 2.51312V3.60677C65.8047 4.09539 65.6194 4.35151 65.2715 4.35151C65.0862 4.35151 64.7848 4.25818 64.3911 4.07206C63.0696 3.46704 61.5862 3.16453 59.9406 3.16453C58.6194 3.16453 57.5762 3.37398 56.8576 3.81622C56.1393 4.25818 55.7682 4.9332 55.7682 5.88712C55.7682 6.5388 56.0001 7.09716 56.4636 7.53939C56.9273 7.98135 57.7848 8.42359 59.0134 8.81916L62.3047 9.86641C63.9735 10.4017 65.1788 11.1462 65.8974 12.1001C66.616 13.0543 66.9638 14.1479 66.9638 15.358C66.9638 16.3586 66.7549 17.2661 66.3609 18.0572C65.9439 18.8484 65.3875 19.5464 64.6689 20.1051C63.9503 20.6868 63.0928 21.1057 62.0961 21.4082C61.0529 21.734 59.9636 21.8968 58.7815 21.8968V21.8968Z" fill="#252F3E"/>
    <path d="M63.1622 33.2058C55.5366 38.8605 44.4569 41.8622 34.9306 41.8622C21.5795 41.8622 9.5499 36.9057 0.463842 28.6682C-0.254752 28.0168 0.394115 27.1326 1.25162 27.6443C11.0795 33.3689 23.2021 36.8359 35.7419 36.8359C44.2021 36.8359 53.4968 35.0676 62.0499 31.4374C63.3247 30.8555 64.414 32.2752 63.1622 33.2058V33.2058ZM66.3379 29.5757C65.3645 28.3193 59.8941 28.9707 57.414 29.2732C56.6722 29.3665 56.5563 28.7148 57.2286 28.2262C61.5861 25.1545 68.7486 26.0389 69.5828 27.0626C70.4173 28.1098 69.3509 35.3001 65.2715 38.7441C64.6459 39.2794 64.0432 39.0002 64.3213 38.3021C65.2483 35.9981 67.3114 30.8091 66.3379 29.5757V29.5757Z" fill="#FF9900"/>
</svg>
