<?xml version="1.0" encoding="UTF-8"?>
<svg xmlns="http://www.w3.org/2000/svg" width="538.432" height="156.785" viewBox="0 0 538.432 156.785">
  <title>Logo SecuMailer</title>
  <g>
    <path d="M123.609,70.07l.021-54.824-1.467-.793A139.348,139.348,0,0,0,61.586,0C28.158,0,2.529,13.873,1.455,14.463l-1.45.8V56.248L102.756,91.893a68.739,68.739,0,0,1-8.946,20.216C86.027,124.04,74.74,133.182,61.818,137.4c-24.813-8.093-42.885-33.886-43.1-61.684L18.7,71.195,0,64.706s.015,10.87.016,11.04C.26,113.4,26.544,148.171,61.155,156.622l.663.163.663-.163c19.483-4.757,36.5-17.737,47.617-35.345a88.3,88.3,0,0,0,11.115-26.221,84.7,84.7,0,0,0,2.174-13.7l.16-2.145L18.712,42.84V28.907a62.349,62.349,0,0,1,10.121-4.45,101.1,101.1,0,0,1,32.985-5.188,103.15,103.15,0,0,1,33,5.08,63.227,63.227,0,0,1,10.1,4.345L104.9,63.581Z" fill="#3b1b6d"/>
    <path d="M170.758,60.3q-8.844,0-8.843,5.841a4.423,4.423,0,0,0,2.191,3.976q2.19,1.38,10.263,3.975t11.317,5.881q3.244,3.287,3.245,10.1,0,8.684-5.273,13.143t-13.793,4.462a76.674,76.674,0,0,1-15.5-1.947l-2.921-.567,1.136-8.681a135.143,135.143,0,0,0,16.632,1.46q8.6,0,8.6-7.139a4.755,4.755,0,0,0-1.988-4.057q-1.989-1.459-7.911-3.164-9.411-2.676-13.264-6.369T150.8,66.949q0-8.274,5.03-12.331t13.792-4.057a91.734,91.734,0,0,1,15.253,1.623l2.92.568L186.9,61.6Q175.464,60.3,170.758,60.3Z" fill="#ef9d25"/>
    <path d="M207.875,96.44a8.078,8.078,0,0,0,5.476,1.663q7.545,0,13.467-.486l2.272-.244.162,8.032a72.019,72.019,0,0,1-16.875,2.271q-9.169,0-13.305-4.867t-4.138-15.821q0-21.822,17.93-21.823,17.685,0,17.686,18.335l-.811,7.545H205.886Q205.967,94.777,207.875,96.44Zm11.966-13.67q0-4.867-1.542-6.775t-5.394-1.906q-3.855,0-5.436,1.987t-1.663,6.694Z" fill="#ef9d25"/>
    <path d="M253.509,65.165a58.072,58.072,0,0,1,10.79,1.3l2.191.486-.324,8.6q-6.41-.649-9.492-.65-5.6,0-7.424,2.394t-1.825,9.045q0,6.654,1.825,9.127t7.5,2.475l9.411-.649.324,8.681a74.685,74.685,0,0,1-13.224,1.7q-9.006,0-12.94-5.07t-3.935-16.267q0-11.2,4.057-16.185T253.509,65.165Z" fill="#ef9d25"/>
    <path d="M298.454,66.138h10.872V106.7h-10.79v-2.272q-5.842,3.246-10.142,3.245-8.437,0-11.357-4.664t-2.921-15.618V66.138h10.872V87.557q0,6,.973,8.194t4.7,2.19a19.76,19.76,0,0,0,6.734-1.136l1.054-.324Z" fill="#ef9d25"/>
    <path d="M320.359,106.7V51.535h19.065l9.736,40.24,9.735-40.24h19.066V106.7h-11.2V64.029h-1.217l-10.79,40.24h-11.2l-10.79-40.24h-1.217V106.7Z" fill="#3b1b6d"/>
    <path d="M420.065,78.8V95.669a6.447,6.447,0,0,0,.65,2.718,3,3,0,0,0,2.028,1.095l-.325,8.194a30.831,30.831,0,0,1-6.611-.567,14.863,14.863,0,0,1-4.99-2.272,27.008,27.008,0,0,1-11.926,2.839q-12.578,0-12.575-13.305,0-6.489,3.488-9.208t10.71-3.2l8.68-.649V78.8q0-2.516-1.136-3.448a5.747,5.747,0,0,0-3.65-.933l-15.253.648-.324-7.544a63.117,63.117,0,0,1,16.51-2.353q7.828,0,11.277,3.245T420.065,78.8ZM401.811,89.5q-4.543.407-4.543,4.867t3.976,4.463a26.27,26.27,0,0,0,6.733-.974l1.217-.325v-8.68Z" fill="#3b1b6d"/>
    <path d="M430.449,60.946V49.912H441.32V60.946Zm0,45.757V66.138H441.32V106.7Z" fill="#3b1b6d"/>
    <path d="M451.867,106.7V49.912h10.871V106.7Z" fill="#3b1b6d"/>
    <path d="M484.2,96.44a8.083,8.083,0,0,0,5.477,1.663q7.545,0,13.468-.486l2.27-.244.163,8.032a72.019,72.019,0,0,1-16.875,2.271q-9.168,0-13.305-4.867t-4.138-15.821q0-21.822,17.93-21.823,17.686,0,17.686,18.335l-.811,7.545H482.209Q482.289,94.777,484.2,96.44Zm11.967-13.67q0-4.867-1.541-6.775t-5.4-1.906q-3.854,0-5.435,1.987t-1.664,6.694Z" fill="#3b1b6d"/>
    <path d="M514.66,106.7V66.138h10.79v4.3a41.316,41.316,0,0,1,12.982-5.273V76.117q-6.573,1.38-11.277,2.839l-1.624.569V106.7Z" fill="#3b1b6d"/>
  </g>
</svg>