<svg width="207" height="60" viewBox="0 0 207 60" fill="none" xmlns="http://www.w3.org/2000/svg">
<g clip-path="url(#clip0)">
<path d="M12.4333 37.1779C10.2398 37.1935 8.06118 36.8172 5.99999 36.0668C3.89346 35.2706 1.95868 34.0789 0.299988 32.5557L3.33332 28.889C4.62138 30.0177 6.06132 30.9602 7.6111 31.689C9.15881 32.3642 10.8339 32.6977 12.5222 32.6668C13.8482 32.7376 15.1626 32.3876 16.2778 31.6668C16.7149 31.3776 17.0715 30.9824 17.3144 30.518C17.5573 30.0536 17.6785 29.5352 17.6667 29.0112V28.889C17.6761 28.4125 17.5852 27.9393 17.4 27.5001C17.1646 27.0521 16.8208 26.6702 16.4 26.389C15.7812 25.9675 15.1085 25.6311 14.4 25.389C13.3218 25.0141 12.2239 24.6988 11.1111 24.4446C9.70376 24.1306 8.31915 23.7223 6.96665 23.2223C5.8708 22.8297 4.84345 22.2673 3.92221 21.5557C3.11234 20.9229 2.468 20.1032 2.04443 19.1668C1.5928 18.0914 1.37319 16.9328 1.39999 15.7668V15.6779C1.38819 14.5203 1.63203 13.3744 2.11411 12.3218C2.59619 11.2693 3.30463 10.3362 4.18888 9.58901C5.11036 8.82122 6.17012 8.23666 7.3111 7.86679C8.59399 7.4429 9.93782 7.23269 11.2889 7.24457C13.2473 7.21506 15.1957 7.53101 17.0444 8.1779C18.7823 8.81711 20.4038 9.7367 21.8444 10.9001L19.1333 14.7779C17.9135 13.8738 16.5845 13.1272 15.1778 12.5557C13.9232 12.0531 12.5848 11.7929 11.2333 11.789C10.0026 11.7171 8.78408 12.0658 7.77777 12.7779C7.39138 13.0601 7.07722 13.4296 6.86094 13.8564C6.64466 14.2831 6.5324 14.755 6.53332 15.2335V15.3112C6.51945 15.8191 6.6181 16.3238 6.82221 16.789C7.07943 17.2575 7.46486 17.6429 7.93332 17.9001C8.57963 18.3122 9.2736 18.6443 9.99999 18.889C10.9 19.189 12.0444 19.5112 13.4333 19.8446C14.8155 20.1851 16.174 20.6157 17.5 21.1335C18.5683 21.5372 19.5602 22.1195 20.4333 22.8557C21.2029 23.515 21.8143 24.3391 22.2222 25.2668C22.6438 26.2567 22.8521 27.3243 22.8333 28.4001V28.489C22.8538 29.7495 22.5919 30.9986 22.0667 32.1446C21.571 33.2051 20.8462 34.1425 19.9444 34.889C18.9734 35.6644 17.8598 36.2419 16.6667 36.589C15.293 36.9961 13.866 37.1946 12.4333 37.1779Z" fill="#101820"/>
<path d="M26.9778 14.8223H32.0556V18.4778C32.8497 17.3202 33.861 16.3278 35.0333 15.5556C36.3627 14.724 37.9108 14.3099 39.4778 14.3667C40.7876 14.3679 42.0841 14.6298 43.2917 15.1372C44.4992 15.6447 45.5936 16.3874 46.5111 17.3223C47.5052 18.3481 48.2868 19.5602 48.8111 20.8889C49.4124 22.4398 49.7067 24.0926 49.6778 25.7556V25.8445C49.7093 27.5021 49.4226 29.1504 48.8333 30.7001C48.3307 32.025 47.5761 33.24 46.6111 34.2778C45.6651 35.2404 44.5302 35.997 43.2778 36.5001C42.0717 36.9934 40.7809 37.2463 39.4778 37.2445C37.9204 37.3083 36.3775 36.9225 35.0333 36.1334C33.8812 35.3857 32.8726 34.4374 32.0556 33.3334V43.3334H26.9778V14.8223ZM38.3222 32.8556C39.1593 32.8605 39.9882 32.6902 40.7556 32.3556C41.5092 32.0274 42.1893 31.5514 42.7556 30.9556C43.3511 30.3147 43.8087 29.5584 44.1 28.7334C44.445 27.7984 44.6145 26.8077 44.6 25.8112V25.7223C44.6117 24.7368 44.4422 23.7576 44.1 22.8334C43.7981 22.0135 43.3417 21.2591 42.7556 20.6112C42.1867 20.0032 41.4982 19.5195 40.7333 19.1906C39.9684 18.8617 39.1437 18.6947 38.3111 18.7001C37.4778 18.7035 36.654 18.8767 35.8898 19.2091C35.1257 19.5415 34.4373 20.0261 33.8667 20.6334C33.2713 21.2826 32.8005 22.0359 32.4778 22.8556C32.1207 23.7686 31.9434 24.742 31.9556 25.7223V25.8112C31.9461 26.7948 32.1233 27.7713 32.4778 28.6889C32.7936 29.5121 33.2651 30.2666 33.8667 30.9112C34.4487 31.5114 35.1435 31.991 35.9111 32.3223C36.67 32.6629 37.4905 32.8444 38.3222 32.8556Z" fill="#101820"/>
<path d="M53.5778 14.8222H58.6444V19.7666C59.26 18.1993 60.2798 16.823 61.6 15.7778C62.9876 14.7618 64.6985 14.2877 66.4111 14.4444V19.7666H66.1222C65.0866 19.7531 64.0577 19.934 63.0889 20.3C62.1881 20.656 61.3792 21.2105 60.7222 21.9222C60.0203 22.7081 59.4972 23.6369 59.1889 24.6444C58.8048 25.8737 58.621 27.1568 58.6444 28.4444V36.8H53.5778V14.8222Z" fill="#101820"/>
<path d="M79.5444 37.2556C78.0227 37.2709 76.5128 36.9878 75.1 36.4223C73.7636 35.8962 72.5469 35.1064 71.5222 34.1001C70.4951 33.0704 69.683 31.8466 69.1333 30.5001C68.5418 29.0279 68.2473 27.4532 68.2666 25.8667V25.789C68.2514 24.2713 68.5189 22.7642 69.0555 21.3445C69.5538 19.9975 70.3084 18.7598 71.2778 17.7001C72.2131 16.6693 73.3468 15.8379 74.6111 15.2556C75.9685 14.6426 77.444 14.3354 78.9333 14.3556C80.5154 14.3239 82.0842 14.6506 83.5222 15.3112C84.8117 15.911 85.9506 16.7918 86.8555 17.889C87.771 19.0009 88.4616 20.2802 88.8889 21.6556C89.3386 23.113 89.5634 24.6305 89.5555 26.1556C89.5555 26.3778 89.5555 26.6112 89.5555 26.8445C89.5555 27.0779 89.5555 27.3223 89.4889 27.5778H73.3333C73.5027 29.1763 74.2684 30.6522 75.4778 31.7112C76.6517 32.6775 78.1356 33.1865 79.6555 33.1445C80.7701 33.1721 81.8761 32.9441 82.8889 32.4779C83.8767 31.9729 84.777 31.3126 85.5555 30.5223L88.5111 33.1445C87.4691 34.3792 86.1926 35.3951 84.7555 36.1334C83.1321 36.9157 81.3459 37.3003 79.5444 37.2556ZM84.5333 24.2445C84.4504 23.483 84.2674 22.7358 83.9889 22.0223C83.739 21.3458 83.3618 20.7235 82.8777 20.189C82.4051 19.6743 81.8348 19.2588 81.2 18.9667C80.1938 18.5229 79.0775 18.3915 77.9958 18.5896C76.9141 18.7878 75.9169 19.3062 75.1333 20.0778C74.0809 21.2298 73.4299 22.6917 73.2777 24.2445H84.5333Z" fill="#101820"/>
<path d="M106.767 36.7556V34.0556C105.961 34.9721 104.988 35.7264 103.9 36.2778C102.58 36.9216 101.123 37.2343 99.6556 37.1889C98.6443 37.2019 97.6368 37.0634 96.6667 36.7778C95.7665 36.5091 94.9257 36.0717 94.1889 35.4889C93.4757 34.8991 92.8962 34.1643 92.4889 33.3333C92.0433 32.4249 91.8223 31.4227 91.8444 30.4111V30.3222C91.819 29.2258 92.0472 28.1383 92.5111 27.1445C92.9438 26.2698 93.5755 25.5087 94.3555 24.9222C95.2075 24.3032 96.1689 23.8508 97.1889 23.5889C98.3467 23.2919 99.5381 23.1463 100.733 23.1556C101.868 23.1416 103.002 23.2271 104.122 23.4111C105.028 23.5732 105.922 23.7922 106.8 24.0667V23.6667C106.844 23.0183 106.742 22.3682 106.502 21.7644C106.262 21.1606 105.889 20.6184 105.411 20.1778C104.264 19.3025 102.839 18.8722 101.4 18.9667C100.278 18.9546 99.1579 19.0815 98.0667 19.3445C97.0638 19.611 96.08 19.9451 95.1222 20.3445L93.7444 16.3111C94.952 15.7601 96.2048 15.314 97.4889 14.9778C99.0019 14.6111 100.554 14.432 102.111 14.4445C105.378 14.4445 107.8 15.2519 109.378 16.8667C110.205 17.7944 110.84 18.877 111.247 20.0518C111.653 21.2267 111.822 22.4704 111.744 23.7111V36.7111L106.767 36.7556ZM106.889 27.5778C106.171 27.2972 105.426 27.0887 104.667 26.9556C103.755 26.7828 102.828 26.6973 101.9 26.7C100.607 26.6288 99.3223 26.9461 98.2111 27.6111C97.7921 27.8774 97.4491 28.2476 97.2155 28.6857C96.9818 29.1237 96.8655 29.6148 96.8778 30.1111V30.1889C96.8561 30.6621 96.9573 31.1329 97.1714 31.5554C97.3856 31.9779 97.7055 32.3378 98.1 32.6C98.9957 33.1772 100.046 33.4679 101.111 33.4333C101.894 33.4405 102.673 33.3281 103.422 33.1C104.067 32.9103 104.676 32.6136 105.222 32.2222C105.737 31.8355 106.159 31.3381 106.456 30.7667C106.748 30.1806 106.897 29.533 106.889 28.8778V27.5778Z" fill="#101820"/>
<path d="M116.489 6.42212H121.556V24.5443L130.656 14.8221H136.767L128.033 23.711L137.056 36.711H131.233L124.633 27.2332L121.556 30.4332V36.711H116.489V6.42212Z" fill="#101820"/>
<path d="M149.478 37.2555C147.956 37.2709 146.446 36.9877 145.033 36.4222C143.686 35.8959 142.462 35.0987 141.436 34.08C140.409 33.0614 139.603 31.8429 139.067 30.5C138.475 29.0278 138.181 27.4531 138.2 25.8667V25.7889C138.185 24.2713 138.452 22.7641 138.989 21.3444C139.487 19.9974 140.242 18.7598 141.211 17.7C142.146 16.6692 143.28 15.8378 144.544 15.2555C145.898 14.6438 147.37 14.3366 148.856 14.3555C150.441 14.3225 152.014 14.6492 153.456 15.3111C154.725 15.918 155.844 16.7983 156.733 17.8889C157.629 19.0053 158.301 20.2843 158.711 21.6556C159.161 23.1129 159.386 24.6304 159.378 26.1556C159.378 26.3778 159.378 26.6111 159.378 26.8444C159.378 27.0778 159.378 27.3222 159.311 27.5778H143.244C143.414 29.1763 144.18 30.6522 145.389 31.7111C146.563 32.6774 148.047 33.1865 149.567 33.1444C150.681 33.172 151.787 32.944 152.8 32.4778C153.819 31.981 154.75 31.3204 155.556 30.5222L158.511 33.1444C157.467 34.3816 156.187 35.3978 154.744 36.1333C153.105 36.9272 151.298 37.3122 149.478 37.2555V37.2555ZM154.444 24.2444C154.362 23.483 154.179 22.7358 153.9 22.0222C153.65 21.3457 153.273 20.7234 152.789 20.1889C152.324 19.6462 151.753 19.2039 151.111 18.8889C150.414 18.5732 149.654 18.4176 148.889 18.4333C148.171 18.4124 147.457 18.5443 146.795 18.8201C146.132 19.096 145.535 19.5095 145.044 20.0333C143.992 21.1853 143.341 22.6471 143.189 24.2L154.444 24.2444Z" fill="#101820"/>
<path d="M163.333 14.8223H168.4V19.7668C169.015 18.2023 170.031 16.8268 171.344 15.7779C172.722 14.7761 174.414 14.3028 176.111 14.4445V19.7668H175.822C174.787 19.7532 173.758 19.9341 172.789 20.3001C171.888 20.6561 171.079 21.2106 170.422 21.9223C169.726 22.6953 169.203 23.6083 168.889 24.6001C168.505 25.8294 168.321 27.1124 168.344 28.4001V36.7557H163.333V14.8223Z" fill="#101820"/>
<path d="M186.3 16.3778L175.644 27.0334L186.3 23.7889L194.611 33.1334L195.133 20.9001L206.189 16.3778L195.356 11.8445L194 0.300049L186.978 9.12227L175.644 7.07783L186.3 16.3778Z" fill="#FFC00E"/>
<path d="M140.778 43.4443C139.809 43.4534 138.857 43.6991 138.005 44.16C137.153 44.6209 136.427 45.283 135.889 46.0888C135.354 45.2825 134.63 44.6198 133.78 44.1587C132.929 43.6976 131.979 43.4523 131.011 43.4443C129.461 43.4443 127.975 44.0601 126.878 45.1561C125.782 46.2522 125.167 47.7387 125.167 49.2888C125.167 51.3443 126.456 52.8221 127.811 54.1888L133.111 59.1999C133.173 59.2593 133.251 59.299 133.336 59.314C133.42 59.329 133.507 59.3185 133.586 59.284C133.664 59.2495 133.731 59.1925 133.777 59.1202C133.823 59.0478 133.846 58.9634 133.844 58.8777V54.9777C133.844 54.4355 134.06 53.9154 134.443 53.532C134.827 53.1486 135.347 52.9332 135.889 52.9332C136.431 52.9332 136.951 53.1486 137.335 53.532C137.718 53.9154 137.933 54.4355 137.933 54.9777V58.8888C137.931 58.9745 137.955 59.0589 138.001 59.1313C138.047 59.2036 138.114 59.2606 138.192 59.2951C138.271 59.3296 138.358 59.3401 138.442 59.3251C138.527 59.3101 138.605 59.2704 138.667 59.211L143.967 54.1999C145.322 52.8332 146.622 51.3555 146.622 49.2999C146.624 48.5315 146.474 47.7703 146.181 47.0599C145.888 46.3495 145.457 45.7039 144.914 45.1601C144.372 44.6162 143.727 44.1847 143.017 43.8903C142.307 43.5959 141.546 43.4443 140.778 43.4443V43.4443ZM130.589 53.7999C130.551 53.8421 130.505 53.8758 130.453 53.8988C130.402 53.9217 130.346 53.9335 130.289 53.9332C130.187 53.9344 130.089 53.8989 130.011 53.8332C129.254 53.2691 128.628 52.5482 128.176 51.7198C127.723 50.8913 127.455 49.9749 127.389 49.0332V49.0332C127.408 48.3009 127.598 47.5831 127.943 46.937C128.289 46.2908 128.78 45.7341 129.378 45.311C129.422 45.2826 129.472 45.2631 129.524 45.2539C129.576 45.2446 129.629 45.2457 129.681 45.2571C129.732 45.2684 129.781 45.2898 129.825 45.32C129.868 45.3503 129.905 45.3887 129.933 45.4332C129.962 45.4777 129.981 45.5274 129.99 45.5794C130 45.6314 129.999 45.6847 129.987 45.7363C129.976 45.7879 129.955 45.8368 129.924 45.8801C129.894 45.9234 129.856 45.9603 129.811 45.9888C129.327 46.339 128.929 46.7954 128.647 47.3231C128.366 47.8507 128.209 48.4357 128.189 49.0332V49.0332C128.261 49.8615 128.51 50.6648 128.918 51.3892C129.326 52.1135 129.885 52.7423 130.556 53.2332C130.595 53.2681 130.627 53.3105 130.65 53.358C130.674 53.4054 130.687 53.457 130.69 53.5096C130.693 53.5623 130.686 53.6151 130.669 53.6649C130.651 53.7147 130.624 53.7606 130.589 53.7999ZM133.189 52.2999C133.154 52.3629 133.102 52.4149 133.039 52.4503C132.977 52.4856 132.905 52.5028 132.833 52.4999C132.771 52.5164 132.706 52.5164 132.644 52.4999C132.061 52.1765 131.572 51.7078 131.223 51.1393C130.875 50.5708 130.679 49.9218 130.656 49.2555V49.2555C130.657 48.6596 130.821 48.0755 131.131 47.5663C131.44 47.0571 131.883 46.6422 132.411 46.3666C132.507 46.3196 132.618 46.3119 132.719 46.345C132.821 46.3782 132.906 46.4497 132.956 46.5443C133.001 46.6395 133.009 46.7481 132.978 46.8489C132.947 46.9496 132.88 47.0352 132.789 47.0888C132.383 47.2985 132.044 47.6179 131.81 48.0107C131.576 48.4035 131.457 48.854 131.467 49.311C131.489 49.8321 131.645 50.3388 131.919 50.7824C132.193 51.226 132.577 51.5916 133.033 51.8443C133.105 51.8931 133.159 51.9639 133.187 52.0461C133.215 52.1283 133.216 52.2174 133.189 52.2999V52.2999ZM135.889 51.2666C135.539 51.2688 135.195 51.1667 134.903 50.9735C134.611 50.7802 134.383 50.5044 134.248 50.1811C134.113 49.8579 134.077 49.5017 134.145 49.158C134.212 48.8143 134.381 48.4984 134.629 48.2507C134.876 48.003 135.192 47.8345 135.536 47.7667C135.88 47.6989 136.236 47.7348 136.559 47.8699C136.882 48.005 137.158 48.2331 137.351 48.5253C137.545 48.8176 137.647 49.1607 137.644 49.511C137.644 49.7415 137.599 49.9698 137.511 50.1828C137.423 50.3958 137.293 50.5894 137.13 50.7524C136.967 50.9154 136.774 51.0447 136.561 51.1329C136.348 51.2212 136.119 51.2666 135.889 51.2666ZM139.144 52.4555C139.079 52.471 139.01 52.471 138.944 52.4555C138.873 52.4571 138.802 52.4394 138.739 52.4042C138.677 52.369 138.625 52.3176 138.589 52.2554C138.54 52.1604 138.528 52.0501 138.557 51.947C138.586 51.8438 138.653 51.7555 138.744 51.6999C139.204 51.4503 139.591 51.0856 139.868 50.6416C140.144 50.1975 140.301 49.6893 140.322 49.1666C140.332 48.7096 140.213 48.2591 139.979 47.8663C139.745 47.4735 139.406 47.1541 139 46.9443C138.953 46.9198 138.911 46.8862 138.878 46.8454C138.844 46.8047 138.818 46.7576 138.803 46.707C138.787 46.6563 138.782 46.6031 138.787 46.5504C138.793 46.4977 138.808 46.4465 138.833 46.3999C138.857 46.352 138.89 46.3093 138.93 46.2743C138.97 46.2394 139.017 46.2128 139.068 46.1962C139.119 46.1797 139.172 46.1734 139.226 46.1779C139.279 46.1823 139.331 46.1974 139.378 46.2221C139.901 46.5034 140.34 46.9196 140.649 47.4275C140.958 47.9355 141.125 48.5167 141.133 49.111C141.121 49.7933 140.932 50.4607 140.583 51.0473C140.234 51.6338 139.738 52.1192 139.144 52.4555ZM144.444 49.0332C144.377 49.9757 144.106 50.8924 143.652 51.7208C143.197 52.5491 142.57 53.2697 141.811 53.8332C141.774 53.8705 141.73 53.9001 141.681 53.9203C141.633 53.9405 141.58 53.9509 141.528 53.9509C141.475 53.9509 141.423 53.9405 141.374 53.9203C141.326 53.9001 141.282 53.8705 141.244 53.8332C141.207 53.7961 141.178 53.7519 141.157 53.7033C141.137 53.6547 141.127 53.6025 141.127 53.5499C141.127 53.4972 141.137 53.4451 141.157 53.3965C141.178 53.3479 141.207 53.3037 141.244 53.2666C141.914 52.775 142.471 52.1459 142.877 51.4215C143.283 50.6971 143.53 49.8941 143.6 49.0666V49.0666C143.579 48.4703 143.423 47.8865 143.144 47.3592C142.865 46.8318 142.47 46.3747 141.989 46.0221C141.942 45.9959 141.901 45.9603 141.869 45.9175C141.836 45.8747 141.813 45.8257 141.801 45.7735C141.788 45.7213 141.787 45.6671 141.796 45.6143C141.805 45.5615 141.826 45.5112 141.856 45.4666C141.884 45.4218 141.921 45.3831 141.964 45.3527C142.007 45.3223 142.056 45.3008 142.108 45.2895C142.16 45.2781 142.213 45.2771 142.265 45.2865C142.317 45.2959 142.367 45.3156 142.411 45.3443C143.013 45.765 143.507 46.3209 143.854 46.9674C144.202 47.6139 144.392 48.3329 144.411 49.0666L144.444 49.0332Z" fill="#C5202D"/>
<path d="M153.789 47.1111H156.767V51.1111H160.578V47.1111H163.556V57.8444H160.578V53.7666H156.767V57.8444H153.789V47.1111Z" fill="#081019"/>
<path d="M164.444 53.7334C164.42 53.1696 164.511 52.6068 164.711 52.0791C164.911 51.5513 165.216 51.0698 165.608 50.6635C166 50.2572 166.47 49.9348 166.99 49.7157C167.51 49.4966 168.069 49.3855 168.633 49.389C171.489 49.389 172.811 51.489 172.811 53.9334C172.811 54.1112 172.811 54.3223 172.811 54.5223H167.256C167.338 54.93 167.567 55.2936 167.898 55.5451C168.229 55.7967 168.641 55.9189 169.056 55.889C169.403 55.8848 169.746 55.8074 170.062 55.6619C170.378 55.5164 170.66 55.3061 170.889 55.0446L172.5 56.3779C172.074 56.9231 171.525 57.3588 170.896 57.6487C170.268 57.9386 169.58 58.0743 168.889 58.0446C168.307 58.0821 167.723 57.9974 167.176 57.7958C166.629 57.5943 166.13 57.2803 165.711 56.8742C165.292 56.4681 164.963 55.9789 164.745 55.4379C164.527 54.897 164.425 54.3164 164.444 53.7334V53.7334ZM170.078 52.9779C170.087 52.7857 170.057 52.5936 169.988 52.4137C169.92 52.2338 169.815 52.0699 169.681 51.9323C169.546 51.7946 169.385 51.6862 169.206 51.6138C169.028 51.5413 168.837 51.5064 168.644 51.5112C168.26 51.5199 167.895 51.6779 167.625 51.9517C167.355 52.2255 167.203 52.5936 167.2 52.9779H170.078Z" fill="#081019"/>
<path d="M182.567 49.5555H185.478V51.2222C185.645 50.6679 185.996 50.1869 186.472 49.8578C186.948 49.5288 187.522 49.3713 188.1 49.4111V52.4777H187.856C186.344 52.4777 185.478 53.3555 185.478 55.2666V57.8444H182.567V49.5555Z" fill="#081019"/>
<path d="M189.922 55.2667V51.9333H188.944V49.5556H189.922V47.4556H192.833V49.5556H194.767V51.9H192.833V54.7C192.833 55.2889 193.1 55.5333 193.633 55.5333C194.02 55.5245 194.399 55.4296 194.744 55.2556V57.4778C194.123 57.81 193.426 57.9746 192.722 57.9556C192.351 58.0149 191.971 57.9872 191.612 57.8748C191.253 57.7624 190.925 57.5683 190.653 57.3077C190.382 57.0472 190.175 56.7273 190.048 56.3731C189.921 56.019 189.878 55.6402 189.922 55.2667V55.2667Z" fill="#081019"/>
<path d="M150.933 46.3445C150.628 46.3445 150.329 46.4351 150.075 46.6048C149.821 46.7745 149.623 47.0157 149.506 47.2979C149.39 47.5801 149.359 47.8906 149.419 48.1902C149.478 48.4898 149.625 48.765 149.841 48.981C150.057 49.197 150.332 49.3441 150.632 49.4037C150.932 49.4633 151.242 49.4327 151.524 49.3158C151.807 49.1989 152.048 49.001 152.218 48.747C152.387 48.493 152.478 48.1944 152.478 47.8889C152.478 47.4793 152.315 47.0865 152.025 46.7968C151.736 46.5072 151.343 46.3445 150.933 46.3445V46.3445Z" fill="#081019"/>
<path d="M181.444 53.6777C181.464 53.0948 181.362 52.5142 181.144 51.9732C180.926 51.4323 180.597 50.943 180.178 50.5369C179.759 50.1308 179.26 49.8169 178.713 49.6153C178.166 49.4137 177.582 49.329 177 49.3666C176.304 49.3476 175.614 49.4962 174.987 49.7998C174.361 50.1034 173.816 50.5531 173.4 51.111L175.011 52.4444C175.242 52.1844 175.524 51.9752 175.839 51.8298C176.155 51.6845 176.497 51.6062 176.844 51.5999C177.253 51.5714 177.658 51.6903 177.986 51.9349C178.314 52.1796 178.544 52.5338 178.633 52.9333V52.9999H176.722C174.333 52.9999 173.089 53.9221 173.089 55.5999C173.089 57.2777 174.2 58.0888 176.222 58.0888C176.68 58.1005 177.135 58.0177 177.56 57.8457C177.984 57.6736 178.368 57.416 178.689 57.0888V57.8888H181.444V53.6777V53.6777ZM177.1 56.1888C176.344 56.1888 175.889 55.7888 175.889 55.2666C175.889 54.7444 176.289 54.4999 177 54.4999H178.667V54.5888C178.671 54.7973 178.634 55.0046 178.557 55.1986C178.48 55.3925 178.366 55.5692 178.22 55.7182C178.074 55.8672 177.9 55.9856 177.707 56.0664C177.515 56.1473 177.309 56.1889 177.1 56.1888V56.1888Z" fill="#081019"/>
<path d="M150.989 50.1665H150.878C150.679 50.1665 150.483 50.2056 150.3 50.2816C150.116 50.3575 149.95 50.4688 149.809 50.6091C149.669 50.7495 149.558 50.916 149.482 51.0994C149.406 51.2827 149.367 51.4792 149.367 51.6777V57.8443H152.511V51.6777C152.511 51.4783 152.472 51.2809 152.395 51.0968C152.318 50.9127 152.206 50.7457 152.065 50.6052C151.923 50.4647 151.755 50.3537 151.571 50.2784C151.386 50.2031 151.188 50.1651 150.989 50.1665V50.1665Z" fill="#081019"/>
<path d="M91.8667 46.9445C91.8652 46.8477 91.8831 46.7517 91.9194 46.6621C91.9558 46.5724 92.0097 46.491 92.0781 46.4226C92.1465 46.3542 92.2279 46.3002 92.3176 46.2639C92.4072 46.2276 92.5033 46.2096 92.6 46.2111H97.4444C97.5384 46.1989 97.634 46.2069 97.7247 46.2345C97.8154 46.2622 97.8991 46.3088 97.9703 46.3714C98.0415 46.434 98.0986 46.511 98.1377 46.5974C98.1768 46.6837 98.197 46.7774 98.197 46.8722C98.197 46.967 98.1768 47.0607 98.1377 47.1471C98.0986 47.2335 98.0415 47.3105 97.9703 47.3731C97.8991 47.4357 97.8154 47.4823 97.7247 47.5099C97.634 47.5376 97.5384 47.5456 97.4444 47.5333H93.3333V49.7556H96.9222C97.099 49.7556 97.2686 49.8258 97.3936 49.9508C97.5186 50.0759 97.5889 50.2454 97.5889 50.4222C97.5889 50.599 97.5186 50.7686 97.3936 50.8936C97.2686 51.0187 97.099 51.0889 96.9222 51.0889H93.3333V53.8C93.3348 53.8953 93.3172 53.9899 93.2814 54.0782C93.2456 54.1665 93.1925 54.2467 93.1251 54.314C93.0578 54.3814 92.9776 54.4345 92.8893 54.4703C92.801 54.5061 92.7064 54.5237 92.6111 54.5222C92.5153 54.5237 92.4202 54.5061 92.3313 54.4705C92.2424 54.4348 92.1615 54.3819 92.0932 54.3147C92.025 54.2475 91.9708 54.1673 91.9338 54.079C91.8968 53.9906 91.8778 53.8958 91.8778 53.8L91.8667 46.9445Z" fill="#081019"/>
<path d="M99.4889 48.889C99.4874 48.7947 99.5047 48.701 99.5398 48.6134C99.5748 48.5259 99.627 48.4462 99.6932 48.3789C99.7594 48.3117 99.8382 48.2584 99.9253 48.2219C100.012 48.1855 100.106 48.1667 100.2 48.1668C100.295 48.1668 100.389 48.1854 100.476 48.2217C100.564 48.258 100.644 48.3112 100.711 48.3783C100.778 48.4454 100.831 48.525 100.867 48.6126C100.904 48.7002 100.922 48.7941 100.922 48.889V49.5334C101.03 49.1791 101.235 48.8621 101.514 48.6185C101.793 48.3749 102.134 48.2146 102.5 48.1556C102.595 48.1491 102.69 48.163 102.78 48.1964C102.869 48.2298 102.95 48.2819 103.017 48.3493C103.085 48.4167 103.137 48.4978 103.17 48.587C103.204 48.6763 103.218 48.7717 103.211 48.8668C103.216 49.0307 103.161 49.1909 103.057 49.3176C102.953 49.4442 102.806 49.5288 102.644 49.5556C101.622 49.7334 100.922 50.5112 100.922 52.0001V53.8445C100.919 54.0341 100.842 54.215 100.707 54.3481C100.572 54.4811 100.39 54.5557 100.2 54.5556C100.011 54.5556 99.8305 54.4807 99.6971 54.3474C99.5638 54.214 99.4889 54.0331 99.4889 53.8445V48.889Z" fill="#081019"/>
<path d="M103.833 51.4112C103.833 50.5272 104.185 49.6793 104.81 49.0542C105.435 48.4291 106.283 48.0779 107.167 48.0779C108.051 48.0779 108.899 48.4291 109.524 49.0542C110.149 49.6793 110.5 50.5272 110.5 51.4112V51.4112C110.483 52.2837 110.124 53.1145 109.5 53.7253C108.877 54.336 108.039 54.6781 107.167 54.6779C106.731 54.6898 106.298 54.614 105.893 54.4549C105.487 54.2958 105.118 54.0567 104.807 53.7519C104.496 53.447 104.249 53.0827 104.082 52.6806C103.915 52.2784 103.83 51.8467 103.833 51.4112V51.4112ZM109.078 51.4112C109.088 51.1518 109.046 50.8929 108.955 50.65C108.863 50.4072 108.723 50.1853 108.544 49.9976C108.364 49.8099 108.149 49.6603 107.91 49.5576C107.672 49.455 107.415 49.4014 107.156 49.4001C106.898 49.3981 106.644 49.449 106.407 49.5496C106.17 49.6501 105.957 49.7982 105.78 49.9847C105.602 50.1712 105.466 50.392 105.377 50.6336C105.289 50.8752 105.251 51.1323 105.267 51.389C105.256 51.6475 105.298 51.9055 105.389 52.1476C105.48 52.3897 105.619 52.6111 105.797 52.7987C105.975 52.9862 106.189 53.1361 106.426 53.2394C106.664 53.3427 106.919 53.3973 107.178 53.4001C107.435 53.402 107.691 53.3511 107.928 53.2507C108.165 53.1503 108.379 53.0023 108.557 52.816C108.735 52.6298 108.873 52.409 108.963 52.1674C109.052 51.9258 109.091 51.6685 109.078 51.4112V51.4112Z" fill="#081019"/>
<path d="M111.978 48.8889C111.975 48.7942 111.991 48.6999 112.026 48.6116C112.06 48.5234 112.112 48.443 112.179 48.3755C112.245 48.308 112.325 48.2547 112.412 48.2188C112.5 48.1829 112.594 48.1652 112.689 48.1667C112.784 48.1667 112.878 48.1854 112.965 48.2217C113.053 48.258 113.133 48.3112 113.2 48.3783C113.267 48.4453 113.32 48.5249 113.356 48.6126C113.392 48.7002 113.411 48.7941 113.411 48.8889V49.1889C113.605 48.8531 113.883 48.5738 114.219 48.3789C114.554 48.184 114.934 48.0802 115.322 48.0778C115.708 48.0607 116.09 48.1567 116.422 48.3542C116.753 48.5516 117.02 48.8418 117.189 49.1889C117.422 48.8446 117.737 48.5631 118.105 48.3693C118.474 48.1755 118.884 48.0754 119.3 48.0778C119.612 48.0583 119.925 48.1086 120.216 48.2249C120.507 48.3413 120.768 48.5208 120.981 48.7505C121.193 48.9803 121.352 49.2544 121.446 49.5532C121.54 49.8519 121.566 50.1678 121.522 50.4778V53.8112C121.5 53.9859 121.416 54.1466 121.284 54.2631C121.152 54.3797 120.982 54.444 120.806 54.444C120.63 54.444 120.459 54.3797 120.328 54.2631C120.196 54.1466 120.111 53.9859 120.089 53.8112V50.9556C120.089 49.9556 119.622 49.4223 118.811 49.4223C118 49.4223 117.478 49.9667 117.478 50.9778V53.8556C117.456 54.0303 117.371 54.191 117.239 54.3076C117.107 54.4241 116.937 54.4884 116.761 54.4884C116.585 54.4884 116.415 54.4241 116.283 54.3076C116.151 54.191 116.066 54.0303 116.044 53.8556V50.9445C116.044 49.9667 115.567 49.4223 114.767 49.4223C113.967 49.4223 113.433 50.0112 113.433 50.9778V53.8556C113.433 53.9499 113.415 54.0433 113.378 54.1303C113.342 54.2173 113.288 54.2962 113.221 54.3624C113.154 54.4286 113.074 54.4807 112.987 54.5158C112.899 54.5509 112.805 54.5682 112.711 54.5667C112.617 54.5682 112.524 54.5509 112.437 54.5156C112.35 54.4804 112.271 54.4281 112.205 54.3618C112.139 54.2955 112.086 54.2165 112.051 54.1295C112.016 54.0426 111.998 53.9494 112 53.8556L111.978 48.8889Z" fill="#081019"/>
</g>
<defs>
<clipPath id="clip0">
<rect width="206.667" height="60" fill="white"/>
</clipPath>
</defs>
</svg>
