<svg width="736" height="282" viewBox="0 0 736 282" fill="none" xmlns="http://www.w3.org/2000/svg">
<path d="M64.331 93V40.6364H80.5241V50.1818H81.0696C82.0241 46.7273 83.581 44.1591 85.7401 42.4773C87.8991 40.7727 90.4105 39.9205 93.2741 39.9205C94.0469 39.9205 94.8423 39.9773 95.6605 40.0909C96.4787 40.1818 97.2401 40.3295 97.9446 40.5341V55.0227C97.1491 54.75 96.1037 54.5341 94.8082 54.375C93.5355 54.2159 92.3991 54.1364 91.3991 54.1364C89.4219 54.1364 87.6378 54.5795 86.0469 55.4659C84.4787 56.3295 83.2401 57.5455 82.331 59.1136C81.4446 60.6591 81.0014 62.4773 81.0014 64.5682V93H64.331ZM138.521 70.3977V40.6364H155.158V93H139.271V83.25H138.726C137.567 86.4545 135.589 89 132.794 90.8864C130.021 92.75 126.669 93.6818 122.737 93.6818C119.169 93.6818 116.033 92.8636 113.328 91.2273C110.624 89.5909 108.521 87.3068 107.021 84.375C105.521 81.4205 104.76 77.9659 104.737 74.0114V40.6364H121.408V70.7386C121.43 73.5795 122.18 75.8182 123.658 77.4545C125.135 79.0909 127.146 79.9091 129.692 79.9091C131.351 79.9091 132.839 79.5455 134.158 78.8182C135.499 78.0682 136.555 76.9886 137.328 75.5795C138.124 74.1477 138.521 72.4205 138.521 70.3977ZM182.439 63.1364V93H165.768V40.6364H181.621V50.25H182.2C183.359 47.0455 185.337 44.5341 188.132 42.7159C190.928 40.875 194.257 39.9545 198.121 39.9545C201.803 39.9545 204.996 40.7841 207.7 42.4432C210.428 44.0795 212.541 46.375 214.041 49.3295C215.564 52.2614 216.314 55.6932 216.291 59.625V93H199.621V62.8977C199.643 59.9886 198.905 57.7159 197.405 56.0795C195.928 54.4432 193.871 53.625 191.234 53.625C189.484 53.625 187.939 54.0114 186.598 54.7841C185.28 55.5341 184.257 56.6136 183.53 58.0227C182.825 59.4318 182.462 61.1364 182.439 63.1364ZM272.328 56.625L257.021 57.0341C256.862 55.9432 256.43 54.9773 255.726 54.1364C255.021 53.2727 254.101 52.6023 252.964 52.125C251.851 51.625 250.555 51.375 249.078 51.375C247.146 51.375 245.499 51.7614 244.135 52.5341C242.794 53.3068 242.135 54.3523 242.158 55.6705C242.135 56.6932 242.544 57.5795 243.385 58.3295C244.249 59.0795 245.783 59.6818 247.987 60.1364L258.078 62.0455C263.305 63.0455 267.192 64.7045 269.737 67.0227C272.305 69.3409 273.601 72.4091 273.624 76.2273C273.601 79.8182 272.533 82.9432 270.419 85.6023C268.328 88.2614 265.464 90.3295 261.828 91.8068C258.192 93.2614 254.033 93.9886 249.351 93.9886C241.874 93.9886 235.976 92.4545 231.658 89.3864C227.362 86.2955 224.908 82.1591 224.294 76.9773L240.76 76.5682C241.124 78.4773 242.067 79.9318 243.589 80.9318C245.112 81.9318 247.055 82.4318 249.419 82.4318C251.555 82.4318 253.294 82.0341 254.635 81.2386C255.976 80.4432 256.658 79.3864 256.68 78.0682C256.658 76.8864 256.135 75.9432 255.112 75.2386C254.089 74.5114 252.487 73.9432 250.305 73.5341L241.169 71.7955C235.919 70.8409 232.01 69.0795 229.442 66.5114C226.874 63.9205 225.601 60.625 225.624 56.625C225.601 53.125 226.533 50.1364 228.419 47.6591C230.305 45.1591 232.987 43.25 236.464 41.9318C239.942 40.6136 244.044 39.9545 248.771 39.9545C255.862 39.9545 261.453 41.4432 265.544 44.4205C269.635 47.375 271.896 51.4432 272.328 56.625ZM315.342 58.3295V71.1818H283.024V58.3295H315.342ZM351.555 93.9886C346.055 93.9886 341.328 92.8636 337.374 90.6136C333.442 88.3409 330.408 85.1818 328.271 81.1364C326.158 77.0682 325.101 72.3523 325.101 66.9886C325.101 61.6023 326.158 56.8864 328.271 52.8409C330.408 48.7727 333.442 45.6136 337.374 43.3636C341.328 41.0909 346.055 39.9545 351.555 39.9545C357.055 39.9545 361.771 41.0909 365.703 43.3636C369.658 45.6136 372.692 48.7727 374.805 52.8409C376.942 56.8864 378.01 61.6023 378.01 66.9886C378.01 72.3523 376.942 77.0682 374.805 81.1364C372.692 85.1818 369.658 88.3409 365.703 90.6136C361.771 92.8636 357.055 93.9886 351.555 93.9886ZM351.658 81.4091C353.658 81.4091 355.351 80.7955 356.737 79.5682C358.124 78.3409 359.18 76.6364 359.908 74.4545C360.658 72.2727 361.033 69.75 361.033 66.8864C361.033 63.9773 360.658 61.4318 359.908 59.25C359.18 57.0682 358.124 55.3636 356.737 54.1364C355.351 52.9091 353.658 52.2955 351.658 52.2955C349.589 52.2955 347.839 52.9091 346.408 54.1364C344.999 55.3636 343.919 57.0682 343.169 59.25C342.442 61.4318 342.078 63.9773 342.078 66.8864C342.078 69.75 342.442 72.2727 343.169 74.4545C343.919 76.6364 344.999 78.3409 346.408 79.5682C347.839 80.7955 349.589 81.4091 351.658 81.4091ZM403.22 63.1364V93H386.55V40.6364H402.402V50.25H402.982C404.141 47.0455 406.118 44.5341 408.913 42.7159C411.709 40.875 415.038 39.9545 418.902 39.9545C422.584 39.9545 425.777 40.7841 428.482 42.4432C431.209 44.0795 433.322 46.375 434.822 49.3295C436.345 52.2614 437.095 55.6932 437.072 59.625V93H420.402V62.8977C420.425 59.9886 419.686 57.7159 418.186 56.0795C416.709 54.4432 414.652 53.625 412.016 53.625C410.266 53.625 408.72 54.0114 407.379 54.7841C406.061 55.5341 405.038 56.6136 404.311 58.0227C403.607 59.4318 403.243 61.1364 403.22 63.1364ZM456.768 93.9886C454.314 93.9886 452.212 93.125 450.462 91.3977C448.734 89.6705 447.882 87.5795 447.905 85.125C447.882 82.7159 448.734 80.6591 450.462 78.9545C452.212 77.2273 454.314 76.3636 456.768 76.3636C459.087 76.3636 461.132 77.2273 462.905 78.9545C464.7 80.6591 465.609 82.7159 465.632 85.125C465.609 86.7614 465.178 88.25 464.337 89.5909C463.518 90.9318 462.439 92 461.098 92.7955C459.78 93.5909 458.337 93.9886 456.768 93.9886ZM501.087 93.9886C495.564 93.9886 490.825 92.8523 486.871 90.5795C482.939 88.3068 479.916 85.1477 477.803 81.1023C475.689 77.0341 474.632 72.3295 474.632 66.9886C474.632 61.625 475.689 56.9205 477.803 52.875C479.939 48.8068 482.973 45.6364 486.905 43.3636C490.859 41.0909 495.575 39.9545 501.053 39.9545C505.893 39.9545 510.109 40.8295 513.7 42.5795C517.314 44.3295 520.132 46.8068 522.155 50.0114C524.2 53.1932 525.28 56.9318 525.393 61.2273H509.814C509.496 58.5455 508.587 56.4432 507.087 54.9205C505.609 53.3977 503.678 52.6364 501.291 52.6364C499.359 52.6364 497.666 53.1818 496.212 54.2727C494.757 55.3409 493.621 56.9318 492.803 59.0455C492.007 61.1364 491.609 63.7273 491.609 66.8182C491.609 69.9091 492.007 72.5227 492.803 74.6591C493.621 76.7727 494.757 78.375 496.212 79.4659C497.666 80.5341 499.359 81.0682 501.291 81.0682C502.837 81.0682 504.2 80.7386 505.382 80.0795C506.587 79.4205 507.575 78.4545 508.348 77.1818C509.121 75.8864 509.609 74.3182 509.814 72.4773H525.393C525.234 76.7955 524.155 80.5682 522.155 83.7955C520.178 87.0227 517.393 89.5341 513.803 91.3295C510.234 93.1023 505.996 93.9886 501.087 93.9886ZM558.368 93.9886C552.868 93.9886 548.141 92.8636 544.186 90.6136C540.254 88.3409 537.22 85.1818 535.084 81.1364C532.97 77.0682 531.913 72.3523 531.913 66.9886C531.913 61.6023 532.97 56.8864 535.084 52.8409C537.22 48.7727 540.254 45.6136 544.186 43.3636C548.141 41.0909 552.868 39.9545 558.368 39.9545C563.868 39.9545 568.584 41.0909 572.516 43.3636C576.47 45.6136 579.504 48.7727 581.618 52.8409C583.754 56.8864 584.822 61.6023 584.822 66.9886C584.822 72.3523 583.754 77.0682 581.618 81.1364C579.504 85.1818 576.47 88.3409 572.516 90.6136C568.584 92.8636 563.868 93.9886 558.368 93.9886ZM558.47 81.4091C560.47 81.4091 562.163 80.7955 563.55 79.5682C564.936 78.3409 565.993 76.6364 566.72 74.4545C567.47 72.2727 567.845 69.75 567.845 66.8864C567.845 63.9773 567.47 61.4318 566.72 59.25C565.993 57.0682 564.936 55.3636 563.55 54.1364C562.163 52.9091 560.47 52.2955 558.47 52.2955C556.402 52.2955 554.652 52.9091 553.22 54.1364C551.811 55.3636 550.732 57.0682 549.982 59.25C549.254 61.4318 548.891 63.9773 548.891 66.8864C548.891 69.75 549.254 72.2727 549.982 74.4545C550.732 76.6364 551.811 78.3409 553.22 79.5682C554.652 80.7955 556.402 81.4091 558.47 81.4091ZM593.362 93V40.6364H609.214V50.25H609.794C610.885 47.0682 612.726 44.5568 615.317 42.7159C617.908 40.875 620.999 39.9545 624.589 39.9545C628.226 39.9545 631.339 40.8864 633.93 42.75C636.521 44.6136 638.169 47.1136 638.874 50.25H639.419C640.396 47.1364 642.305 44.6477 645.146 42.7841C647.987 40.8977 651.339 39.9545 655.203 39.9545C660.158 39.9545 664.18 41.5455 667.271 44.7273C670.362 47.8864 671.908 52.2273 671.908 57.75V93H655.237V61.5682C655.237 58.9545 654.567 56.9659 653.226 55.6023C651.885 54.2159 650.146 53.5227 648.01 53.5227C645.714 53.5227 643.908 54.2727 642.589 55.7727C641.294 57.25 640.646 59.2386 640.646 61.7386V93H624.624V61.3977C624.624 58.9659 623.964 57.0455 622.646 55.6364C621.328 54.2273 619.589 53.5227 617.43 53.5227C615.976 53.5227 614.692 53.875 613.578 54.5795C612.464 55.2614 611.589 56.2386 610.953 57.5114C610.339 58.7841 610.033 60.2841 610.033 62.0114V93H593.362Z" fill="#E35084"/>
<path d="M79.7859 145.182V183H72.935V151.848H72.7134L63.8683 157.499V151.22L73.2674 145.182H79.7859ZM103.367 183.72C100.326 183.72 97.7163 182.951 95.5373 181.412C93.3706 179.861 91.7025 177.626 90.533 174.709C89.3758 171.779 88.7972 168.252 88.7972 164.128C88.8095 160.004 89.3943 156.495 90.5515 153.602C91.721 150.697 93.3891 148.481 95.5558 146.955C97.7347 145.428 100.338 144.665 103.367 144.665C106.395 144.665 108.999 145.428 111.178 146.955C113.357 148.481 115.025 150.697 116.182 153.602C117.352 156.508 117.936 160.016 117.936 164.128C117.936 168.264 117.352 171.797 116.182 174.727C115.025 177.645 113.357 179.873 111.178 181.412C109.011 182.951 106.408 183.72 103.367 183.72ZM103.367 177.94C105.73 177.94 107.596 176.777 108.962 174.45C110.341 172.111 111.03 168.67 111.03 164.128C111.03 161.124 110.716 158.6 110.088 156.557C109.461 154.513 108.574 152.974 107.429 151.94C106.284 150.894 104.93 150.371 103.367 150.371C101.016 150.371 99.1566 151.54 97.7901 153.879C96.4237 156.206 95.7343 159.622 95.7219 164.128C95.7096 167.144 96.0112 169.68 96.6268 171.736C97.2546 173.792 98.141 175.343 99.2859 176.389C100.431 177.423 101.791 177.94 103.367 177.94ZM129.612 154.636L135.336 165.107L141.153 154.636H148.225L139.675 168.818L148.373 183H141.337L135.336 172.788L129.39 183H122.299L130.941 168.818L122.521 154.636H129.612ZM178.666 183.554C175.835 183.554 173.403 182.932 171.372 181.689C169.353 180.446 167.796 178.728 166.7 176.537C165.617 174.333 165.075 171.797 165.075 168.929C165.075 166.048 165.629 163.506 166.737 161.303C167.845 159.087 169.409 157.363 171.428 156.132C173.459 154.889 175.859 154.267 178.629 154.267C180.931 154.267 182.969 154.692 184.741 155.541C186.527 156.378 187.948 157.566 189.007 159.105C190.066 160.632 190.669 162.417 190.817 164.46H184.428C184.169 163.094 183.554 161.955 182.581 161.044C181.621 160.121 180.334 159.659 178.722 159.659C177.355 159.659 176.155 160.028 175.121 160.767C174.087 161.493 173.28 162.54 172.702 163.906C172.135 165.273 171.852 166.91 171.852 168.818C171.852 170.751 172.135 172.413 172.702 173.804C173.268 175.183 174.062 176.248 175.084 176.999C176.118 177.737 177.33 178.107 178.722 178.107C179.706 178.107 180.587 177.922 181.362 177.553C182.15 177.171 182.809 176.623 183.338 175.909C183.867 175.195 184.231 174.327 184.428 173.305H190.817C190.657 175.312 190.066 177.091 189.044 178.642C188.022 180.181 186.631 181.387 184.871 182.261C183.11 183.123 181.042 183.554 178.666 183.554ZM202.99 166.381V183H196.306V145.182H202.843V159.456H203.175C203.84 157.856 204.868 156.594 206.259 155.67C207.662 154.735 209.447 154.267 211.614 154.267C213.584 154.267 215.301 154.679 216.766 155.504C218.231 156.329 219.364 157.536 220.164 159.124C220.976 160.712 221.382 162.651 221.382 164.94V183H214.698V165.974C214.698 164.066 214.205 162.583 213.221 161.524C212.248 160.453 210.882 159.918 209.121 159.918C207.939 159.918 206.881 160.176 205.945 160.693C205.022 161.198 204.295 161.93 203.766 162.891C203.249 163.851 202.99 165.014 202.99 166.381ZM240.753 183.554C237.909 183.554 235.453 182.963 233.385 181.781C231.329 180.587 229.748 178.901 228.64 176.722C227.532 174.53 226.978 171.951 226.978 168.984C226.978 166.067 227.532 163.506 228.64 161.303C229.76 159.087 231.323 157.363 233.33 156.132C235.337 154.889 237.694 154.267 240.402 154.267C242.15 154.267 243.8 154.55 245.351 155.116C246.915 155.67 248.293 156.532 249.488 157.702C250.694 158.871 251.642 160.361 252.331 162.17C253.021 163.968 253.365 166.11 253.365 168.597V170.646H230.117V166.141H246.958C246.945 164.86 246.668 163.722 246.127 162.724C245.585 161.715 244.828 160.921 243.855 160.342C242.895 159.764 241.775 159.474 240.495 159.474C239.128 159.474 237.928 159.807 236.894 160.472C235.86 161.124 235.053 161.986 234.475 163.057C233.908 164.116 233.619 165.279 233.607 166.547V170.48C233.607 172.13 233.908 173.545 234.512 174.727C235.115 175.897 235.958 176.795 237.042 177.423C238.125 178.039 239.393 178.347 240.846 178.347C241.818 178.347 242.698 178.211 243.486 177.94C244.274 177.657 244.957 177.245 245.536 176.703C246.114 176.161 246.551 175.491 246.847 174.69L253.088 175.392C252.694 177.042 251.944 178.482 250.836 179.713C249.74 180.932 248.337 181.88 246.625 182.557C244.914 183.222 242.957 183.554 240.753 183.554ZM267.183 183.572C265.385 183.572 263.766 183.252 262.326 182.612C260.898 181.96 259.765 181 258.928 179.732C258.103 178.464 257.691 176.9 257.691 175.041C257.691 173.441 257.987 172.117 258.577 171.071C259.168 170.025 259.975 169.188 260.996 168.56C262.018 167.932 263.169 167.458 264.45 167.138C265.742 166.805 267.078 166.565 268.457 166.418C270.119 166.245 271.467 166.091 272.501 165.956C273.535 165.808 274.286 165.587 274.754 165.291C275.234 164.983 275.474 164.509 275.474 163.869V163.759C275.474 162.367 275.061 161.29 274.237 160.527C273.412 159.764 272.224 159.382 270.673 159.382C269.035 159.382 267.737 159.739 266.776 160.453C265.828 161.167 265.188 162.01 264.856 162.983L258.614 162.097C259.107 160.373 259.919 158.933 261.052 157.776C262.184 156.606 263.569 155.732 265.207 155.153C266.844 154.562 268.654 154.267 270.636 154.267C272.002 154.267 273.362 154.427 274.717 154.747C276.071 155.067 277.308 155.597 278.428 156.335C279.549 157.062 280.447 158.053 281.124 159.308C281.814 160.564 282.158 162.134 282.158 164.017V183H275.732V179.104H275.511C275.104 179.892 274.532 180.63 273.793 181.32C273.067 181.997 272.15 182.545 271.042 182.963C269.946 183.369 268.66 183.572 267.183 183.572ZM268.918 178.661C270.26 178.661 271.424 178.396 272.408 177.866C273.393 177.325 274.15 176.611 274.68 175.724C275.221 174.838 275.492 173.872 275.492 172.825V169.483C275.283 169.655 274.926 169.815 274.421 169.963C273.929 170.111 273.375 170.24 272.759 170.351C272.144 170.462 271.534 170.56 270.931 170.646C270.328 170.732 269.805 170.806 269.362 170.868C268.364 171.003 267.472 171.225 266.684 171.533C265.896 171.84 265.274 172.271 264.819 172.825C264.363 173.367 264.136 174.069 264.136 174.93C264.136 176.161 264.585 177.091 265.484 177.719C266.382 178.347 267.527 178.661 268.918 178.661ZM288.88 193.636V154.636H295.454V159.327H295.842C296.186 158.637 296.673 157.905 297.3 157.129C297.928 156.341 298.778 155.67 299.849 155.116C300.92 154.55 302.286 154.267 303.948 154.267C306.139 154.267 308.115 154.827 309.876 155.947C311.648 157.055 313.052 158.699 314.086 160.878C315.132 163.045 315.656 165.704 315.656 168.855C315.656 171.97 315.145 174.616 314.123 176.795C313.101 178.974 311.71 180.636 309.95 181.781C308.189 182.926 306.195 183.499 303.967 183.499C302.342 183.499 300.994 183.228 299.923 182.686C298.852 182.144 297.99 181.492 297.337 180.729C296.697 179.953 296.199 179.221 295.842 178.531H295.565V193.636H288.88ZM295.435 168.818C295.435 170.652 295.694 172.259 296.211 173.638C296.74 175.017 297.497 176.094 298.482 176.869C299.479 177.633 300.686 178.014 302.102 178.014C303.579 178.014 304.816 177.62 305.813 176.832C306.81 176.032 307.561 174.943 308.066 173.564C308.583 172.173 308.842 170.591 308.842 168.818C308.842 167.058 308.589 165.494 308.085 164.128C307.58 162.761 306.829 161.69 305.832 160.915C304.835 160.139 303.591 159.751 302.102 159.751C300.674 159.751 299.461 160.127 298.464 160.878C297.467 161.629 296.71 162.681 296.192 164.036C295.688 165.39 295.435 166.984 295.435 168.818ZM333.937 183.554C331.093 183.554 328.637 182.963 326.569 181.781C324.513 180.587 322.931 178.901 321.823 176.722C320.715 174.53 320.161 171.951 320.161 168.984C320.161 166.067 320.715 163.506 321.823 161.303C322.943 159.087 324.507 157.363 326.513 156.132C328.52 154.889 330.878 154.267 333.586 154.267C335.334 154.267 336.984 154.55 338.535 155.116C340.098 155.67 341.477 156.532 342.671 157.702C343.878 158.871 344.826 160.361 345.515 162.17C346.204 163.968 346.549 166.11 346.549 168.597V170.646H323.3V166.141H340.141C340.129 164.86 339.852 163.722 339.31 162.724C338.769 161.715 338.012 160.921 337.039 160.342C336.079 159.764 334.959 159.474 333.678 159.474C332.312 159.474 331.112 159.807 330.077 160.472C329.043 161.124 328.237 161.986 327.658 163.057C327.092 164.116 326.803 165.279 326.79 166.547V170.48C326.79 172.13 327.092 173.545 327.695 174.727C328.299 175.897 329.142 176.795 330.225 177.423C331.308 178.039 332.576 178.347 334.029 178.347C335.002 178.347 335.882 178.211 336.67 177.94C337.458 177.657 338.141 177.245 338.719 176.703C339.298 176.161 339.735 175.491 340.031 174.69L346.272 175.392C345.878 177.042 345.127 178.482 344.019 179.713C342.924 180.932 341.52 181.88 339.809 182.557C338.098 183.222 336.14 183.554 333.937 183.554ZM352.204 183V154.636H358.686V159.364H358.981C359.498 157.726 360.385 156.464 361.64 155.578C362.908 154.679 364.355 154.23 365.98 154.23C366.349 154.23 366.761 154.249 367.217 154.286C367.685 154.31 368.073 154.353 368.38 154.415V160.564C368.097 160.465 367.648 160.379 367.032 160.305C366.429 160.219 365.844 160.176 365.278 160.176C364.059 160.176 362.964 160.441 361.991 160.97C361.031 161.487 360.274 162.207 359.72 163.131C359.166 164.054 358.889 165.119 358.889 166.325V183H352.204ZM100.366 220.259C100.058 219.261 99.6336 218.369 99.092 217.581C98.5626 216.781 97.9225 216.098 97.1715 215.531C96.4329 214.965 95.5835 214.54 94.6232 214.257C93.663 213.962 92.6166 213.814 91.484 213.814C89.4528 213.814 87.6431 214.325 86.055 215.347C84.467 216.368 83.2174 217.87 82.3065 219.852C81.4078 221.822 80.9585 224.223 80.9585 227.054C80.9585 229.91 81.4078 232.329 82.3065 234.311C83.2051 236.293 84.4547 237.801 86.055 238.835C87.6554 239.857 89.5143 240.368 91.6317 240.368C93.5522 240.368 95.2141 239.999 96.6175 239.26C98.0333 238.521 99.1228 237.475 99.886 236.121C100.649 234.754 101.031 233.154 101.031 231.32L102.582 231.56H92.315V226.205H107.66V230.747C107.66 233.985 106.971 236.786 105.592 239.149C104.213 241.513 102.317 243.335 99.9045 244.615C97.4916 245.883 94.7217 246.517 91.5948 246.517C88.1109 246.517 85.0517 245.735 82.4173 244.172C79.7951 242.596 77.7454 240.362 76.2681 237.469C74.8031 234.563 74.0707 231.116 74.0707 227.128C74.0707 224.075 74.5015 221.348 75.3633 218.947C76.2373 216.547 77.4561 214.509 79.0195 212.835C80.583 211.149 82.4173 209.868 84.5224 208.994C86.6275 208.108 88.9173 207.665 91.3917 207.665C93.4845 207.665 95.4357 207.973 97.2454 208.588C99.055 209.191 100.662 210.053 102.065 211.173C103.481 212.294 104.644 213.623 105.555 215.162C106.466 216.701 107.063 218.4 107.346 220.259H100.366ZM115.767 246V217.636H122.451V246H115.767ZM119.127 213.611C118.069 213.611 117.158 213.26 116.395 212.558C115.631 211.844 115.25 210.989 115.25 209.991C115.25 208.982 115.631 208.126 116.395 207.425C117.158 206.711 118.069 206.354 119.127 206.354C120.199 206.354 121.109 206.711 121.86 207.425C122.624 208.126 123.005 208.982 123.005 209.991C123.005 210.989 122.624 211.844 121.86 212.558C121.109 213.26 120.199 213.611 119.127 213.611ZM143.489 217.636V222.807H127.183V217.636H143.489ZM131.209 210.841H137.893V237.469C137.893 238.367 138.029 239.057 138.3 239.537C138.583 240.005 138.952 240.325 139.408 240.497C139.863 240.67 140.368 240.756 140.922 240.756C141.34 240.756 141.722 240.725 142.067 240.663C142.424 240.602 142.695 240.546 142.879 240.497L144.006 245.723C143.649 245.846 143.138 245.982 142.473 246.129C141.821 246.277 141.02 246.363 140.072 246.388C138.398 246.437 136.89 246.185 135.548 245.631C134.206 245.064 133.142 244.19 132.354 243.009C131.578 241.827 131.196 240.349 131.209 238.577V210.841ZM149.984 246V208.182H156.835V224.192H174.359V208.182H181.228V246H174.359V229.935H156.835V246H149.984ZM206.462 234.071V217.636H213.147V246H206.665V240.959H206.37C205.73 242.547 204.677 243.846 203.212 244.855C201.759 245.865 199.968 246.369 197.838 246.369C195.98 246.369 194.336 245.957 192.908 245.132C191.492 244.295 190.384 243.082 189.584 241.494C188.784 239.894 188.384 237.961 188.384 235.696V217.636H195.069V234.662C195.069 236.459 195.561 237.887 196.546 238.946C197.531 240.005 198.823 240.534 200.424 240.534C201.409 240.534 202.363 240.294 203.286 239.814C204.209 239.334 204.966 238.62 205.557 237.672C206.16 236.712 206.462 235.511 206.462 234.071ZM220.316 246V208.182H227.001V222.327H227.278C227.622 221.637 228.109 220.905 228.737 220.129C229.364 219.341 230.214 218.67 231.285 218.116C232.356 217.55 233.722 217.267 235.384 217.267C237.576 217.267 239.551 217.827 241.312 218.947C243.085 220.055 244.488 221.699 245.522 223.878C246.568 226.045 247.092 228.704 247.092 231.855C247.092 234.97 246.581 237.616 245.559 239.795C244.537 241.974 243.146 243.636 241.386 244.781C239.625 245.926 237.631 246.499 235.403 246.499C233.778 246.499 232.43 246.228 231.359 245.686C230.288 245.144 229.426 244.492 228.773 243.729C228.133 242.953 227.635 242.221 227.278 241.531H226.89V246H220.316ZM226.871 231.818C226.871 233.652 227.13 235.259 227.647 236.638C228.176 238.017 228.933 239.094 229.918 239.869C230.915 240.633 232.122 241.014 233.538 241.014C235.015 241.014 236.252 240.62 237.249 239.832C238.246 239.032 238.997 237.943 239.502 236.564C240.019 235.173 240.278 233.591 240.278 231.818C240.278 230.058 240.025 228.494 239.521 227.128C239.016 225.761 238.265 224.69 237.268 223.915C236.271 223.139 235.027 222.751 233.538 222.751C232.11 222.751 230.897 223.127 229.9 223.878C228.903 224.629 228.146 225.681 227.629 227.036C227.124 228.39 226.871 229.984 226.871 231.818ZM270.825 246H263.512L276.826 208.182H285.284L298.616 246H291.304L281.203 215.938H280.907L270.825 246ZM271.065 231.172H291.008V236.675H271.065V231.172ZM314.811 246.554C311.979 246.554 309.548 245.932 307.517 244.689C305.498 243.446 303.94 241.728 302.845 239.537C301.761 237.333 301.22 234.797 301.22 231.929C301.22 229.048 301.774 226.506 302.882 224.303C303.99 222.087 305.553 220.363 307.572 219.132C309.603 217.889 312.004 217.267 314.774 217.267C317.076 217.267 319.113 217.692 320.886 218.541C322.671 219.378 324.093 220.566 325.152 222.105C326.21 223.632 326.814 225.417 326.961 227.46H320.572C320.314 226.094 319.698 224.955 318.725 224.044C317.765 223.121 316.479 222.659 314.866 222.659C313.5 222.659 312.299 223.028 311.265 223.767C310.231 224.493 309.425 225.54 308.846 226.906C308.28 228.273 307.997 229.91 307.997 231.818C307.997 233.751 308.28 235.413 308.846 236.804C309.413 238.183 310.207 239.248 311.228 239.999C312.262 240.737 313.475 241.107 314.866 241.107C315.851 241.107 316.731 240.922 317.507 240.553C318.295 240.171 318.953 239.623 319.483 238.909C320.012 238.195 320.375 237.327 320.572 236.305H326.961C326.801 238.312 326.21 240.091 325.189 241.642C324.167 243.181 322.776 244.387 321.015 245.261C319.255 246.123 317.187 246.554 314.811 246.554ZM346.614 217.636V222.807H330.308V217.636H346.614ZM334.334 210.841H341.018V237.469C341.018 238.367 341.154 239.057 341.425 239.537C341.708 240.005 342.077 240.325 342.533 240.497C342.988 240.67 343.493 240.756 344.047 240.756C344.465 240.756 344.847 240.725 345.192 240.663C345.549 240.602 345.82 240.546 346.004 240.497L347.131 245.723C346.774 245.846 346.263 245.982 345.598 246.129C344.946 246.277 344.145 246.363 343.197 246.388C341.523 246.437 340.015 246.185 338.673 245.631C337.331 245.064 336.267 244.19 335.479 243.009C334.703 241.827 334.321 240.349 334.334 238.577V210.841ZM352.204 246V217.636H358.889V246H352.204ZM355.565 213.611C354.506 213.611 353.595 213.26 352.832 212.558C352.069 211.844 351.687 210.989 351.687 209.991C351.687 208.982 352.069 208.126 352.832 207.425C353.595 206.711 354.506 206.354 355.565 206.354C356.636 206.354 357.547 206.711 358.298 207.425C359.061 208.126 359.443 208.982 359.443 209.991C359.443 210.989 359.061 211.844 358.298 212.558C357.547 213.26 356.636 213.611 355.565 213.611ZM378.135 246.554C375.365 246.554 372.964 245.945 370.933 244.726C368.902 243.507 367.326 241.802 366.206 239.611C365.098 237.42 364.544 234.859 364.544 231.929C364.544 228.999 365.098 226.432 366.206 224.229C367.326 222.025 368.902 220.314 370.933 219.095C372.964 217.876 375.365 217.267 378.135 217.267C380.905 217.267 383.305 217.876 385.337 219.095C387.368 220.314 388.938 222.025 390.045 224.229C391.166 226.432 391.726 228.999 391.726 231.929C391.726 234.859 391.166 237.42 390.045 239.611C388.938 241.802 387.368 243.507 385.337 244.726C383.305 245.945 380.905 246.554 378.135 246.554ZM378.172 241.199C379.674 241.199 380.929 240.786 381.939 239.962C382.948 239.125 383.699 238.004 384.192 236.601C384.696 235.197 384.949 233.634 384.949 231.911C384.949 230.175 384.696 228.605 384.192 227.202C383.699 225.786 382.948 224.66 381.939 223.822C380.929 222.985 379.674 222.567 378.172 222.567C376.633 222.567 375.353 222.985 374.331 223.822C373.321 224.66 372.564 225.786 372.06 227.202C371.567 228.605 371.321 230.175 371.321 231.911C371.321 233.634 371.567 235.197 372.06 236.601C372.564 238.004 373.321 239.125 374.331 239.962C375.353 240.786 376.633 241.199 378.172 241.199ZM404.084 229.381V246H397.4V217.636H403.789V222.456H404.121C404.774 220.868 405.814 219.606 407.242 218.67C408.682 217.735 410.461 217.267 412.578 217.267C414.536 217.267 416.241 217.686 417.694 218.523C419.158 219.36 420.291 220.572 421.091 222.161C421.904 223.749 422.304 225.675 422.292 227.94V246H415.607V228.974C415.607 227.079 415.114 225.595 414.13 224.524C413.157 223.453 411.809 222.918 410.086 222.918C408.916 222.918 407.876 223.176 406.965 223.693C406.066 224.198 405.358 224.93 404.841 225.891C404.337 226.851 404.084 228.014 404.084 229.381ZM451.505 225.134L445.411 225.798C445.239 225.183 444.937 224.604 444.506 224.062C444.087 223.521 443.521 223.084 442.807 222.751C442.093 222.419 441.219 222.253 440.185 222.253C438.794 222.253 437.624 222.554 436.676 223.158C435.741 223.761 435.279 224.543 435.292 225.503C435.279 226.328 435.581 226.999 436.196 227.516C436.824 228.033 437.858 228.457 439.299 228.79L444.137 229.824C446.82 230.402 448.815 231.32 450.12 232.575C451.437 233.831 452.102 235.474 452.114 237.506C452.102 239.291 451.578 240.866 450.544 242.233C449.523 243.587 448.101 244.646 446.279 245.409C444.457 246.172 442.364 246.554 440 246.554C436.529 246.554 433.734 245.828 431.617 244.375C429.499 242.91 428.238 240.873 427.831 238.263L434.35 237.635C434.645 238.915 435.273 239.882 436.233 240.534C437.194 241.187 438.443 241.513 439.982 241.513C441.57 241.513 442.844 241.187 443.804 240.534C444.777 239.882 445.263 239.075 445.263 238.115C445.263 237.303 444.949 236.632 444.321 236.102C443.706 235.573 442.746 235.167 441.441 234.884L436.603 233.868C433.882 233.302 431.869 232.348 430.564 231.006C429.259 229.652 428.613 227.94 428.625 225.872C428.613 224.124 429.087 222.61 430.047 221.33C431.02 220.037 432.368 219.04 434.091 218.338C435.827 217.624 437.828 217.267 440.093 217.267C443.417 217.267 446.033 217.975 447.941 219.391C449.861 220.806 451.049 222.721 451.505 225.134ZM470.525 246V217.636H477.006V222.364H477.301C477.819 220.726 478.705 219.464 479.961 218.578C481.229 217.679 482.675 217.23 484.3 217.23C484.669 217.23 485.082 217.249 485.537 217.286C486.005 217.31 486.393 217.353 486.701 217.415V223.564C486.417 223.465 485.968 223.379 485.353 223.305C484.749 223.219 484.165 223.176 483.598 223.176C482.38 223.176 481.284 223.441 480.311 223.97C479.351 224.487 478.594 225.207 478.04 226.131C477.486 227.054 477.209 228.119 477.209 229.325V246H470.525ZM509.22 234.071V217.636H515.904V246H509.423V240.959H509.127C508.487 242.547 507.435 243.846 505.97 244.855C504.517 245.865 502.726 246.369 500.596 246.369C498.737 246.369 497.094 245.957 495.666 245.132C494.25 244.295 493.142 243.082 492.342 241.494C491.542 239.894 491.142 237.961 491.142 235.696V217.636H497.826V234.662C497.826 236.459 498.319 237.887 499.304 238.946C500.288 240.005 501.581 240.534 503.181 240.534C504.166 240.534 505.12 240.294 506.044 239.814C506.967 239.334 507.724 238.62 508.315 237.672C508.918 236.712 509.22 235.511 509.22 234.071ZM529.463 229.381V246H522.778V217.636H529.168V222.456H529.5C530.152 220.868 531.193 219.606 532.621 218.67C534.061 217.735 535.84 217.267 537.957 217.267C539.915 217.267 541.62 217.686 543.072 218.523C544.537 219.36 545.67 220.572 546.47 222.161C547.283 223.749 547.683 225.675 547.67 227.94V246H540.986V228.974C540.986 227.079 540.493 225.595 539.509 224.524C538.536 223.453 537.188 222.918 535.464 222.918C534.295 222.918 533.255 223.176 532.344 223.693C531.445 224.198 530.737 224.93 530.22 225.891C529.715 226.851 529.463 228.014 529.463 229.381ZM561.151 229.381V246H554.466V217.636H560.855V222.456H561.188C561.84 220.868 562.88 219.606 564.308 218.67C565.749 217.735 567.527 217.267 569.645 217.267C571.602 217.267 573.307 217.686 574.76 218.523C576.225 219.36 577.357 220.572 578.158 222.161C578.97 223.749 579.37 225.675 579.358 227.94V246H572.673V228.974C572.673 227.079 572.181 225.595 571.196 224.524C570.223 223.453 568.875 222.918 567.152 222.918C565.982 222.918 564.942 223.176 564.031 223.693C563.133 224.198 562.425 224.93 561.908 225.891C561.403 226.851 561.151 228.014 561.151 229.381ZM598.71 246.554C595.866 246.554 593.411 245.963 591.342 244.781C589.286 243.587 587.705 241.901 586.597 239.722C585.489 237.53 584.935 234.951 584.935 231.984C584.935 229.067 585.489 226.506 586.597 224.303C587.717 222.087 589.28 220.363 591.287 219.132C593.294 217.889 595.651 217.267 598.359 217.267C600.107 217.267 601.757 217.55 603.308 218.116C604.872 218.67 606.25 219.532 607.445 220.702C608.651 221.871 609.599 223.361 610.288 225.17C610.978 226.968 611.322 229.11 611.322 231.597V233.646H588.074V229.141H604.915C604.902 227.86 604.625 226.722 604.084 225.724C603.542 224.715 602.785 223.921 601.812 223.342C600.852 222.764 599.732 222.474 598.452 222.474C597.085 222.474 595.885 222.807 594.851 223.472C593.817 224.124 593.01 224.986 592.432 226.057C591.866 227.116 591.576 228.279 591.564 229.547V233.48C591.564 235.13 591.866 236.545 592.469 237.727C593.072 238.897 593.915 239.795 594.999 240.423C596.082 241.039 597.35 241.347 598.803 241.347C599.775 241.347 600.655 241.211 601.443 240.94C602.231 240.657 602.914 240.245 603.493 239.703C604.071 239.161 604.509 238.491 604.804 237.69L611.045 238.392C610.652 240.042 609.901 241.482 608.793 242.713C607.697 243.932 606.294 244.88 604.582 245.557C602.871 246.222 600.914 246.554 598.71 246.554ZM616.978 246V217.636H623.459V222.364H623.755C624.272 220.726 625.158 219.464 626.414 218.578C627.682 217.679 629.128 217.23 630.753 217.23C631.123 217.23 631.535 217.249 631.99 217.286C632.458 217.31 632.846 217.353 633.154 217.415V223.564C632.871 223.465 632.421 223.379 631.806 223.305C631.203 223.219 630.618 223.176 630.051 223.176C628.833 223.176 627.737 223.441 626.765 223.97C625.804 224.487 625.047 225.207 624.493 226.131C623.939 227.054 623.662 228.119 623.662 229.325V246H616.978ZM660.012 225.134L653.919 225.798C653.746 225.183 653.445 224.604 653.014 224.062C652.595 223.521 652.029 223.084 651.315 222.751C650.601 222.419 649.727 222.253 648.693 222.253C647.302 222.253 646.132 222.554 645.184 223.158C644.249 223.761 643.787 224.543 643.799 225.503C643.787 226.328 644.089 226.999 644.704 227.516C645.332 228.033 646.366 228.457 647.806 228.79L652.645 229.824C655.328 230.402 657.323 231.32 658.627 232.575C659.945 233.831 660.609 235.474 660.622 237.506C660.609 239.291 660.086 240.866 659.052 242.233C658.03 243.587 656.609 244.646 654.787 245.409C652.965 246.172 650.872 246.554 648.508 246.554C645.037 246.554 642.242 245.828 640.125 244.375C638.007 242.91 636.745 240.873 636.339 238.263L642.858 237.635C643.153 238.915 643.781 239.882 644.741 240.534C645.701 241.187 646.951 241.513 648.49 241.513C650.078 241.513 651.352 241.187 652.312 240.534C653.285 239.882 653.771 239.075 653.771 238.115C653.771 237.303 653.457 236.632 652.829 236.102C652.214 235.573 651.253 235.167 649.949 234.884L645.11 233.868C642.39 233.302 640.377 232.348 639.072 231.006C637.767 229.652 637.121 227.94 637.133 225.872C637.121 224.124 637.595 222.61 638.555 221.33C639.528 220.037 640.876 219.04 642.599 218.338C644.335 217.624 646.335 217.267 648.6 217.267C651.924 217.267 654.54 217.975 656.449 219.391C658.369 220.806 659.557 222.721 660.012 225.134Z" fill="#111827"/>
<path d="M408.137 162.134L402.044 162.798C401.871 162.183 401.57 161.604 401.139 161.062C400.72 160.521 400.154 160.084 399.44 159.751C398.726 159.419 397.852 159.253 396.818 159.253C395.427 159.253 394.257 159.554 393.309 160.158C392.374 160.761 391.912 161.543 391.924 162.503C391.912 163.328 392.214 163.999 392.829 164.516C393.457 165.033 394.491 165.457 395.931 165.79L400.77 166.824C403.453 167.402 405.448 168.32 406.752 169.575C408.07 170.831 408.734 172.474 408.747 174.506C408.734 176.291 408.211 177.866 407.177 179.233C406.155 180.587 404.734 181.646 402.912 182.409C401.09 183.172 398.997 183.554 396.633 183.554C393.162 183.554 390.367 182.828 388.25 181.375C386.132 179.91 384.87 177.873 384.464 175.263L390.983 174.635C391.278 175.915 391.906 176.882 392.866 177.534C393.826 178.187 395.076 178.513 396.615 178.513C398.203 178.513 399.477 178.187 400.437 177.534C401.41 176.882 401.896 176.075 401.896 175.115C401.896 174.303 401.582 173.632 400.954 173.102C400.339 172.573 399.378 172.167 398.074 171.884L393.235 170.868C390.515 170.302 388.502 169.348 387.197 168.006C385.892 166.652 385.246 164.94 385.258 162.872C385.246 161.124 385.72 159.61 386.68 158.33C387.653 157.037 389.001 156.04 390.724 155.338C392.46 154.624 394.46 154.267 396.725 154.267C400.049 154.267 402.665 154.975 404.574 156.391C406.494 157.806 407.682 159.721 408.137 162.134ZM426.816 183.554C423.972 183.554 421.516 182.963 419.448 181.781C417.392 180.587 415.81 178.901 414.702 176.722C413.594 174.53 413.04 171.951 413.04 168.984C413.04 166.067 413.594 163.506 414.702 161.303C415.822 159.087 417.386 157.363 419.392 156.132C421.399 154.889 423.757 154.267 426.465 154.267C428.213 154.267 429.863 154.55 431.414 155.116C432.977 155.67 434.356 156.532 435.55 157.702C436.757 158.871 437.704 160.361 438.394 162.17C439.083 163.968 439.428 166.11 439.428 168.597V170.646H416.179V166.141H433.02C433.008 164.86 432.731 163.722 432.189 162.724C431.648 161.715 430.891 160.921 429.918 160.342C428.958 159.764 427.837 159.474 426.557 159.474C425.191 159.474 423.99 159.807 422.956 160.472C421.922 161.124 421.116 161.986 420.537 163.057C419.971 164.116 419.682 165.279 419.669 166.547V170.48C419.669 172.13 419.971 173.545 420.574 174.727C421.177 175.897 422.021 176.795 423.104 177.423C424.187 178.039 425.455 178.347 426.908 178.347C427.881 178.347 428.761 178.211 429.549 177.94C430.337 177.657 431.02 177.245 431.598 176.703C432.177 176.161 432.614 175.491 432.909 174.69L439.151 175.392C438.757 177.042 438.006 178.482 436.898 179.713C435.802 180.932 434.399 181.88 432.688 182.557C430.977 183.222 429.019 183.554 426.816 183.554ZM451.768 145.182V183H445.083V145.182H451.768ZM473.008 154.636V159.807H456.241V154.636H473.008ZM460.433 183V151.959C460.433 150.051 460.827 148.463 461.615 147.195C462.415 145.927 463.486 144.979 464.828 144.351C466.17 143.723 467.659 143.409 469.297 143.409C470.454 143.409 471.482 143.501 472.38 143.686C473.279 143.871 473.944 144.037 474.375 144.185L473.045 149.355C472.762 149.269 472.405 149.183 471.974 149.097C471.543 148.998 471.063 148.949 470.534 148.949C469.29 148.949 468.41 149.25 467.893 149.854C467.388 150.445 467.136 151.294 467.136 152.402V183H460.433ZM494.267 164.497V170H477.241V164.497H494.267ZM507.983 166.381V183H501.298V145.182H507.835V159.456H508.167C508.832 157.856 509.86 156.594 511.251 155.67C512.654 154.735 514.44 154.267 516.606 154.267C518.576 154.267 520.293 154.679 521.758 155.504C523.223 156.329 524.356 157.536 525.156 159.124C525.968 160.712 526.375 162.651 526.375 164.94V183H519.69V165.974C519.69 164.066 519.198 162.583 518.213 161.524C517.24 160.453 515.874 159.918 514.113 159.918C512.931 159.918 511.873 160.176 510.937 160.693C510.014 161.198 509.288 161.93 508.758 162.891C508.241 163.851 507.983 165.014 507.983 166.381ZM545.561 183.554C542.791 183.554 540.39 182.945 538.359 181.726C536.328 180.507 534.752 178.802 533.632 176.611C532.524 174.42 531.97 171.859 531.97 168.929C531.97 165.999 532.524 163.432 533.632 161.229C534.752 159.025 536.328 157.314 538.359 156.095C540.39 154.876 542.791 154.267 545.561 154.267C548.331 154.267 550.731 154.876 552.762 156.095C554.794 157.314 556.363 159.025 557.471 161.229C558.592 163.432 559.152 165.999 559.152 168.929C559.152 171.859 558.592 174.42 557.471 176.611C556.363 178.802 554.794 180.507 552.762 181.726C550.731 182.945 548.331 183.554 545.561 183.554ZM545.598 178.199C547.1 178.199 548.355 177.786 549.365 176.962C550.374 176.125 551.125 175.004 551.618 173.601C552.122 172.197 552.375 170.634 552.375 168.911C552.375 167.175 552.122 165.605 551.618 164.202C551.125 162.786 550.374 161.66 549.365 160.822C548.355 159.985 547.1 159.567 545.598 159.567C544.059 159.567 542.779 159.985 541.757 160.822C540.747 161.66 539.99 162.786 539.485 164.202C538.993 165.605 538.747 167.175 538.747 168.911C538.747 170.634 538.993 172.197 539.485 173.601C539.99 175.004 540.747 176.125 541.757 176.962C542.779 177.786 544.059 178.199 545.598 178.199ZM587.243 162.134L581.149 162.798C580.977 162.183 580.675 161.604 580.244 161.062C579.826 160.521 579.259 160.084 578.545 159.751C577.831 159.419 576.957 159.253 575.923 159.253C574.532 159.253 573.363 159.554 572.415 160.158C571.479 160.761 571.018 161.543 571.03 162.503C571.018 163.328 571.319 163.999 571.935 164.516C572.563 165.033 573.597 165.457 575.037 165.79L579.875 166.824C582.559 167.402 584.553 168.32 585.858 169.575C587.175 170.831 587.84 172.474 587.852 174.506C587.84 176.291 587.317 177.866 586.283 179.233C585.261 180.587 583.839 181.646 582.017 182.409C580.195 183.172 578.102 183.554 575.739 183.554C572.267 183.554 569.473 182.828 567.355 181.375C565.238 179.91 563.976 177.873 563.57 175.263L570.088 174.635C570.384 175.915 571.011 176.882 571.972 177.534C572.932 178.187 574.181 178.513 575.72 178.513C577.308 178.513 578.582 178.187 579.543 177.534C580.515 176.882 581.001 176.075 581.001 175.115C581.001 174.303 580.688 173.632 580.06 173.102C579.444 172.573 578.484 172.167 577.179 171.884L572.341 170.868C569.62 170.302 567.607 169.348 566.303 168.006C564.998 166.652 564.351 164.94 564.364 162.872C564.351 161.124 564.825 159.61 565.786 158.33C566.758 157.037 568.106 156.04 569.83 155.338C571.565 154.624 573.566 154.267 575.831 154.267C579.155 154.267 581.771 154.975 583.679 156.391C585.599 157.806 586.787 159.721 587.243 162.134ZM607.528 154.636V159.807H591.222V154.636H607.528ZM595.248 147.841H601.933V174.469C601.933 175.367 602.068 176.057 602.339 176.537C602.622 177.005 602.991 177.325 603.447 177.497C603.902 177.67 604.407 177.756 604.961 177.756C605.379 177.756 605.761 177.725 606.106 177.663C606.463 177.602 606.734 177.546 606.918 177.497L608.045 182.723C607.688 182.846 607.177 182.982 606.512 183.129C605.86 183.277 605.059 183.363 604.112 183.388C602.437 183.437 600.929 183.185 599.587 182.631C598.246 182.064 597.181 181.19 596.393 180.009C595.617 178.827 595.236 177.349 595.248 175.577V147.841ZM625.37 183.554C622.527 183.554 620.071 182.963 618.002 181.781C615.947 180.587 614.365 178.901 613.257 176.722C612.149 174.53 611.595 171.951 611.595 168.984C611.595 166.067 612.149 163.506 613.257 161.303C614.377 159.087 615.94 157.363 617.947 156.132C619.954 154.889 622.311 154.267 625.02 154.267C626.768 154.267 628.417 154.55 629.968 155.116C631.532 155.67 632.911 156.532 634.105 157.702C635.311 158.871 636.259 160.361 636.949 162.17C637.638 163.968 637.983 166.11 637.983 168.597V170.646H614.734V166.141H631.575C631.563 164.86 631.286 163.722 630.744 162.724C630.202 161.715 629.445 160.921 628.473 160.342C627.512 159.764 626.392 159.474 625.112 159.474C623.745 159.474 622.545 159.807 621.511 160.472C620.477 161.124 619.671 161.986 619.092 163.057C618.526 164.116 618.236 165.279 618.224 166.547V170.48C618.224 172.13 618.526 173.545 619.129 174.727C619.732 175.897 620.575 176.795 621.659 177.423C622.742 178.039 624.01 178.347 625.463 178.347C626.435 178.347 627.315 178.211 628.103 177.94C628.891 177.657 629.574 177.245 630.153 176.703C630.732 176.161 631.169 175.491 631.464 174.69L637.706 175.392C637.312 177.042 636.561 178.482 635.453 179.713C634.357 180.932 632.954 181.88 631.243 182.557C629.531 183.222 627.574 183.554 625.37 183.554ZM654.163 183.499C651.935 183.499 649.941 182.926 648.18 181.781C646.42 180.636 645.029 178.974 644.007 176.795C642.985 174.616 642.474 171.97 642.474 168.855C642.474 165.704 642.991 163.045 644.026 160.878C645.072 158.699 646.482 157.055 648.254 155.947C650.027 154.827 652.003 154.267 654.182 154.267C655.844 154.267 657.21 154.55 658.281 155.116C659.352 155.67 660.202 156.341 660.83 157.129C661.457 157.905 661.944 158.637 662.288 159.327H662.565V145.182H669.268V183H662.695V178.531H662.288C661.944 179.221 661.445 179.953 660.793 180.729C660.14 181.492 659.278 182.144 658.207 182.686C657.136 183.228 655.788 183.499 654.163 183.499ZM656.028 178.014C657.444 178.014 658.651 177.633 659.648 176.869C660.645 176.094 661.402 175.017 661.919 173.638C662.436 172.259 662.695 170.652 662.695 168.818C662.695 166.984 662.436 165.39 661.919 164.036C661.414 162.681 660.663 161.629 659.666 160.878C658.681 160.127 657.469 159.751 656.028 159.751C654.539 159.751 653.295 160.139 652.298 160.915C651.301 161.69 650.55 162.761 650.045 164.128C649.541 165.494 649.288 167.058 649.288 168.818C649.288 170.591 649.541 172.173 650.045 173.564C650.563 174.943 651.32 176.032 652.317 176.832C653.326 177.62 654.563 178.014 656.028 178.014Z" fill="#4F46E5"/>
</svg>
