<?xml version="1.0" encoding="utf-8"?>
<!-- Generator: Adobe Illustrator 19.0.0, SVG Export Plug-In . SVG Version: 6.00 Build 0)  -->
<svg version="1.1" id="Calque_1" xmlns="http://www.w3.org/2000/svg" xmlns:xlink="http://www.w3.org/1999/xlink" x="0px" y="0px"
	 viewBox="0 0 618.7 462.5" style="enable-background:new 0 0 618.7 462.5;" xml:space="preserve">
<style type="text/css">
	.st0{fill:#414242;}
	.st1{fill:none;}
	.st2{fill:#AEAEAF;}
</style>
<path id="XMLID_32_" class="st0" d="M219.5,334.9V164.5c0-4.4,2.2-6.6,6.6-6.6c4.7,0,7,2.2,7,6.6v20.7
	c11.7-19.8,29.8-29.6,54.2-29.6h14.4c1.8,0,3.4,0.7,4.7,2.1c1.3,1.4,2,3.1,2,4.9c0,1.8-0.7,3.4-2,4.7c-1.3,1.3-2.9,2-4.7,2h-14.4
	c-14.6,0-27.2,5.2-38,15.6c-10.8,10.4-16.2,24.1-16.2,41v109.2c0,1.8-0.7,3.4-2.1,4.9c-1.4,1.4-3.1,2.1-4.9,2.1
	c-1.8,0-3.4-0.7-4.7-2.1C220.1,338.4,219.5,336.7,219.5,334.9z"/>
<path id="XMLID_29_" class="st0" d="M322.8,271.3v-48.8c0-18.7,6.3-34.9,19-48.6c12.7-13.7,27.8-20.5,45.4-20.5
	c17.3,0,32.3,6.7,45,20.1c12.7,13.4,19,30.1,19,50.1c0,6.8-0.7,12.2-2.2,16.4c-1.4,4.2-3.9,7.2-7.2,9c-3.4,1.8-6.4,2.9-9.2,3.3
	c-2.8,0.4-6.6,0.6-11.4,0.6h-85.7v18.3c0,17.4,5.7,31.3,17,41.7c11.3,10.4,26,15.6,44.1,15.6c8.9,0,16.4-1.4,22.4-4.1
	c6-2.7,10.5-5.4,13.6-8c3-2.6,5.2-3.9,6.7-3.9c1.7,0,3.2,0.8,4.5,2.3c1.3,1.6,2,3.1,2,4.7c0,2.6-1.9,5.7-5.8,9.2
	c-3.9,3.5-9.8,6.6-17.7,9.4c-8,2.7-16.8,4.1-26.4,4.1c-21.4,0-39-6.6-52.6-19.7C329.6,309.4,322.8,292.3,322.8,271.3z M335.5,239.3
	h81.3c8.9,0,14.8-0.9,17.5-2.7c2.8-1.8,4.2-5.7,4.2-11.7c0-14.8-4.8-28.1-14.5-40c-9.6-11.8-21.9-17.7-36.9-17.7
	c-14.5,0-26.7,5.5-36.7,16.6c-10,11.1-15,24-15,38.8V239.3z"/>
<path id="XMLID_27_" class="st0" d="M485.4,416.3V192.8c0-18.7,6.9-35,20.7-48.8c13.8-13.8,30-20.7,48.8-20.7h3.9
	c1.8,0,3.4,0.7,4.9,2c1.4,1.3,2.1,3,2.1,5.1c0,4.4-2.3,6.6-7,6.6h-3.9c-15.3,0-28.4,5.6-39.2,16.8c-10.8,11.2-16.3,24.2-16.6,39v46
	h59.7c1.8,0,3.4,0.7,4.9,2c1.4,1.3,2.1,2.9,2.1,4.7c0,1.8-0.7,3.4-2.1,4.9c-1.4,1.4-3.1,2.1-4.9,2.1h-59.7v163.8
	c0,1.8-0.7,3.4-2.1,4.7c-1.4,1.3-3.2,1.9-5.3,1.9C487.5,422.9,485.4,420.7,485.4,416.3z"/>
<g id="XMLID_133_">
	<path id="XMLID_154_" class="st1" d="M163.3,243.7L163.3,243.7v10.5l-16.2-23.1l-7.2,7.1l1.8,25.2l-18.8-39.9l0-0.1l-4,4.2
		l1.1,17.2l-11.1-14.3l-10.1,42.6L93.8,248l-15.4-9.3l-11.3,7.9l0,28.9c-0.4,12,5.1,30.4,16.1,40.8c11,10.3,23.1,15.3,37.1,15.3
		c14.4,0,26.8-5.7,37.9-17.4c11.2-11.8,16.6-24.8,16.6-39.6v-23l-11.5-9.3V243.7z"/>
	<polygon id="XMLID_153_" class="st0" points="122.9,223.4 122.9,223.4 122.9,223.4 	"/>
	<path id="XMLID_198_" class="st0" d="M166.9,175c-13.3-13.9-29.1-20.9-47-20.9c-17,0-32.2,6.3-45.2,18.8l0,0
		c-2.9,2.8-5.5,5.8-7.8,9.1V46.6c0-3.9-3.1-7-7-7s-7,3.1-7,7v288c0,3.9,3.1,7,7,7s7-3.1,7-7v-19.2c2.3,3.5,5,6.8,8.1,9.6
		c13.1,12.3,28.4,18.6,45.3,18.6c17.7,0,33.4-7.1,46.6-21.2c13.2-14,19.9-30.1,19.9-47.9v-52.3C186.8,204.7,180.1,188.8,166.9,175z
		 M174.8,251.6v23c0,14.8-5.4,27.8-16.6,39.6c-11.1,11.7-23.5,17.4-37.9,17.4c-14,0-26.1-5-37.1-15.3c-11-10.4-16.6-28.8-16.1-40.8
		l0-28.9l8.5-14.6l18.2,7.7l17-23.2l5.1,7.3l6.7-5.3l11.5,16l11.5-10.7l11.1,16l11.9-3l6.2,8V251.6z"/>
	<polygon id="XMLID_136_" class="st2" points="163,243.5 163,243.8 163.3,243.7 163.3,243.7 	"/>
	<polygon id="XMLID_135_" class="st2" points="168.6,236.7 156.8,239.7 145.7,223.7 134.2,234.5 122.7,218.5 116,223.7 110.8,216.5 
		93.8,239.7 75.6,232 67.1,246.6 78.4,238.7 93.8,248 98.9,273.2 108.9,230.6 120,244.8 118.9,227.6 122.9,223.4 122.9,223.4 
		122.9,223.4 141.7,263.3 139.9,238.1 147.1,231.1 163.3,254.2 163.3,243.7 163,243.8 163,243.5 163.3,243.7 163.3,242.3 
		174.8,251.6 174.8,244.7 	"/>
</g>
</svg>
