<svg xmlns="http://www.w3.org/2000/svg" xmlns:xlink="http://www.w3.org/1999/xlink" xmlns:lucid="lucid" width="720" height="458"><g transform="translate(-200 -160)" lucid:page-tab-id="0_0"><path d="M680 260h120v80H680z" stroke="#000" stroke-opacity="0" stroke-width="2" fill="#3d4852"/><use xlink:href="#a" transform="matrix(1,0,0,1,685,265) translate(36.525 38.6)"/><path d="M680 420h120v80H680z" stroke="#000" stroke-opacity="0" stroke-width="2" fill="#3d4852"/><use xlink:href="#b" transform="matrix(1,0,0,1,685,425) translate(28 38.6)"/><path d="M280 320h200v60H280z" stroke="#000" stroke-opacity="0" stroke-width="2" fill="#fff" fill-opacity="0"/><use xlink:href="#c" transform="matrix(1,0,0,1,285,325) translate(0 28.6)"/><path d="M280 380h200v60H280z" stroke="#000" stroke-opacity="0" stroke-width="2" fill="#fff" fill-opacity="0"/><use xlink:href="#d" transform="matrix(1,0,0,1,285,385) translate(0 28.6)"/><path d="M481 350h99v-50h81.5" stroke="#000" stroke-width="2" fill="none"/><path d="M481.03 351H480v-2h1.03z"/><path d="M676.76 300l-14.26 4.64v-9.28z" stroke="#000" stroke-width="2"/><path d="M481 410h99v50h81.5" stroke="#000" stroke-width="2" fill="none"/><path d="M481.03 411H480v-2h1.03z"/><path d="M676.76 460l-14.26 4.64v-9.28z" stroke="#000" stroke-width="2"/><path d="M760 480h40v40h-40v-40z" stroke="#fff" stroke-opacity="0" stroke-width="2" fill="#3f8624"/><path d="M792.76 501.35c-.15-.82-1.1-1.4-1.76-1.84-.2-.12-.77-.34-.82-.52 0-.14 0-.27.05-.4l.54-3.82.46-3.4c.13-1-.36-1.7-1.2-2.3-1.7-1.2-3.96-1.67-5.98-2-2.66-.42-5-.5-7.67-.23-2.43.16-4.45.64-6.7 1.6-1.12.53-2.63 1.36-2.42 2.8.5 4.33 1.15 8.65 1.74 12.98.25 2 .53 3.96.8 5.94.1.83.55 1.47 1.32 1.8 1.63.87 3.68 1.14 5.54 1.3 2.58.24 4.78.16 7.34-.32 1.53-.27 4.4-.75 4.65-2.67.3-2.38.64-4.76.94-7.13l.12-.73c.87.2 3.35.66 3.04-1.05zm-13.54-13.62c3.22 0 6.87.38 9.73 1.95.46.24 1.5.78 1.18 1.45-.3.64-1.28.96-1.87 1.2-.86.32-1.66.53-2.58.72-3.98.8-7.5.88-11.55.24-1.8-.2-3.32-.65-4.96-1.45-.38-.24-1.02-.62-.84-1.15.13-.3.33-.5.6-.67 1.27-.8 2.42-1.28 3.87-1.55 2.2-.53 4.14-.77 6.42-.75zm8.38 22.5c-.1.6-1.12.92-1.6 1.08-1.08.4-2.03.6-3.15.73-2.48.33-4.63.33-7.13 0-1.56-.13-2.87-.48-4.27-1.17-.38-.16-.6-.5-.64-.9-.53-4.25-1.1-8.47-1.7-12.7l-.62-4.6c1.28.7 2.46 1.14 3.9 1.38 1.55.32 2.85.48 4.44.58 3.06.22 5.7.08 8.74-.48 1.6-.24 2.93-.7 4.37-1.47l-1.13 8.36c-2.86-.93-5.2-1.87-7.9-3.18-.12-.05-.23-.1-.33-.16-.15-.1-.1-.06-.18-.22-.13-.32-.16-.53-.44-.8-.26-.2-.54-.27-.84-.24-.67.03-1.18.6-1.13 1.28.04.64.63 1.15 1.3 1.1.17-.03.33-.08.53-.16.2-.06.2-.06.4.05 2.74 1.34 5.12 2.33 8 3.3.42.13.42 0 .42.34-.03.27-.05.5-.1.78l-.34 2.53zm-8.23-12.64c0 .15-.2.12-.25.04-.08-.1.25-.24.25-.05zm10.5 3.73l.16-1.18c.53.32 1.43.78 1.68 1.36-.52.23-1.34-.04-1.83-.17z" stroke="#fff" stroke-opacity="0" stroke-width="2" fill="#fff"/><use xlink:href="#e" transform="matrix(1,0,0,1,730,529) translate(40.49382716049382 13.61111111111111)"/><path d="M760 320h40v40h-40v-40z" stroke="#fff" stroke-opacity="0" stroke-width="2" fill="#d86613"/><path d="M792.27 353.33h-6.58c-.22 0-.4-.1-.48-.3l-9.3-19.43H772c-.3 0-.54-.24-.54-.53v-5.87c0-.3.24-.53.53-.53h8.2c.22 0 .4.1.48.3l9.26 19.43h2.33c.3 0 .53.24.53.53v5.87c0 .3-.23.53-.53.53zm-6.23-1.06h5.7v-4.8h-2.14c-.2 0-.38-.1-.47-.3l-9.26-19.44h-7.34v4.8h3.73c.22 0 .4.1.5.3z" stroke="#fff" stroke-opacity="0" stroke-width="2" fill="#fff"/><path d="M774.65 353.33h-6.93c-.18 0-.35-.1-.46-.24-.1-.2-.1-.38-.02-.55l7.26-15.15c.08-.2.27-.3.47-.3.2 0 .4.1.48.3l3.47 7.13c.1.15.1.3 0 .47l-3.78 8c-.08.2-.26.33-.5.33zm-6.08-1.07h5.75l3.53-7.45-2.87-5.95z" stroke="#fff" stroke-opacity="0" stroke-width="2" fill="#fff"/><use xlink:href="#f" transform="matrix(1,0,0,1,730,369) translate(21.935185185185183 13.61111111111111)"/><path d="M660 320h40v40h-40v-40z" stroke="#fff" stroke-opacity="0" fill="#693cc5"/><path d="M685.87 352.8c-.12 0-.22-.04-.3-.1-.16-.1-.24-.25-.24-.43v-24.54c0-.18.1-.36.26-.46.15-.1.35-.1.52-.03l6.94 3.4c.18.1.3.27.3.47v18.86c0 .26-.14.46-.37.54l-6.94 2.3h-.2zm.54-24.2v22.93l5.87-1.95v-18.14zM674.13 352.8h-.17l-6.93-2.3c-.23-.08-.37-.3-.36-.54V331.1c0-.2.1-.37.3-.45l6.93-3.4c.17-.08.37-.08.53.02.16.1.25.28.25.46v24.54c0 .18-.08.33-.22.43-.1.08-.2.1-.33.1zm-6.4-3.2l5.87 1.95V328.6l-5.87 2.87z" stroke="#fff" stroke-opacity="0" fill="#fff"/><path d="M685.33 334.67h-1.6v-1.07h1.6zm-3.2 0h-1.6v-1.07h1.6zm-3.2 0h-1.6v-1.07h1.6zm-3.2 0h-1.6v-1.07h1.6zM685.33 346.4h-1.6v-1.07h1.6zm-3.2 0h-1.6v-1.07h1.6zm-3.2 0h-1.6v-1.07h1.6zm-3.2 0h-1.6v-1.07h1.6zM677.66 341.83l-2-1.7c-.23-.2-.26-.54-.07-.76 0-.02.03-.04.05-.06l2-1.7.7.8-1.53 1.33 1.53 1.3zM682.35 341.83l-.7-.8 1.53-1.3-1.53-1.3.7-.83 2 1.7c.22.2.25.54.06.76 0 .02-.03.04-.05.06z" stroke="#fff" stroke-opacity="0" fill="#fff"/><path d="M678.43 342.96l2.12-6.27 1 .33-2.1 6.27-1.02-.34z" stroke="#fff" stroke-opacity="0" stroke-width=".32" fill="#fff"/><use xlink:href="#g" transform="matrix(1,0,0,1,630,369) translate(4.651234567901234 13.61111111111111)"/><use xlink:href="#h" transform="matrix(1,0,0,1,630,369) translate(34.03395061728395 13.61111111111111)"/><path d="M240 200h640v380H240z" fill="#fff" fill-opacity="0"/><path d="M252 200h8m8 0h8m8 0h8m8 0h8m8 0h8m8 0h8m8 0h8m8 0h8m8 0h8m8 0h8m8 0h8m8 0h8m8 0h8m8 0h8m8 0h8m8 0h8m8 0h8m8 0h8m8 0h8m8 0h8m8 0h8m8 0h8m8 0h8m8 0h8m8 0h8m8 0h8m8 0h8m8 0h8m8 0h8m8 0h8m8 0h8m8 0h8m8 0h8m8 0h8m8 0h8m8 0h8m8 0h8m8 0h8m8 0h8m8 0h4v3.96m0 7.9v7.93m0 7.9v7.93m0 7.9v7.93m0 7.92v7.9m0 7.93v7.93m0 7.9v7.93m0 7.92v7.9m0 7.93v7.93m0 7.9v7.93m0 7.92v7.9m0 7.93v7.93m0 7.9v7.93m0 7.92v7.9m0 7.93v7.93m0 7.9v7.93m0 7.92v7.9m0 7.93v7.93m0 7.9v7.93m0 7.92v7.9m0 7.93v7.93m0 7.9v7.93m0 7.92v7.9m0 7.93v7.93m0 7.9V580h-4m-8 0h-8m-8 0h-8m-8 0h-8m-8 0h-8m-8 0h-8m-8 0h-8m-8 0h-8m-8 0h-8m-8 0h-8m-8 0h-8m-8 0h-8m-8 0h-8m-8 0h-8m-8 0h-8m-8 0h-8m-8 0h-8m-8 0h-8m-8 0h-8m-8 0h-8m-8 0h-8m-8 0h-8m-8 0h-8m-8 0h-8m-8 0h-8m-8 0h-8m-8 0h-8m-8 0h-8m-8 0h-8m-8 0h-8m-8 0h-8m-8 0h-8m-8 0h-8m-8 0h-8m-8 0h-8m-8 0h-8m-8 0h-8m-8 0h-8m-8 0h-8m-8 0h-8m-8 0h-4v-3.96m0-7.92v-7.9m0-7.93v-7.93m0-7.9v-7.93m0-7.92v-7.9m0-7.93v-7.93m0-7.9v-7.93m0-7.92v-7.9m0-7.93v-7.93m0-7.9v-7.93m0-7.92v-7.9m0-7.93v-7.93m0-7.9v-7.93m0-7.92v-7.9m0-7.93v-7.93m0-7.9v-7.93m0-7.92v-7.9m0-7.93v-7.93m0-7.9v-7.93m0-7.92v-7.9m0-7.93v-7.93m0-7.9v-7.93m0-7.92v-7.9m0-7.93v-7.93m0-7.9V200h4" stroke="#5a6c86" stroke-width="2" fill="none"/><use xlink:href="#i" transform="matrix(1,0,0,1,240,220) translate(247.075 14.4)"/><use xlink:href="#j" transform="matrix(1,0,0,1,240,220) translate(325.025 14.4)"/><path d="M240 620h640v380H240z" fill="#fff" fill-opacity="0"/><path d="M252 620h8m8 0h8m8 0h8m8 0h8m8 0h8m8 0h8m8 0h8m8 0h8m8 0h8m8 0h8m8 0h8m8 0h8m8 0h8m8 0h8m8 0h8m8 0h8m8 0h8m8 0h8m8 0h8m8 0h8m8 0h8m8 0h8m8 0h8m8 0h8m8 0h8m8 0h8m8 0h8m8 0h8m8 0h8m8 0h8m8 0h8m8 0h8m8 0h8m8 0h8m8 0h8m8 0h8m8 0h8m8 0h8m8 0h8m8 0h4v3.96m0 7.9v7.93m0 7.9v7.92m0 7.92v7.92m0 7.92v7.9m0 7.93v7.93m0 7.9v7.93m0 7.92v7.9m0 7.93v7.93m0 7.9v7.93m0 7.92v7.9m0 7.93v7.93m0 7.9v7.93m0 7.92v7.9m0 7.93v7.93m0 7.9v7.93m0 7.92v7.9m0 7.93v7.93m0 7.9v7.93m0 7.92v7.9m0 7.93v7.93m0 7.9v7.93m0 7.92v7.9m0 7.93v7.93m0 7.9v3.97h-4m-8 0h-8m-8 0h-8m-8 0h-8m-8 0h-8m-8 0h-8m-8 0h-8m-8 0h-8m-8 0h-8m-8 0h-8m-8 0h-8m-8 0h-8m-8 0h-8m-8 0h-8m-8 0h-8m-8 0h-8m-8 0h-8m-8 0h-8m-8 0h-8m-8 0h-8m-8 0h-8m-8 0h-8m-8 0h-8m-8 0h-8m-8 0h-8m-8 0h-8m-8 0h-8m-8 0h-8m-8 0h-8m-8 0h-8m-8 0h-8m-8 0h-8m-8 0h-8m-8 0h-8m-8 0h-8m-8 0h-8m-8 0h-8m-8 0h-8m-8 0h-8m-8 0h-8m-8 0h-4v-3.96m0-7.92v-7.9m0-7.93v-7.93m0-7.9v-7.93m0-7.92v-7.9m0-7.93v-7.93m0-7.9v-7.93m0-7.92v-7.9m0-7.93v-7.93m0-7.9v-7.93m0-7.92v-7.9m0-7.93v-7.93m0-7.9v-7.93m0-7.92v-7.9m0-7.93v-7.93m0-7.9v-7.93m0-7.92v-7.9m0-7.93v-7.93m0-7.9v-7.93m0-7.92v-7.9m0-7.93v-7.93m0-7.9v-7.93m0-7.92v-7.9m0-7.93v-7.93m0-7.9V620h4" stroke="#5a6c86" stroke-width="2" fill="none"/><g><use xlink:href="#k" transform="matrix(1,0,0,1,240,640) translate(225.125 14.4)"/><use xlink:href="#l" transform="matrix(1,0,0,1,240,640) translate(280.025 14.4)"/><use xlink:href="#m" transform="matrix(1,0,0,1,240,640) translate(327.025 14.4)"/></g><defs><path fill="#fff" d="M30-248c87 1 191-15 191 75 0 78-77 80-158 76V0H30v-248zm33 125c57 0 124 11 124-50 0-59-68-47-124-48v98" id="n"/><path fill="#fff" d="M197 0v-115H63V0H30v-248h33v105h134v-105h34V0h-34" id="o"/><g id="a"><use transform="matrix(0.05,0,0,0.05,0,0)" xlink:href="#n"/><use transform="matrix(0.05,0,0,0.05,12,0)" xlink:href="#o"/><use transform="matrix(0.05,0,0,0.05,24.950000000000003,0)" xlink:href="#n"/></g><path fill="#fff" d="M205 0l-28-72H64L36 0H1l101-248h38L239 0h-34zm-38-99l-47-123c-12 45-31 82-46 123h93" id="p"/><path fill="#fff" d="M135-143c-3-34-86-38-87 0 15 53 115 12 119 90S17 21 10-45l28-5c4 36 97 45 98 0-10-56-113-15-118-90-4-57 82-63 122-42 12 7 21 19 24 35" id="q"/><path fill="#fff" d="M100-194c63 0 86 42 84 106H49c0 40 14 67 53 68 26 1 43-12 49-29l28 8c-11 28-37 45-77 45C44 4 14-33 15-96c1-61 26-98 85-98zm52 81c6-60-76-77-97-28-3 7-6 17-6 28h103" id="r"/><path fill="#fff" d="M59-47c-2 24 18 29 38 22v24C64 9 27 4 27-40v-127H5v-23h24l9-43h21v43h35v23H59v120" id="s"/><g id="b"><use transform="matrix(0.05,0,0,0.05,0,0)" xlink:href="#p"/><use transform="matrix(0.05,0,0,0.05,12,0)" xlink:href="#q"/><use transform="matrix(0.05,0,0,0.05,21,0)" xlink:href="#q"/><use transform="matrix(0.05,0,0,0.05,30,0)" xlink:href="#r"/><use transform="matrix(0.05,0,0,0.05,40,0)" xlink:href="#s"/><use transform="matrix(0.05,0,0,0.05,45,0)" xlink:href="#q"/></g><path d="M206 0h-36l-40-164L89 0H53L-1-190h32L70-26l43-164h34l41 164 42-164h31" id="t"/><path d="M100-194c63 0 86 42 84 106H49c0 40 14 67 53 68 26 1 43-12 49-29l28 8c-11 28-37 45-77 45C44 4 14-33 15-96c1-61 26-98 85-98zm52 81c6-60-76-77-97-28-3 7-6 17-6 28h103" id="u"/><path d="M115-194c53 0 69 39 70 98 0 66-23 100-70 100C84 3 66-7 56-30L54 0H23l1-261h32v101c10-23 28-34 59-34zm-8 174c40 0 45-34 45-75 0-40-5-75-45-74-42 0-51 32-51 76 0 43 10 73 51 73" id="v"/><path d="M135-143c-3-34-86-38-87 0 15 53 115 12 119 90S17 21 10-45l28-5c4 36 97 45 98 0-10-56-113-15-118-90-4-57 82-63 122-42 12 7 21 19 24 35" id="w"/><path d="M24-231v-30h32v30H24zM24 0v-190h32V0H24" id="x"/><path d="M59-47c-2 24 18 29 38 22v24C64 9 27 4 27-40v-127H5v-23h24l9-43h21v43h35v23H59v120" id="y"/><path d="M33 0v-38h34V0H33" id="z"/><path d="M96-169c-40 0-48 33-48 73s9 75 48 75c24 0 41-14 43-38l32 2c-6 37-31 61-74 61-59 0-76-41-82-99-10-93 101-131 147-64 4 7 5 14 7 22l-32 3c-4-21-16-35-41-35" id="A"/><path d="M100-194c62-1 85 37 85 99 1 63-27 99-86 99S16-35 15-95c0-66 28-99 85-99zM99-20c44 1 53-31 53-75 0-43-8-75-51-75s-53 32-53 75 10 74 51 75" id="B"/><path d="M210-169c-67 3-38 105-44 169h-31v-121c0-29-5-50-35-48C34-165 62-65 56 0H25l-1-190h30c1 10-1 24 2 32 10-44 99-50 107 0 11-21 27-35 58-36 85-2 47 119 55 194h-31v-121c0-29-5-49-35-48" id="C"/><path d="M0 4l72-265h28L28 4H0" id="D"/><path d="M80-196l47-18 7 23-49 13 32 44-20 13-27-46-27 45-21-12 33-44-49-13 8-23 47 19-2-53h23" id="E"/><g id="c"><use transform="matrix(0.05,0,0,0.05,0,0)" xlink:href="#t"/><use transform="matrix(0.05,0,0,0.05,12.950000000000001,0)" xlink:href="#u"/><use transform="matrix(0.05,0,0,0.05,22.950000000000003,0)" xlink:href="#v"/><use transform="matrix(0.05,0,0,0.05,32.95,0)" xlink:href="#w"/><use transform="matrix(0.05,0,0,0.05,41.95,0)" xlink:href="#x"/><use transform="matrix(0.05,0,0,0.05,45.900000000000006,0)" xlink:href="#y"/><use transform="matrix(0.05,0,0,0.05,50.900000000000006,0)" xlink:href="#u"/><use transform="matrix(0.05,0,0,0.05,60.900000000000006,0)" xlink:href="#z"/><use transform="matrix(0.05,0,0,0.05,65.9,0)" xlink:href="#A"/><use transform="matrix(0.05,0,0,0.05,74.9,0)" xlink:href="#B"/><use transform="matrix(0.05,0,0,0.05,84.9,0)" xlink:href="#C"/><use transform="matrix(0.05,0,0,0.05,99.85000000000001,0)" xlink:href="#D"/><use transform="matrix(0.05,0,0,0.05,104.85000000000001,0)" xlink:href="#E"/></g><path d="M141-36C126-15 110 5 73 4 37 3 15-17 15-53c-1-64 63-63 125-63 3-35-9-54-41-54-24 1-41 7-42 31l-33-3c5-37 33-52 76-52 45 0 72 20 72 64v82c-1 20 7 32 28 27v20c-31 9-61-2-59-35zM48-53c0 20 12 33 32 33 41-3 63-29 60-74-43 2-92-5-92 41" id="F"/><g id="d"><use transform="matrix(0.05,0,0,0.05,0,0)" xlink:href="#F"/><use transform="matrix(0.05,0,0,0.05,10,0)" xlink:href="#w"/><use transform="matrix(0.05,0,0,0.05,19,0)" xlink:href="#w"/><use transform="matrix(0.05,0,0,0.05,28,0)" xlink:href="#u"/><use transform="matrix(0.05,0,0,0.05,38,0)" xlink:href="#y"/><use transform="matrix(0.05,0,0,0.05,43,0)" xlink:href="#w"/><use transform="matrix(0.05,0,0,0.05,52,0)" xlink:href="#z"/><use transform="matrix(0.05,0,0,0.05,57,0)" xlink:href="#t"/><use transform="matrix(0.05,0,0,0.05,69.95,0)" xlink:href="#u"/><use transform="matrix(0.05,0,0,0.05,79.95,0)" xlink:href="#v"/><use transform="matrix(0.05,0,0,0.05,89.95,0)" xlink:href="#w"/><use transform="matrix(0.05,0,0,0.05,98.95,0)" xlink:href="#x"/><use transform="matrix(0.05,0,0,0.05,102.9,0)" xlink:href="#y"/><use transform="matrix(0.05,0,0,0.05,107.9,0)" xlink:href="#u"/><use transform="matrix(0.05,0,0,0.05,117.9,0)" xlink:href="#z"/><use transform="matrix(0.05,0,0,0.05,122.9,0)" xlink:href="#A"/><use transform="matrix(0.05,0,0,0.05,131.9,0)" xlink:href="#B"/><use transform="matrix(0.05,0,0,0.05,141.9,0)" xlink:href="#C"/><use transform="matrix(0.05,0,0,0.05,156.85,0)" xlink:href="#D"/><use transform="matrix(0.05,0,0,0.05,161.85,0)" xlink:href="#E"/></g><path d="M185-189c-5-48-123-54-124 2 14 75 158 14 163 119 3 78-121 87-175 55-17-10-28-26-33-46l33-7c5 56 141 63 141-1 0-78-155-14-162-118-5-82 145-84 179-34 5 7 8 16 11 25" id="G"/><path d="M126-127c33 6 58 20 58 59 0 88-139 92-164 29-3-8-5-16-6-25l32-3c6 27 21 44 54 44 32 0 52-15 52-46 0-38-36-46-79-43v-28c39 1 72-4 72-42 0-27-17-43-46-43-28 0-47 15-49 41l-32-3c6-42 35-63 81-64 48-1 79 21 79 65 0 36-21 52-52 59" id="H"/><g id="e"><use transform="matrix(0.04320987654320988,0,0,0.04320987654320988,0,0)" xlink:href="#G"/><use transform="matrix(0.04320987654320988,0,0,0.04320987654320988,10.370370370370372,0)" xlink:href="#H"/></g><path d="M30 0v-248h33v221h125V0H30" id="I"/><path d="M85-194c31 0 48 13 60 33l-1-100h32l1 261h-30c-2-10 0-23-3-31C134-8 116 4 85 4 32 4 16-35 15-94c0-66 23-100 70-100zm9 24c-40 0-46 34-46 75 0 40 6 74 45 74 42 0 51-32 51-76 0-42-9-74-50-73" id="J"/><g id="f"><use transform="matrix(0.04320987654320988,0,0,0.04320987654320988,0,0)" xlink:href="#I"/><use transform="matrix(0.04320987654320988,0,0,0.04320987654320988,8.641975308641976,0)" xlink:href="#F"/><use transform="matrix(0.04320987654320988,0,0,0.04320987654320988,17.283950617283953,0)" xlink:href="#C"/><use transform="matrix(0.04320987654320988,0,0,0.04320987654320988,30.203703703703713,0)" xlink:href="#v"/><use transform="matrix(0.04320987654320988,0,0,0.04320987654320988,38.845679012345684,0)" xlink:href="#J"/><use transform="matrix(0.04320987654320988,0,0,0.04320987654320988,47.48765432098766,0)" xlink:href="#F"/></g><path d="M205 0l-28-72H64L36 0H1l101-248h38L239 0h-34zm-38-99l-47-123c-12 45-31 82-46 123h93" id="K"/><path d="M30-248c87 1 191-15 191 75 0 78-77 80-158 76V0H30v-248zm33 125c57 0 124 11 124-50 0-59-68-47-124-48v98" id="L"/><path d="M33 0v-248h34V0H33" id="M"/><g id="g"><use transform="matrix(0.04320987654320988,0,0,0.04320987654320988,0,0)" xlink:href="#K"/><use transform="matrix(0.04320987654320988,0,0,0.04320987654320988,10.370370370370372,0)" xlink:href="#L"/><use transform="matrix(0.04320987654320988,0,0,0.04320987654320988,20.740740740740744,0)" xlink:href="#M"/></g><path d="M143 4C61 4 22-44 18-125c-5-107 100-154 193-111 17 8 29 25 37 43l-32 9c-13-25-37-40-76-40-61 0-88 39-88 99 0 61 29 100 91 101 35 0 62-11 79-27v-45h-74v-28h105v86C228-13 192 4 143 4" id="N"/><path d="M179-190L93 31C79 59 56 82 12 73V49c39 6 53-20 64-50L1-190h34L92-34l54-156h33" id="O"/><g id="h"><use transform="matrix(0.04320987654320988,0,0,0.04320987654320988,0,0)" xlink:href="#N"/><use transform="matrix(0.04320987654320988,0,0,0.04320987654320988,12.098765432098766,0)" xlink:href="#F"/><use transform="matrix(0.04320987654320988,0,0,0.04320987654320988,20.74074074074074,0)" xlink:href="#y"/><use transform="matrix(0.04320987654320988,0,0,0.04320987654320988,25.061728395061728,0)" xlink:href="#u"/><use transform="matrix(0.04320987654320988,0,0,0.04320987654320988,33.7037037037037,0)" xlink:href="#t"/><use transform="matrix(0.04320987654320988,0,0,0.04320987654320988,44.89506172839506,0)" xlink:href="#F"/><use transform="matrix(0.04320987654320988,0,0,0.04320987654320988,53.537037037037045,0)" xlink:href="#O"/></g><path fill="#5a6c86" d="M185-189c-5-48-123-54-124 2 14 75 158 14 163 119 3 78-121 87-175 55-17-10-28-26-33-46l33-7c5 56 141 63 141-1 0-78-155-14-162-118-5-82 145-84 179-34 5 7 8 16 11 25" id="P"/><path fill="#5a6c86" d="M100-194c63 0 86 42 84 106H49c0 40 14 67 53 68 26 1 43-12 49-29l28 8c-11 28-37 45-77 45C44 4 14-33 15-96c1-61 26-98 85-98zm52 81c6-60-76-77-97-28-3 7-6 17-6 28h103" id="Q"/><path fill="#5a6c86" d="M115-194c55 1 70 41 70 98S169 2 115 4C84 4 66-9 55-30l1 105H24l-1-265h31l2 30c10-21 28-34 59-34zm-8 174c40 0 45-34 45-75s-6-73-45-74c-42 0-51 32-51 76 0 43 10 73 51 73" id="R"/><path fill="#5a6c86" d="M141-36C126-15 110 5 73 4 37 3 15-17 15-53c-1-64 63-63 125-63 3-35-9-54-41-54-24 1-41 7-42 31l-33-3c5-37 33-52 76-52 45 0 72 20 72 64v82c-1 20 7 32 28 27v20c-31 9-61-2-59-35zM48-53c0 20 12 33 32 33 41-3 63-29 60-74-43 2-92-5-92 41" id="S"/><path fill="#5a6c86" d="M114-163C36-179 61-72 57 0H25l-1-190h30c1 12-1 29 2 39 6-27 23-49 58-41v29" id="T"/><path fill="#5a6c86" d="M59-47c-2 24 18 29 38 22v24C64 9 27 4 27-40v-127H5v-23h24l9-43h21v43h35v23H59v120" id="U"/><g id="i"><use transform="matrix(0.05,0,0,0.05,0,0)" xlink:href="#P"/><use transform="matrix(0.05,0,0,0.05,12,0)" xlink:href="#Q"/><use transform="matrix(0.05,0,0,0.05,22,0)" xlink:href="#R"/><use transform="matrix(0.05,0,0,0.05,32,0)" xlink:href="#S"/><use transform="matrix(0.05,0,0,0.05,42,0)" xlink:href="#T"/><use transform="matrix(0.05,0,0,0.05,47.95,0)" xlink:href="#S"/><use transform="matrix(0.05,0,0,0.05,57.95,0)" xlink:href="#U"/><use transform="matrix(0.05,0,0,0.05,62.95,0)" xlink:href="#Q"/></g><path fill="#5a6c86" d="M85-194c31 0 48 13 60 33l-1-100h32l1 261h-30c-2-10 0-23-3-31C134-8 116 4 85 4 32 4 16-35 15-94c0-66 23-100 70-100zm9 24c-40 0-46 34-46 75 0 40 6 74 45 74 42 0 51-32 51-76 0-42-9-74-50-73" id="V"/><path fill="#5a6c86" d="M100-194c62-1 85 37 85 99 1 63-27 99-86 99S16-35 15-95c0-66 28-99 85-99zM99-20c44 1 53-31 53-75 0-43-8-75-51-75s-53 32-53 75 10 74 51 75" id="W"/><path fill="#5a6c86" d="M210-169c-67 3-38 105-44 169h-31v-121c0-29-5-50-35-48C34-165 62-65 56 0H25l-1-190h30c1 10-1 24 2 32 10-44 99-50 107 0 11-21 27-35 58-36 85-2 47 119 55 194h-31v-121c0-29-5-49-35-48" id="X"/><path fill="#5a6c86" d="M24-231v-30h32v30H24zM24 0v-190h32V0H24" id="Y"/><path fill="#5a6c86" d="M117-194c89-4 53 116 60 194h-32v-121c0-31-8-49-39-48C34-167 62-67 57 0H25l-1-190h30c1 10-1 24 2 32 11-22 29-35 61-36" id="Z"/><path fill="#5a6c86" d="M135-143c-3-34-86-38-87 0 15 53 115 12 119 90S17 21 10-45l28-5c4 36 97 45 98 0-10-56-113-15-118-90-4-57 82-63 122-42 12 7 21 19 24 35" id="aa"/><g id="j"><use transform="matrix(0.05,0,0,0.05,0,0)" xlink:href="#V"/><use transform="matrix(0.05,0,0,0.05,10,0)" xlink:href="#W"/><use transform="matrix(0.05,0,0,0.05,20,0)" xlink:href="#X"/><use transform="matrix(0.05,0,0,0.05,34.95,0)" xlink:href="#S"/><use transform="matrix(0.05,0,0,0.05,44.95,0)" xlink:href="#Y"/><use transform="matrix(0.05,0,0,0.05,48.900000000000006,0)" xlink:href="#Z"/><use transform="matrix(0.05,0,0,0.05,58.900000000000006,0)" xlink:href="#aa"/></g><path fill="#5a6c86" d="M177-190C167-65 218 103 67 71c-23-6-38-20-44-43l32-5c15 47 100 32 89-28v-30C133-14 115 1 83 1 29 1 15-40 15-95c0-56 16-97 71-98 29-1 48 16 59 35 1-10 0-23 2-32h30zM94-22c36 0 50-32 50-73 0-42-14-75-50-75-39 0-46 34-46 75s6 73 46 73" id="ab"/><path fill="#5a6c86" d="M24 0v-261h32V0H24" id="ac"/><g id="k"><use transform="matrix(0.05,0,0,0.05,0,0)" xlink:href="#P"/><use transform="matrix(0.05,0,0,0.05,12,0)" xlink:href="#Y"/><use transform="matrix(0.05,0,0,0.05,15.949999999999998,0)" xlink:href="#Z"/><use transform="matrix(0.05,0,0,0.05,25.950000000000003,0)" xlink:href="#ab"/><use transform="matrix(0.05,0,0,0.05,35.95,0)" xlink:href="#ac"/><use transform="matrix(0.05,0,0,0.05,39.900000000000006,0)" xlink:href="#Q"/></g><path fill="#5a6c86" d="M30-248c87 1 191-15 191 75 0 78-77 80-158 76V0H30v-248zm33 125c57 0 124 11 124-50 0-59-68-47-124-48v98" id="ad"/><g id="l"><use transform="matrix(0.05,0,0,0.05,0,0)" xlink:href="#ad"/><use transform="matrix(0.05,0,0,0.05,12,0)" xlink:href="#S"/><use transform="matrix(0.05,0,0,0.05,22,0)" xlink:href="#ab"/><use transform="matrix(0.05,0,0,0.05,32,0)" xlink:href="#Q"/></g><path fill="#5a6c86" d="M205 0l-28-72H64L36 0H1l101-248h38L239 0h-34zm-38-99l-47-123c-12 45-31 82-46 123h93" id="ae"/><path fill="#5a6c86" d="M96-169c-40 0-48 33-48 73s9 75 48 75c24 0 41-14 43-38l32 2c-6 37-31 61-74 61-59 0-76-41-82-99-10-93 101-131 147-64 4 7 5 14 7 22l-32 3c-4-21-16-35-41-35" id="af"/><g id="m"><use transform="matrix(0.05,0,0,0.05,0,0)" xlink:href="#ae"/><use transform="matrix(0.05,0,0,0.05,12,0)" xlink:href="#R"/><use transform="matrix(0.05,0,0,0.05,22,0)" xlink:href="#R"/><use transform="matrix(0.05,0,0,0.05,32,0)" xlink:href="#ac"/><use transform="matrix(0.05,0,0,0.05,35.95,0)" xlink:href="#Y"/><use transform="matrix(0.05,0,0,0.05,39.900000000000006,0)" xlink:href="#af"/><use transform="matrix(0.05,0,0,0.05,48.900000000000006,0)" xlink:href="#S"/><use transform="matrix(0.05,0,0,0.05,58.900000000000006,0)" xlink:href="#U"/><use transform="matrix(0.05,0,0,0.05,63.900000000000006,0)" xlink:href="#Y"/><use transform="matrix(0.05,0,0,0.05,67.85000000000001,0)" xlink:href="#W"/><use transform="matrix(0.05,0,0,0.05,77.85000000000001,0)" xlink:href="#Z"/></g></defs></g></svg>