<svg width="310" height="310" viewBox="0 0 310 310" fill="none" xmlns="http://www.w3.org/2000/svg">
<g clip-path="url(#clip0_104_2)">
<path d="M155 310C240.604 310 310 240.604 310 155C310 69.3959 240.604 0 155 0C69.3959 0 0 69.3959 0 155C0 240.604 69.3959 310 155 310Z" fill="#3AA9E9"/>
<path d="M144.925 86.025C144.925 97.1535 135.904 106.175 124.775 106.175C113.646 106.175 104.625 97.1535 104.625 86.025C104.625 74.8965 113.646 65.875 124.775 65.875C135.904 65.875 144.925 74.8965 144.925 86.025ZM124.775 126.325C113.646 126.325 104.625 135.346 104.625 146.475C104.625 157.604 113.646 166.625 124.775 166.625C135.904 166.625 144.925 157.604 144.925 146.475C144.925 135.346 135.904 126.325 124.775 126.325ZM124.775 186.775C113.646 186.775 104.625 195.796 104.625 206.925C104.625 218.054 113.646 227.075 124.775 227.075C135.904 227.075 144.925 218.054 144.925 206.925C144.925 195.796 135.904 186.775 124.775 186.775ZM185.225 126.325C174.096 126.325 165.075 135.346 165.075 146.475C165.075 157.604 174.096 166.625 185.225 166.625C196.354 166.625 205.375 157.604 205.375 146.475C205.375 135.346 196.354 126.325 185.225 126.325ZM185.225 186.775C174.096 186.775 165.075 195.796 165.075 206.925C165.075 218.054 174.096 227.075 185.225 227.075C196.354 227.075 205.375 218.054 205.375 206.925C205.375 195.796 196.354 186.775 185.225 186.775Z" fill="white"/>
</g>
<defs>
<clipPath id="clip0_104_2">
<rect width="310" height="310" fill="white"/>
</clipPath>
</defs>
</svg>
