<svg width="500" height="374" viewBox="0 0 500 374" fill="none" xmlns="http://www.w3.org/2000/svg">
<path d="M102.389 266.365C93.8806 266.365 86.1118 264.329 79.0829 260.258C72.2389 256.001 67.3372 251.004 64.3777 245.267V258.87C64.3777 260.35 63.7303 261.738 62.4355 263.034C61.1407 264.144 59.5684 264.699 57.7187 264.699C55.869 264.699 54.2967 264.144 53.002 263.034C51.7072 261.738 51.0598 260.35 51.0598 258.87V57.8813C51.0598 53.9948 53.2794 52.0515 57.7187 52.0515C59.7534 52.0515 61.4181 52.6068 62.7129 53.7172C64.0077 54.8276 64.6551 56.2157 64.6551 57.8813V153.101C67.7996 147.549 72.4239 142.644 78.528 138.388C84.817 134.131 92.5858 132.003 101.834 132.003C110.898 132.003 119.129 134.316 126.528 138.943C134.112 143.385 140.123 149.492 144.563 157.265C149.187 165.038 151.499 173.551 151.499 182.805V215.008C151.499 223.891 149.187 232.312 144.563 240.27C140.123 248.043 134.112 254.335 126.528 259.147C119.129 263.959 111.083 266.365 102.389 266.365ZM101.002 253.595C107.661 253.595 113.765 251.744 119.314 248.043C125.048 244.342 129.58 239.53 132.909 233.607C136.239 227.685 137.904 221.485 137.904 215.008V182.805C137.904 176.513 136.239 170.498 132.909 164.761C129.58 158.838 125.048 154.026 119.314 150.325C113.765 146.623 107.568 144.773 100.724 144.773C94.8054 144.773 89.0713 146.346 83.5222 149.492C77.9731 152.453 73.4413 156.802 69.9268 162.54C66.4124 168.092 64.6551 174.847 64.6551 182.805V224.446C64.6551 227.407 66.2274 231.201 69.3719 235.828C72.7014 240.455 77.0482 244.619 82.4124 248.321C87.9615 251.837 94.158 253.595 101.002 253.595Z" fill="white"/>
<path d="M189.396 264.699C187.546 264.699 185.974 264.144 184.679 263.034C183.384 261.738 182.737 260.35 182.737 258.87V139.221C182.737 135.519 184.956 133.668 189.396 133.668C191.245 133.668 192.818 134.224 194.113 135.334C195.407 136.259 196.055 137.555 196.055 139.221V153.379C199.199 147.826 203.916 142.922 210.205 138.665C216.679 134.224 224.633 132.003 234.066 132.003H244.055C245.534 132.003 246.829 132.65 247.939 133.946C249.234 135.056 249.881 136.537 249.881 138.388C249.881 140.053 249.234 141.534 247.939 142.829C246.829 144.125 245.534 144.773 244.055 144.773H234.066C227.777 144.773 221.766 146.438 216.032 149.77C210.297 152.916 205.581 157.543 201.881 163.65C198.182 169.572 196.332 176.79 196.332 185.304V258.87C196.332 260.35 195.685 261.738 194.39 263.034C193.095 264.144 191.43 264.699 189.396 264.699Z" fill="white"/>
<path d="M317.288 266.365C306.005 266.365 296.016 264.237 287.323 259.98C278.814 255.723 272.063 249.801 267.068 242.213C262.074 234.44 259.577 225.372 259.577 215.008V181.972C259.577 172.904 261.889 164.575 266.514 156.987C271.138 149.4 277.334 143.385 285.103 138.943C292.872 134.316 301.381 132.003 310.629 132.003C319.508 132.003 327.739 134.131 335.323 138.388C343.092 142.644 349.288 148.567 353.912 156.155C358.722 163.743 361.126 172.441 361.126 182.25C361.126 189.098 359.924 194.002 357.519 196.963C355.3 199.924 352.433 201.775 348.918 202.515C345.404 203.256 341.612 203.626 337.542 203.626H273.172V215.285C273.172 227.315 277.334 236.754 285.658 243.601C294.167 250.449 304.895 253.873 317.843 253.873C325.427 253.873 331.253 252.947 335.323 251.097C339.392 249.246 342.537 247.395 344.756 245.545C346.976 243.694 349.011 242.768 350.86 242.768C352.525 242.768 354.005 243.509 355.3 244.989C356.594 246.47 357.242 247.95 357.242 249.431C357.242 251.282 355.577 253.595 352.248 256.371C349.103 258.962 344.571 261.276 338.652 263.311C332.733 265.347 325.612 266.365 317.288 266.365ZM273.172 192.244H332.271C338.56 192.244 342.722 191.596 344.756 190.3C346.791 189.005 347.808 186.321 347.808 182.25C347.808 175.957 346.236 169.943 343.092 164.205C339.947 158.283 335.6 153.471 330.051 149.77C324.502 146.068 318.028 144.217 310.629 144.217C303.6 144.217 297.219 145.883 291.485 149.214C285.935 152.546 281.496 156.987 278.167 162.54C274.837 168.092 273.172 174.199 273.172 180.862V192.244Z" fill="white"/>
<path d="M396.133 322.639C394.469 322.639 392.989 322.176 391.694 321.251C390.399 320.14 389.752 318.752 389.752 317.086V160.238C389.752 151.169 391.972 142.841 396.411 135.253C401.035 127.665 407.047 121.558 414.446 116.931C422.029 112.304 430.261 109.991 439.139 109.991H443.856C445.706 109.991 447.186 110.638 448.295 111.934C449.59 113.229 450.238 114.803 450.238 116.653C450.238 118.319 449.59 119.8 448.295 121.095C447.186 122.205 445.706 122.761 443.856 122.761H440.249C433.22 122.761 426.931 124.519 421.382 128.035C416.018 131.552 411.671 136.086 408.342 141.638C405.197 147.19 403.532 153.205 403.347 159.683V191.608H444.688C446.168 191.608 447.463 192.255 448.573 193.551C449.683 194.661 450.238 195.957 450.238 197.437C450.238 199.103 449.683 200.584 448.573 201.879C447.463 202.989 446.168 203.545 444.688 203.545H403.347V317.086C403.347 318.752 402.607 320.14 401.128 321.251C399.833 322.176 398.168 322.639 396.133 322.639Z" fill="white"/>
</svg>
