<?xml version="1.0" encoding="utf-8"?>
<!-- Generator: Adobe Illustrator 25.0.1, SVG Export Plug-In . SVG Version: 6.00 Build 0)  -->
<svg version="1.1" id="Ebene_1" xmlns="http://www.w3.org/2000/svg" xmlns:xlink="http://www.w3.org/1999/xlink" x="0px" y="0px"
	 viewBox="0 0 467.9 141.7" style="enable-background:new 0 0 467.9 141.7;" xml:space="preserve">
<style type="text/css">
	.st0{opacity:0.75;fill:#2C475E;}
	.st1{opacity:0.65;fill:#2C475E;}
	.st2{opacity:0.7;fill:#2C475E;}
	.st3{opacity:0.9;fill:#2C475E;}
	.st4{fill:#2C475E;}
	.st5{fill:#FFFFFF;}
	.st6{fill:#F6B131;}
	.st7{fill:#911D7E;}
	.st8{fill:#3FA435;}
	.st9{fill:#355A6D;}
	.st10{fill:#000000;}
</style>
<g>
	<g>
		<path class="st10" d="M196.9,93c-0.4,0.2-0.9,0.4-1.5,0.7c-0.6,0.3-1.3,0.5-2.1,0.8c-0.8,0.3-1.7,0.5-2.6,0.6
			c-0.9,0.2-1.9,0.3-2.9,0.3c-2.3,0-4.3-0.6-6-1.9c-1.7-1.3-2.5-3.3-2.5-5.9V62.2h-5.1v-5h5.1V44.7h6.3v12.5h8.4v5h-8.4v23.3
			c0.1,1.4,0.6,2.4,1.4,3c0.8,0.6,1.8,0.9,2.9,0.9c1.2,0,2.4-0.2,3.4-0.6c1-0.4,1.7-0.7,2.1-1L196.9,93z"/>
		<path class="st10" d="M202.4,50.2v-7.9h6.3v7.9H202.4z M202.4,94.8V57.2h6.3v37.6H202.4z"/>
		<path class="st10" d="M234.4,95.6c-2.6,0-5-0.5-7.2-1.6c-2.2-1.1-4.1-2.5-5.7-4.2c-1.6-1.8-2.8-3.8-3.7-6.2
			c-0.9-2.4-1.3-4.8-1.3-7.4c0-2.6,0.4-5.1,1.3-7.5c0.8-2.4,2-4.5,3.5-6.2c1.5-1.8,3.3-3.2,5.4-4.2c2.1-1,4.4-1.5,6.9-1.5
			c3,0,5.7,0.8,8.1,2.4s4.3,3.5,5.7,5.8V42.3h6.3v44.8c0,1.5,0.7,2.3,2,2.3v5.5c-0.5,0.1-1,0.2-1.4,0.2c-0.4,0-0.8,0.1-1.1,0.1
			c-1.4,0-2.6-0.4-3.5-1.1c-0.9-0.7-1.3-1.6-1.4-2.7l-0.1-3.5c-1.5,2.4-3.5,4.4-5.9,5.7C239.7,94.9,237.1,95.6,234.4,95.6z
			 M235.9,90.1c1.2,0,2.3-0.2,3.6-0.6c1.2-0.4,2.4-1,3.5-1.8c1.1-0.8,2-1.7,2.8-2.7c0.8-1,1.3-2.1,1.5-3.3V70.9
			c-0.4-1.2-1.1-2.3-1.9-3.4c-0.9-1.1-1.8-2-2.9-2.8s-2.2-1.4-3.5-1.9c-1.2-0.5-2.4-0.7-3.6-0.7c-1.9,0-3.6,0.4-5.1,1.2
			c-1.5,0.8-2.8,1.8-3.9,3.2c-1.1,1.3-1.9,2.8-2.5,4.5c-0.6,1.7-0.9,3.4-0.9,5.2c0,1.9,0.3,3.7,1,5.4c0.7,1.7,1.6,3.2,2.7,4.4
			c1.2,1.2,2.5,2.2,4.1,3C232.4,89.7,234.1,90.1,235.9,90.1z"/>
		<path class="st10" d="M280.7,95.6c-2.8,0-5.4-0.5-7.8-1.5c-2.4-1-4.4-2.4-6-4.2c-1.7-1.8-3-3.9-3.9-6.2s-1.4-4.9-1.4-7.5
			c0-2.6,0.5-5.1,1.4-7.5c0.9-2.4,2.3-4.4,4-6.2c1.7-1.8,3.7-3.2,6.1-4.2c2.4-1,4.9-1.5,7.8-1.5c2.8,0,5.4,0.5,7.7,1.6
			c2.3,1.1,4.3,2.5,5.9,4.2c1.6,1.8,2.9,3.8,3.8,6.1c0.9,2.3,1.3,4.7,1.3,7.2c0,0.5,0,1,0,1.4c0,0.4-0.1,0.8-0.1,1h-31.2
			c0.1,1.9,0.6,3.6,1.3,5.1s1.7,2.9,2.8,4s2.5,2,3.9,2.6c1.5,0.6,3,0.9,4.6,0.9c1.2,0,2.3-0.2,3.4-0.5c1.1-0.3,2.1-0.7,3.1-1.3
			c1-0.5,1.8-1.2,2.6-1.9c0.7-0.8,1.3-1.6,1.7-2.6l5.5,1.5c-0.6,1.4-1.5,2.7-2.6,3.8c-1.1,1.2-2.3,2.1-3.7,3c-1.4,0.8-3,1.5-4.7,2
			S282.6,95.6,280.7,95.6z M293.6,73.5c-0.1-1.8-0.6-3.4-1.3-4.9c-0.7-1.5-1.7-2.8-2.8-3.9c-1.1-1.1-2.4-1.9-3.9-2.5
			c-1.5-0.6-3.1-0.9-4.8-0.9c-1.7,0-3.3,0.3-4.8,0.9c-1.5,0.6-2.8,1.4-3.9,2.5c-1.1,1.1-2,2.4-2.7,3.9c-0.7,1.5-1.1,3.1-1.3,4.9
			H293.6z"/>
		<path class="st10" d="M352.4,57.2h6.1l-16,37.6h-5.3l-7.6-18.4l-7.5,18.4H317l-16-37.6h6l13,31.3l6.3-15.6l-6.5-15.6h5.3l4.6,12
			l4.6-12h5.3l-6.4,15.6l6.3,15.6L352.4,57.2z"/>
		<path class="st10" d="M374,95.6c-1.9,0-3.6-0.3-5.2-0.9s-3-1.4-4.1-2.4c-1.2-1-2.1-2.3-2.7-3.7c-0.6-1.4-1-2.9-1-4.5
			c0-1.8,0.4-3.4,1.2-4.9c0.8-1.5,1.9-2.7,3.3-3.7c1.4-1,3.1-1.8,5-2.4c1.9-0.6,4.1-0.8,6.4-0.8c1.8,0,3.7,0.2,5.5,0.5
			s3.5,0.8,5,1.4v-3c0-3.1-0.9-5.5-2.6-7.2c-1.7-1.8-4.2-2.6-7.3-2.6c-3.8,0-7.8,1.5-12,4.4l-2.1-4.1c2.4-1.6,4.9-2.9,7.3-3.7
			c2.4-0.8,4.9-1.2,7.5-1.2c4.8,0,8.6,1.3,11.4,4c2.8,2.6,4.2,6.4,4.2,11.2v15.3c0,1.5,0.7,2.3,2,2.3v5.5c-0.5,0.1-0.9,0.2-1.4,0.2
			s-0.8,0.1-1.2,0.1c-1.1,0-2.1-0.3-3.1-0.9s-1.6-1.6-1.7-3l-0.1-2.7c-0.9,1.2-1.8,2.2-3,3c-1.1,0.9-2.3,1.6-3.5,2.2
			c-1.2,0.6-2.5,1-3.9,1.3C376.6,95.4,375.3,95.6,374,95.6z M375.6,90.8c2,0,4-0.4,5.9-1.3c1.9-0.9,3.4-1.9,4.5-3.2
			c0.9-1.1,1.4-2,1.4-3v-5.5c-1.5-0.6-3.1-1-4.7-1.3c-1.7-0.3-3.3-0.5-4.8-0.5c-3.3,0-5.9,0.7-7.8,2c-2,1.3-3,3.1-3,5.4
			c0,1,0.2,1.9,0.6,2.8c0.4,0.9,0.9,1.7,1.7,2.3c0.7,0.7,1.6,1.2,2.7,1.6C373,90.6,374.2,90.8,375.6,90.8z"/>
		<path class="st10" d="M403.4,105.1c1.3,0.1,2.4,0.2,3.5,0.2c0.4,0,0.8-0.1,1.2-0.3c0.4-0.2,0.8-0.6,1.3-1.4c0.5-0.7,1-1.8,1.7-3.2
			c0.6-1.4,1.4-3.3,2.3-5.7l-15.9-37.6h6.6l12.8,31.9l11.7-31.9h6L416,104.7c-0.9,2.3-2.1,3.9-3.7,4.9c-1.6,1-3.6,1.5-5.8,1.5
			c-0.5,0-1.1,0-1.6-0.1c-0.5,0-1.1-0.1-1.6-0.3V105.1z"/>
		<path class="st10" d="M453,95.6c-3,0-6-0.5-8.9-1.4c-2.9-0.9-5.4-2.3-7.6-4.1l2.7-4.2c2.2,1.7,4.4,2.9,6.6,3.8
			c2.2,0.8,4.5,1.3,7,1.3c2.7,0,4.9-0.5,6.5-1.6c1.6-1.1,2.4-2.6,2.4-4.6c0-0.9-0.2-1.7-0.6-2.3c-0.4-0.6-1.1-1.2-1.9-1.7
			c-0.9-0.5-2-0.9-3.3-1.3c-1.3-0.4-2.9-0.8-4.7-1.2c-2.3-0.6-4.2-1.1-5.8-1.7c-1.6-0.5-3-1.2-4-1.9c-1.1-0.7-1.8-1.6-2.3-2.6
			c-0.5-1-0.7-2.3-0.7-3.7c0-1.9,0.4-3.5,1.1-5c0.7-1.5,1.8-2.7,3.1-3.7c1.3-1,2.8-1.7,4.6-2.2c1.8-0.5,3.6-0.8,5.7-0.8
			c2.8,0,5.5,0.5,7.9,1.4c2.4,0.9,4.5,2.1,6.2,3.6l-2.9,3.8c-1.6-1.4-3.4-2.4-5.3-3.1c-2-0.7-4-1-6-1c-2.3,0-4.3,0.5-5.9,1.5
			c-1.6,1-2.4,2.6-2.4,4.7c0,0.9,0.2,1.6,0.5,2.2c0.3,0.6,0.8,1.1,1.5,1.5c0.7,0.4,1.6,0.8,2.8,1.2c1.1,0.3,2.5,0.7,4.1,1.1
			c2.5,0.6,4.7,1.2,6.5,1.8c1.8,0.6,3.4,1.3,4.6,2.1c1.2,0.8,2.1,1.8,2.7,2.9c0.6,1.1,0.9,2.4,0.9,4c0,3.5-1.3,6.3-4,8.4
			C461.2,94.5,457.5,95.6,453,95.6z"/>
	</g>
	<g>
		<polygon class="st5" points="141.7,141.7 102.4,141.7 0,64.3 0,37.3 53,0 79.9,0 97.5,11.8 126.6,0 141.7,0 141.7,22.2 99,77
			141.7,131.8 		"/>
		<path class="st6" d="M0,37.3c9.9,0.1,21.9-0.5,35.1-2.4c6.4-0.9,12.6-2.1,18.7-3.5C53,20.8,52.8,10.3,53,0H0V37.3z"/>
		<path class="st7" d="M80.3,23.6c16.4-6,31.9-13.8,46.3-23.6H80C79.9,7.8,79.9,15.7,80.3,23.6z"/>
		<path class="st8" d="M103.4,104.4c9.7,13.5,22.4,22.6,38.3,27.4V22.2c-19.9,13.4-39.9,22.6-58.6,28.8
			C86.5,71,92.8,89.6,103.4,104.4z"/>
		<path class="st9" d="M81.5,120.1C68.8,102.5,61.3,81,57.1,58.3c-6.8,1.5-13.3,2.6-19.3,3.5c-13.6,1.9-26,2.5-36.5,2.5
			c-0.5,0-0.9,0-1.4,0v77.5h102.4C94.5,135.8,87.5,128.6,81.5,120.1z"/>
	</g>
	<path class="st6" d="M0,37.3c9.9,0.1,21.9-0.5,35.1-2.4c6.4-0.9,12.6-2.1,18.7-3.5C53,20.8,52.8,10.3,53,0H0V37.3z"/>
	<path class="st7" d="M80.3,23.6c16.4-6,31.9-13.8,46.3-23.6H80C79.9,7.8,79.9,15.7,80.3,23.6z"/>
	<path class="st8" d="M103.4,104.4c9.7,13.5,22.4,22.6,38.3,27.4V22.2c-19.9,13.4-39.9,22.6-58.6,28.8
		C86.5,71,92.8,89.6,103.4,104.4z"/>
	<path class="st9" d="M81.5,120.1C68.8,102.5,61.3,81,57.1,58.3c-6.8,1.5-13.3,2.6-19.3,3.5c-13.6,1.9-26,2.5-36.5,2.5
		c-0.5,0-0.9,0-1.4,0v77.5h102.4C94.5,135.8,87.5,128.6,81.5,120.1z"/>
</g>
</svg>
