<svg xmlns="http://www.w3.org/2000/svg" viewBox="0 0 94 35"><path fill="#057FA2" d="M3.2 12.4l.9-.9 3.5 4.9h3.6L6.4 9.6 11 4.5H7.4L3.3 9.3V0H.1v16.4h3.2l-.1-4zm16.1 2.2v1.8h3V8.2c0-2.4-2-4-5.1-4-3 0-5 1.6-5.1 3.9H15c.2-.9.9-1.5 2.1-1.5 1.3 0 2.1.6 2.1 1.8v.8l-3 .2c-3 .2-4.7 1.4-4.7 3.6 0 2.1 1.7 3.6 4 3.6 1.6 0 3.1-.8 3.8-2zm-2.7-.3c-1.1 0-1.9-.6-1.9-1.4 0-.9.7-1.4 2-1.5l2.5-.2v.8c.1 1.4-1.1 2.3-2.6 2.3zm11-7.7l-.1-2.1h-3v12h3.2V9.7c0-1.7.9-2.7 2.5-2.7.4 0 .9.1 1.1.2V4.4c-.2-.1-.6-.1-.9-.1-1.4 0-2.4.8-2.8 2.3zm5.9 6.6c0 2.3 1.1 3.3 3.8 3.3.6 0 1.2-.1 1.5-.1V14c-.2 0-.5.1-.8.1-1 0-1.4-.4-1.4-1.4V6.9h2.2V4.5h-2.2V1.8h-3.2v2.7h-1.6v2.4h1.6v6.3h.1zm12.4 3.4c2.9 0 5-1.5 5.4-3.9h-2.9c-.3.9-1.2 1.5-2.4 1.5-1.7 0-2.8-1.2-2.8-2.9v-.2h8.2v-1c0-3.6-2.2-5.9-5.6-5.9-3.5 0-5.7 2.4-5.7 6.2 0 3.9 2.2 6.2 5.8 6.2zm-.1-10c1.5 0 2.5 1 2.5 2.6h-5.1c.1-1.5 1.2-2.6 2.6-2.6zm15.3 2.8v7h3.2V8.8c0-2.8-1.6-4.5-4.2-4.5-1.8 0-3.1.8-3.8 2.3h-.1V4.5h-3v12h3.2V9.6c0-1.6 1-2.7 2.5-2.7 1.3 0 2.2.9 2.2 2.5zM13.6 22.5c-1.7 0-3.2.9-3.7 2.4h-.1c-.4-1.6-1.6-2.4-3.3-2.4-1.6 0-2.9.9-3.4 2.3H3v-2.2H0v12h3.2v-7.2c0-1.4.9-2.3 2.1-2.3s2 .8 2 2.1v7.5h3v-7.2c0-1.4.8-2.3 2.1-2.3s2 .8 2 2.2v7.3h3.2v-8.1c-.1-2.5-1.7-4.1-4-4.1zm11.2 0c-3 0-5 1.6-5.1 3.9h2.9c.2-.9.9-1.5 2.1-1.5 1.3 0 2.1.6 2.1 1.8v.8l-3 .2c-3 .2-4.7 1.4-4.7 3.6 0 2.1 1.7 3.6 4 3.6 1.5 0 3-.7 3.6-2h.1v1.8h3v-8.2c0-2.4-2-4-5-4zm1.9 7.8c0 1.3-1.2 2.2-2.6 2.2-1.1 0-1.9-.6-1.9-1.4 0-.9.7-1.4 2-1.5l2.5-.2v.9zm10.6 2.2c-1.6 0-2.7-1.3-2.7-3.7 0-2.3 1-3.7 2.6-3.7 1.4 0 2.2.9 2.4 2.1h2.9c-.2-2.7-2.2-4.6-5.4-4.6-3.5 0-5.8 2.4-5.8 6.2s2.3 6.2 5.8 6.2c3.1 0 5.2-1.8 5.4-4.6h-2.9c-.1 1.2-.9 2.1-2.3 2.1zm14.1-10c-1.8 0-3.2.8-3.8 2.3h-.1v-6.6h-3.1v16.4h3.2v-6.8c0-1.6 1-2.7 2.6-2.7 1.5 0 2.4.9 2.4 2.5v7h3.2V27c-.2-2.8-1.8-4.5-4.4-4.5zm11.6 0c-3.5 0-5.7 2.4-5.7 6.2s2.2 6.1 5.8 6.1c2.9 0 5-1.5 5.4-3.9h-2.9c-.3.9-1.2 1.5-2.4 1.5-1.7 0-2.8-1.2-2.8-2.9v-.2h8.2v-1c0-3.5-2.2-5.8-5.6-5.8zm-2.6 4.9c.1-1.5 1.2-2.6 2.6-2.6 1.5 0 2.5 1 2.5 2.6h-5.1zm13-2.6l-.1-2.1h-3v12h3.2V28c0-1.7.9-2.7 2.5-2.7.4 0 .9.1 1.1.2v-2.8c-.2-.1-.6-.1-.9-.1-1.4-.1-2.4.8-2.8 2.2zm10-2.3c-3.5 0-5.7 2.4-5.7 6.2s2.2 6.1 5.8 6.1c2.9 0 5-1.5 5.4-3.9H86c-.3.9-1.2 1.5-2.4 1.5-1.7 0-2.8-1.2-2.8-2.9v-.2H89v-1c0-3.5-2.2-5.8-5.6-5.8zm-2.6 4.9c.1-1.5 1.2-2.6 2.6-2.6 1.5 0 2.5 1 2.5 2.6h-5.1zm9.9 7.4h3.2v-12h-3.2v12zm1.6-13.4c.9 0 1.7-.7 1.7-1.7 0-.9-.8-1.7-1.7-1.7-.9 0-1.7.7-1.7 1.7 0 1.1.8 1.7 1.7 1.7z"/></svg>