<svg id="Layer_1" data-name="Layer 1" xmlns="http://www.w3.org/2000/svg" xmlns:xlink="http://www.w3.org/1999/xlink" viewBox="0 0 452.01 98.72"><defs><style>.cls-1{fill:none;clip-rule:evenodd;}.cls-2{clip-path:url(#clip-path);}.cls-3{fill:#4a90e2;}</style><clipPath id="clip-path" transform="translate(-29.49 -33.64)"><path class="cls-1" d="M299.48,34.64A1.47,1.47,0,0,1,301,36.1V47.21a1.46,1.46,0,0,1-1.47,1.46H286.82a1.46,1.46,0,0,1-1.46-1.46V36.1a1.46,1.46,0,0,1,1.46-1.46Zm-106.39,14H183.5v15h9.78c4.36,0,7.18-3,7.18-7.66S197.77,48.67,193.09,48.67Zm222,17.53a10.58,10.58,0,0,0-10.62,7.39h18.66C422.42,69.22,419.22,66.2,415.11,66.2ZM194.49,77h-11V93.87c0,.6.15.74.74.74h10.25c5.38,0,8.58-3.31,8.58-8.85S199.79,77,194.49,77ZM355.32,67.3c-6.81,0-11.39,5.77-11.39,14.35,0,8.85,4.39,14.57,11.19,14.57,5.51,0,11.4-3.85,11.4-14.67C366.52,74.46,363.05,67.3,355.32,67.3ZM193.19,34.64c14.31,0,23.56,7.77,23.56,19.78a18.47,18.47,0,0,1-7.08,15c6.09,3,9.9,9.4,9.9,17.1,0,13.62-10,22.09-26.08,22.09H175.7c-5.58,0-8.3-2.71-8.3-8.27V48.67h-5.06a1.46,1.46,0,0,1-1.46-1.46V36.1a1.46,1.46,0,0,1,1.46-1.46Zm99.46,20c6.77,0,8.3,4.22,8.3,7.54v45a1.47,1.47,0,0,1-1.47,1.46H286.82a1.46,1.46,0,0,1-1.46-1.46v-38c0-.64-.1-.74-.75-.74h-4a1.46,1.46,0,0,1-1.46-1.46V56.12a1.46,1.46,0,0,1,1.46-1.46Zm29-20a1.46,1.46,0,0,1,1.46,1.46v71.09a1.46,1.46,0,0,1-1.46,1.46H309a1.47,1.47,0,0,1-1.47-1.46V36.1A1.47,1.47,0,0,1,309,34.64ZM476.73,54a18,18,0,0,1,2.49.21h.06a1.47,1.47,0,0,1,1.23,1.44V68.14a1.47,1.47,0,0,1-.51,1.11,1.54,1.54,0,0,1-1.18.33,22.51,22.51,0,0,0-2.89-.18c-7.55,0-13.61,5.4-13.61,17.08v20.71a1.47,1.47,0,0,1-1.47,1.46H448.19a1.46,1.46,0,0,1-1.46-1.46v-38c0-.65-.1-.74-.75-.74h-4a1.46,1.46,0,0,1-1.47-1.46V56.12A1.47,1.47,0,0,1,442,54.66h11.65c6.77,0,8.26,4.07,8.3,7.54A18.13,18.13,0,0,1,476.73,54Zm-61.62-.5c14.46,0,24.18,10.33,24.18,25.69,0,1.55-.3,4.71-.31,4.84a1.47,1.47,0,0,1-1.46,1.33H403.86c1.61,7.92,8,10.79,13.66,10.79,7.58,0,13.31-5.25,13.37-5.31a1.52,1.52,0,0,1,1.2-.38,1.46,1.46,0,0,1,1.06.7l5.33,8.81a1.47,1.47,0,0,1-.23,1.79,32.49,32.49,0,0,1-21.63,8.13c-16.8,0-29-11.86-29-28.2C387.63,65.06,398.93,53.46,415.11,53.46Zm-177.84,1.2a1.47,1.47,0,0,1,1.47,1.46V86.36c0,6.53,1.75,9,6.47,9,8.86,0,12.9-8.17,12.9-15.76V56.12a1.47,1.47,0,0,1,1.47-1.46h12.65a1.51,1.51,0,0,1,1.52,1.46V94.27c0,.6.2.74.8.74h4A1.47,1.47,0,0,1,280,96.47v10.72a1.47,1.47,0,0,1-1.46,1.46H266.81c-4.74,0-7.71-2.28-8.14-6.16a21.39,21.39,0,0,1-16.38,7.36c-12.7,0-19.15-7-19.15-20.88V56.12a1.47,1.47,0,0,1,1.47-1.46Zm143.17-20a1.46,1.46,0,0,1,1.46,1.46V94.27c0,.6.15.74.75.74h3.92A1.46,1.46,0,0,1,388,96.47v10.72a1.46,1.46,0,0,1-1.46,1.46H374.81c-5.26,0-7-2.62-7.56-4.77-2.51,2.64-7.21,6-14.94,6-14.52,0-24.28-11.33-24.28-28.2,0-16.59,10.19-28.19,24.78-28.19,6.76,0,10.78,2.13,13.51,4.19V36.1a1.46,1.46,0,0,1,1.46-1.46ZM140.67,93.77l-.13,0a2.61,2.61,0,0,0-.68.19c-.47.2-1.3,0-1.64.26s-.1.14-.43.42-1,.2-1.21.3,0,0,0,0h.07c.06,0,.09,0,0,.07a4,4,0,0,1-.39.16s-.08.26-.14.29a10.92,10.92,0,0,0-1.24.2c-.15.08-.92.34-1.26.46a3,3,0,0,1-.67.17s-.07.17-.45.42a5.82,5.82,0,0,1-1,.44c-.08.06-.65.48-.73.56a4.28,4.28,0,0,1-.74.29s-.12-.11-.34,0-.19.25-.31.3l-1.34.72c-.24.12-.68.56-1,.78a8.31,8.31,0,0,0-1.29.94c-.48.42-1,.47-1.3.79s-.11.1-.53.42a3.76,3.76,0,0,1-.6.35,9.75,9.75,0,0,1-.86.67c0-.09-.32,0-.45.08-.16.35-.5.44-.84.86s-.74.73-1.12,1.24-1.06,1.36-1.31,1.65a6,6,0,0,1-1.49,1.81,7.17,7.17,0,0,0-1.19,1.78l-.48.61-.31.66,0,0c-.36.44-.86,1.43-.94,1.38-.12.54-.52,1.18-.21,1.25,0,0,0,.49,0,.57s-.29.61-.38.88a1,1,0,0,1-.24.4c-.09.12.24.42.12.55s0,.42-.08,1,.14,1.31.24,1.91a9.33,9.33,0,0,0,.27,1.18c.22.74.14,1.35.65,1.94a4.9,4.9,0,0,0,2.14,1.37,10.43,10.43,0,0,0,3.06.49,12.91,12.91,0,0,0,3.52-.45c.26,0,.52,0,.79,0a10.94,10.94,0,0,0,2.06-.94,27.06,27.06,0,0,0,2.57-1.64A19.93,19.93,0,0,0,133.8,116a36.91,36.91,0,0,0,3.61-6.55,68.62,68.62,0,0,0,3.15-12.73c.25-1,.41-2,.55-2.92A1.28,1.28,0,0,1,140.67,93.77Zm-26.8-56.51a3,3,0,0,1,1.25.09,2.87,2.87,0,0,1,1.24.86,7,7,0,0,1,1.41,2.35,1,1,0,0,1,.1.32,22.91,22.91,0,0,1,.3,4c0,1.34.18,2.72.33,4.16a77.59,77.59,0,0,1,.65,9.37c0,.9,0,1.55,0,2.26.13,1.73.35,4.59,0,3.5.3,1.78.48,2.85.63,3.89s.28,2,.65,3.68c.4.94.19.51.26.93s.07.69,0,.68a14.8,14.8,0,0,0,.94,2.1,2,2,0,0,0,.44,1.14l.6-.75.4-.52c1.81-2.32,3.64-4.73,4.12-5.42A77.93,77.93,0,0,0,131,62.41c1.07-2.35,2.09-4.72,3-7.06a53.28,53.28,0,0,1,2.51-6.13,5.66,5.66,0,0,0,.92-1.22c-.1-.09.15-.57.5-1.11a14.07,14.07,0,0,0,.94-1.45,4.92,4.92,0,0,1,.59-.72h0c.1-.05.2-.12,1.3-1.6.58-.78.72-1.25.53-1.19a12.24,12.24,0,0,1,1.53-1.31,5.12,5.12,0,0,1,2.9-.82l1,.2.57.06s1,.16,1.05.15a5.92,5.92,0,0,1,2.29,2.8,14.84,14.84,0,0,1,.89,2.86,27.43,27.43,0,0,1,.64,5.24l-.16.51a9,9,0,0,0,.14,1.86l0,2.43c-.07.16.11.51-.09.39.09,2.48.11,4.27.12,4.51v0a7.85,7.85,0,0,0,.13,2,.55.55,0,0,1,.07.47v.12a15.46,15.46,0,0,0-.1,1.73c0,2.32-.32,6.86-.28,8.64,0,.62-.12,3.69-.26,6.81l0,.64c-.07,1.4-.13,2.77-.19,3.89.82,0,2.6.35,2.12,0a18.11,18.11,0,0,1,2.36.08l.62.05a2,2,0,0,1,.78.17,4.09,4.09,0,0,1,.67.42l.5.34c.06.38.57.9.92,1.46s.52,1.12.18,1.12a2.7,2.7,0,0,1,.2,1.17c-.05.37.23.16,0,.5,0,.17-.23.46-.8.8a4.24,4.24,0,0,1-.75.29c-.28,0-.31-.09-.43,0l-.27-.27c-.57.32-.56-.18-1,.29-1.09.12-1.06.44-2.09.6-.36,0-.82.2-1.21-.06,0,0-1.5,0-1.53,0a5.77,5.77,0,0,1-1,.48c-.11,1.46-.27,3.8-.61,4.15-.07.48-.09,1.13-.11,1.52a3.8,3.8,0,0,0-.12,1,5.85,5.85,0,0,1-.31,1,16,16,0,0,1-.84,3.1h0v0l0-.09,0,0c.1-.17.22-.26,0,.89-.05-.18-.38.69-.56,1.12l.1.47c-.33.45-.68.88-1,1.32a14.61,14.61,0,0,0-.8,2.12c.08,0,.15.12-.78,1.94-.85,1-1.39,2.89-3.51,5.5-.35.54-.55.52-.94,1-1.22,1.22-.86,1.21-2.37,2.65a17.65,17.65,0,0,1-1.51,1.36c-.13.15-.25.3-.28.27a35.71,35.71,0,0,1-4,3.22,32.56,32.56,0,0,1-18.85,6.09.92.92,0,0,0-.48.1l.65,0c.48,0-.46.14-1.89.07a27,27,0,0,1-3.23-.59,9.31,9.31,0,0,1-2.12-.78,6.45,6.45,0,0,1-2.26-1.85c-.26-.36-.25-.46-.19-.75s-.3-.55-.65-1.35a9.87,9.87,0,0,1-1.14-4.28v-.51a4.77,4.77,0,0,0-.06-.55c-.12,0-.35-.59-.34-.92a7.26,7.26,0,0,1,.62-1.64,10.1,10.1,0,0,1,.7-1.4,4.35,4.35,0,0,0,.49-1l.15-.35.2-.51.26-.6c0-.33-.16-.43.18-.88,1.34-1.51,2-3.39,3.38-4.8,1.53-1.09,1.1-2.31,2.63-3.15.49-.54.92-.67,1.11-1.08s.17.09.39-.38a5.79,5.79,0,0,1,1-1.29,15.51,15.51,0,0,1,2.1-1.83c1.18-.89,1.8-1.52,2.54-2s1.29-.62,1.66-1.13a5.51,5.51,0,0,1,1.61-1.2c.36-.19.86-.77,1.3-1s.91-.92,1.25-1a2.13,2.13,0,0,0,.7-.39c.29-.21.4-.28.48-.33l.07,0,.08,0a1,1,0,0,1,.67-.3l.77-.4c.31-.16.77-.32.81-.38s.48,0,.48,0l.27-.33c.09-.11.19-.49.4-.54l.56-.25a6.89,6.89,0,0,1,.89-.5,3.17,3.17,0,0,1,1-.23c.26-.24,0-.18.4-.35a6.75,6.75,0,0,0,.77-.3c.58-.27.69-.37,1.23-.59s.51-.38.76-.41a3.64,3.64,0,0,0,.63-.2,4,4,0,0,1,.46-.1,7,7,0,0,1,.62-.4c.17-.09.07-.19.48-.34a11.49,11.49,0,0,1,1.18-.43c.29-.13.55-.28.55-.28.93-.37,1.81-.61,2.69-.9l.65-.19c0-.07,0-.15,0-.28.12-1.57.18-3.23.33-4.8a50.72,50.72,0,0,0,.14-6.79c0-.16.05-1,.05-2.06v-.78c0-.36,0-.73,0-1.11v-.57c0-1.32,0-2.61-.08-3.35l.12-.45c0-1,0-1.64.07-2.07l0-.21a1.68,1.68,0,0,1,0-.29c-.06-.71-.1-1.78-.12-3,0,0-.18-4.66-.17-4.62l-.67,1.21-.09.48c0,.13-.11.44-.17.68l-.24.8c-.34,1.09-.78,2.31-1.28,3.55-1,2.49-2.28,5.12-3.44,7.31-.44.42-1.28,6.23-2.88,7.87-.12.23-.25.51-.14.53-.48.66-1.23,1.66-1.94,2.51s-1.1,2.15-1.3,2.23a25,25,0,0,1-2,1.84c-.44.45.3.26-.32.71l-.43.3a3.15,3.15,0,0,0-.4.21,21.42,21.42,0,0,1-5,2.81,11,11,0,0,1-3,.67,6.77,6.77,0,0,1-2.16,0,3.34,3.34,0,0,1-.66-.64c-.32-.15-.63-.31-.88-.45a8.12,8.12,0,0,1-1.19-.52,8.68,8.68,0,0,1-2.93-2.76,15.63,15.63,0,0,1-1.71-3.07c0-.26-.3-1.38-.55-2.68s-.47-2.78-.63-3.76S108,74.5,107.94,74c0-.27-.07-.59-.1-1l0-.77v-.81l-.11-1.12-.29.2a1.19,1.19,0,0,0-.31.45.74.74,0,0,1-.2.32c0-.07-.12,0-.33.46-1.27,2.95-1.42,3.42-2.13,5l-.17.39-.2.43c-.65,1.44-1.47,3.17-2.4,4.83a14.3,14.3,0,0,1-1.87,2.82c.28,0-.55,1.38-1.86,3a21.37,21.37,0,0,1-2.46,2.59,11.92,11.92,0,0,1-2.61,1.75c-.63.48-.24.08-1.16.33a4.11,4.11,0,0,1-1.65.13,2.91,2.91,0,0,1-1-.38,5.48,5.48,0,0,1-.64-.43A12.35,12.35,0,0,1,85.16,88a11.62,11.62,0,0,1-.91-2.4A8.73,8.73,0,0,1,84,84.32c0-.43,0-.87,0-1.22,0-1.49,0-3,0-4.46l.37-.92a17.25,17.25,0,0,0-.34-3.17L84,74.07c-.1-.53-.2-1.07-.28-1.69,0-.31.08-.56,0-1.11l0-.92,0-.41a2.5,2.5,0,0,0-.09-.43l-.36.51-.07.12,0,0a10,10,0,0,0-.81,1.11c-.53,1.59-1.19,3.59-1.57,5.27-.88,1.75-1.8,5.52-2.91,9.68a47.86,47.86,0,0,1-2.08,6.3,18.56,18.56,0,0,1-3.36,5.17l.08.67a11.84,11.84,0,0,1-1.55,1.53,5.66,5.66,0,0,1-1,.68,3,3,0,0,1-1.75.39,6.91,6.91,0,0,1-1-.45c-.21-.12-.41-.23-.59-.35a8.38,8.38,0,0,1-1-.74,6.21,6.21,0,0,1-1.23-1.31c-.32-.51.14,0-.6-.85a11.09,11.09,0,0,1-1.91-2.88,8,8,0,0,0-.94-1.49,16.89,16.89,0,0,1-.62-3.15c-.1-1.1-.14-2.14-.18-3.24C60,84.35,60,82.12,60,80c0-.85,0-1.69,0-2.51v-1c0-2.86,0-5.34.16-7-.09-2.18-.21-4.21-.43-6.15l0-.36a5.19,5.19,0,0,0-.09-.52,2.19,2.19,0,0,0-.15-.41c0-.13-.16-.21-.43-.24l-.12.54c0,.06-.05.22-.09.35s0,.19-.19.64c-.44,1.39-.92,2.85-1.48,4.28-.91,2.49-2.77,7.46-3.14,7.3-1.77,5.38-2.46,9-4.83,15.29a25,25,0,0,0-1,2.81c-.2.56-.29.79-.31.69a15.84,15.84,0,0,0-.95,2.82l-.14.33a97.88,97.88,0,0,0-3,9.34,16.24,16.24,0,0,1-2.4,5.33,5.32,5.32,0,0,1-2.75,1.92,5.44,5.44,0,0,1-1.79.19,2.82,2.82,0,0,1-1.2-.29,4,4,0,0,1-.51-.29l-.35-.25c-.12-.09-.08-.18-.33-.41a7.07,7.07,0,0,1-2-2.18,15.05,15.05,0,0,1-1.18-1.85,7.52,7.52,0,0,1-.51-1.14,3.13,3.13,0,0,1-.16-.8c0-.1,0-.19,0-.26v-.33c.07-2.77.29-5.45.45-7.18.11-2,.23,1.84.4-3.87V93.39a12.22,12.22,0,0,0,.1-3.75c.36-2.66.64-1.76.84-2.69.27-1.85.51-3.69.74-5.55l0-.35,0,.34v0a23.42,23.42,0,0,0,.16-2.46v-.24c-.57.41-.21-.88-.45-1.92.42-8,1.1-14.66,1.21-21.55a56,56,0,0,0,.66-6.34l.06-.7.06-.69a26.71,26.71,0,0,1,.53-3.8c.22-1,.5-1.45.62-1.23a3.48,3.48,0,0,1,.65-1.34,1.1,1.1,0,0,1,.36-.25,1,1,0,0,1,.44-.08c.24,0,.45,0,.67-.08a4.8,4.8,0,0,0,1.18-.38,4.73,4.73,0,0,1,1.23-.53,1.94,1.94,0,0,1,.76,0c.22,0,.44.1.65.16a6,6,0,0,1,4.21,4.14A5.73,5.73,0,0,1,46.29,47l-.22,1.93-.49.8c-.17,3-.64,2.38-.69,5.38a27.55,27.55,0,0,0-.28,3.75v.31c0,.26,0,.51,0,.79a48.18,48.18,0,0,1-.35,4.88,21.08,21.08,0,0,0-.18,2.68,1.68,1.68,0,0,0-.17.59l-.07.49,0,.45.15,2.46c0,.06.09.76.26.68L45,70c.55-1.37.67-1.57.61-1.66C47,64.78,49,60,49.9,57.44c1.63-3.64,2.63-7,3.63-9.23.18-.35.12,0,.27-.42l.49-1.32a14.57,14.57,0,0,1,1.27-2.6,6.33,6.33,0,0,1,1.73-1.82,2.61,2.61,0,0,1,1.53-.54c.79-.15,2.64-.43,3-.48A6.37,6.37,0,0,1,63.21,41a6,6,0,0,1,2.17.59,5.61,5.61,0,0,1,2.17,1.74,9.61,9.61,0,0,1,1.54,2.64,22.27,22.27,0,0,1,1.29,5.56c0,4.27.29,12.92-.25,17.69.15-.26.22.83.22,1.23a10.79,10.79,0,0,0,.27,2.65,12.09,12.09,0,0,0,0,1.37l.06.83a4.13,4.13,0,0,0,.07.52,9.52,9.52,0,0,0,.31,1.31c.15.32.26,1.8.55,2.13l.1-.41c.27-1.12.39-2,.49-2.63l.08-.52s0-.11,0-.2l0-.18.13-.49c.18-.68.41-1.44.72-2.36l1-2.43c-.18-.64,1.34-4.79,1.18-4.74l.18-.37.11-.26c.28-.6.53-1.16.62-1,.13-.46.29-1,.46-1.5l.17-.52a20.14,20.14,0,0,0,1-3.31,15.05,15.05,0,0,0,.53-2.07c.31-1.17.53-2.32.89-3.41a9.68,9.68,0,0,1,1.54-3.1,5.54,5.54,0,0,1,3.26-2,25.13,25.13,0,0,1,3.51-.38,2.39,2.39,0,0,1,.62.08,6.73,6.73,0,0,1,2.32.79,6,6,0,0,1,1.7,1.49,11.35,11.35,0,0,1,2,4.19c.11.74,0,.73,0,.75h0c-.06,0-.1.12-.08.88a10.74,10.74,0,0,1,0,2.53L94,60.29l-.28,2.8a6.71,6.71,0,0,0,.14,2.51c0,.4,0,.72,0,1v.26a30.52,30.52,0,0,1-.09,3.69l.06,2.77A13.44,13.44,0,0,0,94,76.89L94,77a9,9,0,0,1,.11.92l0,.91,0,.77A4.28,4.28,0,0,0,95.09,78s0,0,0,0v0s0,0,.08-.18l.06-.14.23-.61c.47-.82.1.08.58-1A44,44,0,0,0,99.75,69a2.92,2.92,0,0,1,.13-.34,13.76,13.76,0,0,1,1.54-3.47c.68-1.88.67-1.34.73-1.75a8.06,8.06,0,0,1,.23-1l.45-2.39,0-.15v0c.83-3.13,1.37-5.17,2-7.87-.13.57,0,.4.22-1.08V51c0,.14,0-.55.21-1.5s.42-2.56.64-3.31c0,0,0-.49,0-.53.17-.56.76-1.94.64-1.72a10.65,10.65,0,0,1,1.23-2.43c.45-.61.79-.95,1.13-1.36a11.46,11.46,0,0,1,1.21-1.2,8.08,8.08,0,0,1,2.34-1.38A4.63,4.63,0,0,1,113.87,37.26Z"/></clipPath></defs><g class="cls-2"><rect class="cls-3" width="452.01" height="98.72"/></g></svg>
