<svg id="e70b026b-24d0-4052-a8e5-2fec077519af" width="139" height="20" data-name="Amezmo" xmlns="http://www.w3.org/2000/svg" viewBox="0 0 166.07 23.79"><title>Amezmo_SVG_FINAL_LOGO_REAL</title><path d="M176.26,184.94c0,2.34-1.39,3.92-3.44,3.92a3.54,3.54,0,0,1-3.45-2.61,6.35,6.35,0,0,1-5.64,2.75,10.19,10.19,0,0,1-6.75-2.53,11.79,11.79,0,0,1-4-9.48,11.23,11.23,0,0,1,3.59-8.75,10,10,0,0,1,7.12-3c2.42,0,3.87.68,5.82,2.62.75-1.76,1.77-2.48,3.4-2.48a3.36,3.36,0,0,1,3.4,3.38ZM160,177c0,3.47,1.86,5.78,4.75,5.78s4.7-2.35,4.7-5.74-1.91-5.68-4.75-5.68S160,173.7,160,177Z" transform="translate(-152.93 -165.21)" style="fill:#06f"/><path d="M177.94,169.22c0-2.31,1.36-3.86,3.43-3.86,1.36,0,2.11.46,3.33,2.18a8.3,8.3,0,0,1,6-2.32,9.71,9.71,0,0,1,4.69,1.14,5.43,5.43,0,0,1,1.92,1.77c2.77-2.18,4.6-2.91,7.22-2.91,4.79,0,8.3,3.28,8.3,7.73v11.44a4.88,4.88,0,0,1-.48,2.86,3.59,3.59,0,0,1-6.15,0c-.43-.79-.48-1.17-.48-2.86v-10a3.56,3.56,0,0,0-7.12,0v10a4.88,4.88,0,0,1-.48,2.86,3.59,3.59,0,0,1-6.15,0c-.43-.79-.48-1.17-.48-2.86v-9.52c0-2-.85-3.27-2.35-3.62a3.41,3.41,0,0,0-4.12,3.32v9.82a4.88,4.88,0,0,1-.48,2.86,3.59,3.59,0,0,1-6.15,0c-.44-.79-.49-1.17-.49-2.86Z" transform="translate(-152.93 -165.21)" style="fill:#06f"/><path d="M221.88,179.3c1,2.66,2.74,3.92,5.45,3.92,1.63,0,2-.13,5.63-1.85a4,4,0,0,1,1.49-.31,2.87,2.87,0,0,1,2.75,2.7c0,2.71-5,5.24-10.25,5.24-7.31,0-12.43-4.78-12.43-11.55,0-7,5-12.24,11.73-12.24a11.28,11.28,0,0,1,11.37,11.47c0,1.85-.89,2.62-3,2.62Zm9-4.39a7,7,0,0,0-1-2.44,4.32,4.32,0,0,0-3.5-1.71c-2.28,0-3.77,1.26-4.75,4.15Z" transform="translate(-152.93 -165.21)" style="fill:#06f"/><path d="M254.23,182.43a5,5,0,0,1,2.73.43,3.09,3.09,0,0,1,1.6,2.69,3.17,3.17,0,0,1-1.6,2.73,5,5,0,0,1-2.73.42H241.14c-2.38,0-3.55-.77-3.55-2.26a3.1,3.1,0,0,1,.79-2L248,171.78h-6.07a4.74,4.74,0,0,1-2.68-.43,3.11,3.11,0,0,1-1.65-2.73,3.18,3.18,0,0,1,1.6-2.69,5,5,0,0,1,2.73-.42H255a2.57,2.57,0,0,1,2.8,2.4,4,4,0,0,1-.93,2.31l-9.25,12.21Z" transform="translate(-152.93 -165.21)" style="fill:#06f"/><path d="M259.7,169.22c0-2.31,1.36-3.86,3.42-3.86,1.36,0,2.11.46,3.33,2.18a8.32,8.32,0,0,1,6.05-2.32,9.74,9.74,0,0,1,4.69,1.14,5.6,5.6,0,0,1,1.92,1.77c2.77-2.18,4.6-2.91,7.22-2.91,4.78,0,8.3,3.28,8.3,7.73v11.44a4.88,4.88,0,0,1-.48,2.86,3.59,3.59,0,0,1-6.15,0c-.44-.79-.49-1.17-.49-2.86v-10a3.56,3.56,0,0,0-7.11,0v10a4.88,4.88,0,0,1-.48,2.86,3.59,3.59,0,0,1-6.15,0c-.44-.79-.49-1.17-.49-2.86v-9.52c0-2-.85-3.27-2.34-3.62a3.41,3.41,0,0,0-4.12,3.32v9.82c0,1.64-.05,2.07-.49,2.86a3.58,3.58,0,0,1-6.14,0c-.44-.79-.49-1.17-.49-2.86Z" transform="translate(-152.93 -165.21)" style="fill:#06f"/><path d="M315.93,168.82a12,12,0,0,1,3.07,8.31c0,6.77-4.89,11.87-11.41,11.87a11.56,11.56,0,0,1-8.38-3.61,11.84,11.84,0,0,1-3.08-8.44,11.45,11.45,0,0,1,11.46-11.74A11.61,11.61,0,0,1,315.93,168.82Zm-13,8.22c0,3.34,1.95,5.78,4.56,5.78s4.8-2.53,4.8-5.74-2.1-5.68-4.8-5.68S302.89,173.88,302.89,177Z" transform="translate(-152.93 -165.21)" style="fill:#06f"/></svg>
