<svg xmlns="http://www.w3.org/2000/svg" xmlns:xlink="http://www.w3.org/1999/xlink" xmlns:lucid="lucid" width="793.44" height="615.33"><g transform="translate(-314.3333333333333 -251.66666666666669)" lucid:page-tab-id="qsJp6wRZWJnR"><path d="M540 452h120v120H540V452z" stroke="#fff" stroke-opacity="0" fill="#693cc5"/><path d="M617.6 550.42c-.35 0-.64-.15-.93-.3-.43-.3-.67-.77-.67-1.3v-73.63c0-.55.3-1.08.77-1.4.48-.3 1.08-.3 1.6-.07l20.8 10.22c.56.23.9.77.9 1.38v56.56c.02.76-.4 1.37-1.1 1.6l-20.8 6.92h-.56zm1.63-72.62v68.78l17.6-5.84v-54.4zM582.4 550.42h-.52l-20.8-6.92c-.67-.23-1.1-.92-1.08-1.6v-56.57c0-.6.33-1.15.9-1.38l20.8-10.22c.52-.23 1.1-.23 1.6.08.48.3.75.85.75 1.4v73.6c0 .54-.24 1-.67 1.3-.3.24-.6.32-1 .32zm-19.2-9.6l17.6 5.83V477.8l-17.6 8.6z" stroke="#fff" stroke-opacity="0" fill="#fff"/><path d="M616 496h-4.8v-3.2h4.8zm-9.6 0h-4.8v-3.2h4.8zm-9.6 0H592v-3.2h4.8zm-9.6 0h-4.8v-3.2h4.8zM616 531.2h-4.8V528h4.8zm-9.6 0h-4.8V528h4.8zm-9.6 0H592V528h4.8zm-9.6 0h-4.8V528h4.8zM592.98 517.5l-6.02-5.13c-.67-.57-.75-1.6-.18-2.26l.18-.17 6-5.13 2.08 2.43-4.58 3.97 4.58 3.92zM607.04 517.5l-2.08-2.42 4.57-3.88-4.6-3.9 2.1-2.5 6 5.12c.68.57.76 1.6.2 2.26-.07.07-.12.12-.2.17z" stroke="#fff" stroke-opacity="0" fill="#fff"/><path d="M595.3 520.87l6.35-18.8 3.03 1.03-6.35 18.8-3.04-1.03z" stroke="#fff" stroke-opacity="0" stroke-width=".32" fill="#fff"/><use xlink:href="#a" transform="matrix(1,0,0,1,510.00000000003877,581) translate(28.30246913580247 17.77777777777778)"/><use xlink:href="#b" transform="matrix(1,0,0,1,510.00000000003877,581) translate(115.89506172839506 17.77777777777778)"/><use xlink:href="#c" transform="matrix(1,0,0,1,510.00000000003877,581) translate(46.2037037037037 44.44444444444444)"/><path d="M954.67 485.33h120v120h-120v-120z" stroke="#fff" stroke-opacity="0" stroke-width="2" fill="#d86613"/><path d="M1051.47 585.33h-19.72c-.64 0-1.15-.32-1.4-.88l-27.92-58.32h-11.78c-.9 0-1.6-.72-1.6-1.6v-17.6c0-.88.7-1.6 1.6-1.6h24.65c.64 0 1.15.32 1.4.88l27.8 58.33h6.97c.9 0 1.6.72 1.6 1.6v17.6c0 .88-.7 1.6-1.6 1.6zm-18.7-3.2h17.1v-14.4h-6.4c-.65 0-1.16-.32-1.4-.88l-27.8-58.32h-22.02v14.4h11.2c.64 0 1.16.32 1.48.88z" stroke="#fff" stroke-opacity="0" stroke-width="2" fill="#fff"/><path d="M998.62 585.33h-20.78c-.57 0-1.06-.3-1.38-.73-.32-.53-.32-1.12-.07-1.6l21.76-45.46c.25-.6.82-.93 1.42-.93.64 0 1.17.35 1.45.9l10.4 21.43c.26.44.26.92 0 1.4l-11.36 23.98c-.2.64-.78 1.03-1.45 1.03zm-18.23-3.2h17.23l10.6-22.38-8.62-17.88z" stroke="#fff" stroke-opacity="0" stroke-width="2" fill="#fff"/><use xlink:href="#d" transform="matrix(1,0,0,1,924.6666666666667,614.3333333333334) translate(18.54938271604938 17.77777777777778)"/><use xlink:href="#e" transform="matrix(1,0,0,1,924.6666666666667,614.3333333333334) translate(149.10493827160496 17.77777777777778)"/><path d="M745.06 417.94l-83.7 43.24-.93-1.78 84.63-43.7zm15.64-8.08h-4.36l11.2-5.78h4.35zm179.46-92.7L813.2 382.73h-4.37l130.4-67.36z" stroke="#5e5e5e" stroke-width=".05" fill="#5e5e5e"/><path d="M661.37 461.17l-1.37.7v-2.25l.45-.23z" fill="#5e5e5e"/><path d="M661.4 461.18l-1.42.74v-2.3l.48-.26zm-1.38-1.54v2.2l1.32-.68-.9-1.74z" stroke="#5e5e5e" stroke-width=".05" fill="#5e5e5e"/><path d="M942.7 319.93l-4.24-8.24 14.8-2.44z" fill="#5e5e5e"/><path d="M942.46 321.6l-5.52-10.68 19.2-3.15zm-2.48-9.15l3 5.8 7.4-7.5z" stroke="#5e5e5e" stroke-width=".05" fill="#5e5e5e"/><use xlink:href="#f" transform="matrix(1,0,0,1,727.3492683442806,382.7427800115518) translate(0.005000000000002558 14.222222222222223)"/><path d="M936.18 544.03l-.03 2-65.8-1.08v-2zm-191.86-3.14v2l-83.34-1.37.04-2z" stroke="#5e5e5e" stroke-width=".05" fill="#5e5e5e"/><path d="M661.04 539.53l-.03 2-1-.02v-2z" fill="#5e5e5e"/><path d="M661.07 539.5l-.04 2.05h-1.05v-2.06zm-1.05 2h.97l.02-1.95h-1z" stroke="#5e5e5e" stroke-width=".05" fill="#5e5e5e"/><path d="M951.43 545.28l-14.34 4.4.14-9.27z" fill="#5e5e5e"/><path d="M954.67 545.33l-18.6 5.7.2-12zm-16.56 3l10.1-3.1-9.98-3.43z" stroke="#5e5e5e" stroke-width=".05" fill="#5e5e5e"/><use xlink:href="#g" transform="matrix(1,0,0,1,744.3209876543405,532.2550911039655) translate(0.005000000000002558 14.222222222222223)"/><path d="M366.36 465.75h-46.6v-2h46.6zm155.14 0h-29.1v-2h29.1z" stroke="#5e5e5e" stroke-width=".05" fill="#5e5e5e"/><path d="M319.78 465.75h-1.03v-2h1.03z" stroke="#5e5e5e" stroke-width=".05" fill="#5e5e5e"/><path d="M536.76 464.75l-14.26 4.63v-9.26z" fill="#5e5e5e"/><path d="M540 464.75l-18.5 6v-12zM523.5 468l10.03-3.25-10.03-3.26z" stroke="#5e5e5e" stroke-width=".05" fill="#5e5e5e"/><use xlink:href="#f" transform="matrix(1,0,0,1,366.362654321007,454.0833333333333) translate(0.005000000000002558 14.222222222222223)"/><path d="M366.1 499.75h-46.85v-2h46.86zm155.4 0h-29.36v-2h29.36z" stroke="#5e5e5e" stroke-width=".05" fill="#5e5e5e"/><path d="M319.28 499.75h-1.03v-2h1.03z" stroke="#5e5e5e" stroke-width=".05" fill="#5e5e5e"/><path d="M536.76 498.75l-14.26 4.63v-9.26z" fill="#5e5e5e"/><path d="M540 498.75l-18.5 6v-12zM523.5 502l10.03-3.25-10.03-3.26z" stroke="#5e5e5e" stroke-width=".05" fill="#5e5e5e"/><use xlink:href="#h" transform="matrix(1,0,0,1,366.112654321007,488.0833333333333) translate(0.005000000000002558 14.222222222222223)"/><path d="M661.34 495.2l-.9-1.8 124.12-62.2h4.46zm170.24-85.34h-4.47l11.55-5.78h4.46zm108.46-54.38l-86.67 43.45v-2.24l85.78-43z" stroke="#5e5e5e" stroke-width=".05" fill="#5e5e5e"/><path d="M661.37 495.18l-1.37.7v-2.25l.47-.23z" fill="#5e5e5e"/><path d="M661.4 495.2l-1.42.7v-2.28l.5-.26zm-1.38-1.55v2.18l1.3-.66-.86-1.74z" stroke="#5e5e5e" stroke-width=".05" fill="#5e5e5e"/><path d="M942.57 358.3l-4.16-8.3 14.84-2.25z" fill="#5e5e5e"/><path d="M942.3 359.96l-5.4-10.75 19.24-2.9zm-2.38-9.18l2.93 5.83 7.5-7.4z" stroke="#5e5e5e" stroke-width=".05" fill="#5e5e5e"/><use xlink:href="#h" transform="matrix(1,0,0,1,745.0562817719875,409.85730020537346) translate(0.005000000000002558 14.222222222222223)"/><path d="M954.67 272.67h120v120h-120v-120z" stroke="#fff" stroke-opacity="0" stroke-width="2" fill="#d86613"/><path d="M1051.47 372.67h-19.72c-.64 0-1.15-.32-1.4-.88l-27.92-58.33h-11.78c-.9 0-1.6-.72-1.6-1.6v-17.6c0-.88.7-1.6 1.6-1.6h24.65c.64 0 1.15.32 1.4.88l27.8 58.32h6.97c.9 0 1.6.72 1.6 1.6v17.6c0 .88-.7 1.6-1.6 1.6zm-18.7-3.2h17.1v-14.4h-6.4c-.65 0-1.16-.32-1.4-.88l-27.8-58.33h-22.02v14.4h11.2c.64 0 1.16.32 1.48.88z" stroke="#fff" stroke-opacity="0" stroke-width="2" fill="#fff"/><path d="M998.62 372.67h-20.78c-.57 0-1.06-.3-1.38-.73-.32-.54-.32-1.13-.07-1.6l21.76-45.47c.25-.58.82-.92 1.42-.92.64 0 1.17.34 1.45.87l10.4 21.44c.26.44.26.93 0 1.4l-11.36 23.98c-.2.64-.78 1.03-1.45 1.03zm-18.23-3.22h17.23l10.6-22.36-8.62-17.9z" stroke="#fff" stroke-opacity="0" stroke-width="2" fill="#fff"/><use xlink:href="#i" transform="matrix(1,0,0,1,924.6666666666667,401.6666666666667) translate(48.117283950617285 17.77777777777778)"/><path d="M954.67 698h120v120h-120V698z" stroke="#fff" stroke-opacity="0" stroke-width="2" fill="#d86613"/><path d="M1051.47 798h-19.72c-.64 0-1.15-.32-1.4-.88l-27.92-58.32h-11.78c-.9 0-1.6-.72-1.6-1.6v-17.6c0-.88.7-1.6 1.6-1.6h24.65c.64 0 1.15.32 1.4.88l27.8 58.32h6.97c.9 0 1.6.72 1.6 1.6v17.6c0 .88-.7 1.6-1.6 1.6zm-18.7-3.2h17.1v-14.4h-6.4c-.65 0-1.16-.32-1.4-.88l-27.8-58.32h-22.02v14.4h11.2c.64 0 1.16.32 1.48.88z" stroke="#fff" stroke-opacity="0" stroke-width="2" fill="#fff"/><path d="M998.62 798h-20.78c-.57 0-1.06-.3-1.38-.73-.32-.54-.32-1.12-.07-1.6l21.76-45.46c.25-.58.82-.92 1.42-.92.64 0 1.17.34 1.45.88l10.4 21.43c.26.43.26.92 0 1.4L1000.08 797c-.2.63-.78 1.02-1.45 1.02zm-18.23-3.22h17.23l10.6-22.36-8.62-17.88z" stroke="#fff" stroke-opacity="0" stroke-width="2" fill="#fff"/><use xlink:href="#d" transform="matrix(1,0,0,1,924.6666666666667,827) translate(18.54938271604938 17.77777777777778)"/><use xlink:href="#j" transform="matrix(1,0,0,1,924.6666666666667,827) translate(149.10493827160496 17.77777777777778)"/><path d="M365.84 538.92H318.7v-2h47.14zm155.66 0h-29.63v-2h29.63z" stroke="#5e5e5e" stroke-width=".05" fill="#5e5e5e"/><path d="M318.74 538.92h-1.03v-2h1.04z" stroke="#5e5e5e" stroke-width=".05" fill="#5e5e5e"/><path d="M536.76 537.92l-14.26 4.63v-9.27z" fill="#5e5e5e"/><path d="M540 537.92l-18.5 6v-12zm-16.5 3.26l10.03-3.26-10.03-3.26z" stroke="#5e5e5e" stroke-width=".05" fill="#5e5e5e"/><use xlink:href="#g" transform="matrix(1,0,0,1,365.84212154604427,527.250291225264) translate(0.005000000000002558 14.222222222222223)"/><path d="M365.65 566.62h-47.32v-2h47.32zm155.85 0h-29.82v-2h29.82z" stroke="#5e5e5e" stroke-width=".05" fill="#5e5e5e"/><path d="M318.36 566.62h-1.03v-2h1.03z" stroke="#5e5e5e" stroke-width=".05" fill="#5e5e5e"/><path d="M536.76 565.62l-14.26 4.63v-9.27z" fill="#5e5e5e"/><path d="M540 565.62l-18.5 6V559.6zm-16.5 3.25l10.03-3.25-10.03-3.26z" stroke="#5e5e5e" stroke-width=".05" fill="#5e5e5e"/><use xlink:href="#k" transform="matrix(1,0,0,1,365.6543209876737,554.9494136707806) translate(0.005000000000002558 14.222222222222223)"/><path d="M938.85 712.75l-.95 1.76-112.87-60.77h4.22zM789.63 632.4h-4.2L660.4 565.08l.96-1.76z" stroke="#5e5e5e" stroke-width=".05" fill="#5e5e5e"/><path d="M661.38 563.33l-.95 1.76-.43-.24v-2.27z" fill="#5e5e5e"/><path d="M661.4 563.32l-.96 1.8-.47-.25v-2.33zm-1.38 1.52l.4.2.92-1.7-1.32-.7z" stroke="#5e5e5e" stroke-width=".05" fill="#5e5e5e"/><path d="M951.82 720.87l-14.76-2.68 4.4-8.17z" fill="#5e5e5e"/><path d="M954.67 722.4l-19.14-3.47 5.7-10.6zm-16.08-4.95l10.37 1.9-7.3-7.64z" stroke="#5e5e5e" stroke-width=".05" fill="#5e5e5e"/><g><use xlink:href="#k" transform="matrix(1,0,0,1,744.3209876543405,632.3971881151646) translate(0.005000000000002558 14.222222222222223)"/></g><defs><path fill="#333" d="M205 0l-28-72H64L36 0H1l101-248h38L239 0h-34zm-38-99l-47-123c-12 45-31 82-46 123h93" id="l"/><path fill="#333" d="M210-169c-67 3-38 105-44 169h-31v-121c0-29-5-50-35-48C34-165 62-65 56 0H25l-1-190h30c1 10-1 24 2 32 10-44 99-50 107 0 11-21 27-35 58-36 85-2 47 119 55 194h-31v-121c0-29-5-49-35-48" id="m"/><path fill="#333" d="M141-36C126-15 110 5 73 4 37 3 15-17 15-53c-1-64 63-63 125-63 3-35-9-54-41-54-24 1-41 7-42 31l-33-3c5-37 33-52 76-52 45 0 72 20 72 64v82c-1 20 7 32 28 27v20c-31 9-61-2-59-35zM48-53c0 20 12 33 32 33 41-3 63-29 60-74-43 2-92-5-92 41" id="n"/><path fill="#333" d="M9 0v-24l116-142H16v-24h144v24L44-24h123V0H9" id="o"/><path fill="#333" d="M100-194c62-1 85 37 85 99 1 63-27 99-86 99S16-35 15-95c0-66 28-99 85-99zM99-20c44 1 53-31 53-75 0-43-8-75-51-75s-53 32-53 75 10 74 51 75" id="p"/><path fill="#333" d="M117-194c89-4 53 116 60 194h-32v-121c0-31-8-49-39-48C34-167 62-67 57 0H25l-1-190h30c1 10-1 24 2 32 11-22 29-35 61-36" id="q"/><g id="a"><use transform="matrix(0.06172839506172839,0,0,0.06172839506172839,0,0)" xlink:href="#l"/><use transform="matrix(0.06172839506172839,0,0,0.06172839506172839,14.814814814814813,0)" xlink:href="#m"/><use transform="matrix(0.06172839506172839,0,0,0.06172839506172839,33.2716049382716,0)" xlink:href="#n"/><use transform="matrix(0.06172839506172839,0,0,0.06172839506172839,45.61728395061728,0)" xlink:href="#o"/><use transform="matrix(0.06172839506172839,0,0,0.06172839506172839,56.72839506172839,0)" xlink:href="#p"/><use transform="matrix(0.06172839506172839,0,0,0.06172839506172839,69.07407407407408,0)" xlink:href="#q"/></g><path fill="#333" d="M30-248c87 1 191-15 191 75 0 78-77 80-158 76V0H30v-248zm33 125c57 0 124 11 124-50 0-59-68-47-124-48v98" id="r"/><path fill="#333" d="M33 0v-248h34V0H33" id="s"/><g id="b"><use transform="matrix(0.06172839506172839,0,0,0.06172839506172839,0,0)" xlink:href="#l"/><use transform="matrix(0.06172839506172839,0,0,0.06172839506172839,14.814814814814813,0)" xlink:href="#r"/><use transform="matrix(0.06172839506172839,0,0,0.06172839506172839,29.629629629629626,0)" xlink:href="#s"/></g><path fill="#333" d="M143 4C61 4 22-44 18-125c-5-107 100-154 193-111 17 8 29 25 37 43l-32 9c-13-25-37-40-76-40-61 0-88 39-88 99 0 61 29 100 91 101 35 0 62-11 79-27v-45h-74v-28h105v86C228-13 192 4 143 4" id="t"/><path fill="#333" d="M59-47c-2 24 18 29 38 22v24C64 9 27 4 27-40v-127H5v-23h24l9-43h21v43h35v23H59v120" id="u"/><path fill="#333" d="M100-194c63 0 86 42 84 106H49c0 40 14 67 53 68 26 1 43-12 49-29l28 8c-11 28-37 45-77 45C44 4 14-33 15-96c1-61 26-98 85-98zm52 81c6-60-76-77-97-28-3 7-6 17-6 28h103" id="v"/><path fill="#333" d="M206 0h-36l-40-164L89 0H53L-1-190h32L70-26l43-164h34l41 164 42-164h31" id="w"/><path fill="#333" d="M179-190L93 31C79 59 56 82 12 73V49c39 6 53-20 64-50L1-190h34L92-34l54-156h33" id="x"/><g id="c"><use transform="matrix(0.06172839506172839,0,0,0.06172839506172839,0,0)" xlink:href="#t"/><use transform="matrix(0.06172839506172839,0,0,0.06172839506172839,17.28395061728395,0)" xlink:href="#n"/><use transform="matrix(0.06172839506172839,0,0,0.06172839506172839,29.629629629629626,0)" xlink:href="#u"/><use transform="matrix(0.06172839506172839,0,0,0.06172839506172839,35.80246913580247,0)" xlink:href="#v"/><use transform="matrix(0.06172839506172839,0,0,0.06172839506172839,48.148148148148145,0)" xlink:href="#w"/><use transform="matrix(0.06172839506172839,0,0,0.06172839506172839,64.1358024691358,0)" xlink:href="#n"/><use transform="matrix(0.06172839506172839,0,0,0.06172839506172839,76.48148148148148,0)" xlink:href="#x"/></g><path fill="#333" d="M240 0l2-218c-23 76-54 145-80 218h-23L58-218 59 0H30v-248h44l77 211c21-75 51-140 76-211h43V0h-30" id="y"/><path fill="#333" d="M24-231v-30h32v30H24zM24 0v-190h32V0H24" id="z"/><path fill="#333" d="M96-169c-40 0-48 33-48 73s9 75 48 75c24 0 41-14 43-38l32 2c-6 37-31 61-74 61-59 0-76-41-82-99-10-93 101-131 147-64 4 7 5 14 7 22l-32 3c-4-21-16-35-41-35" id="A"/><path fill="#333" d="M114-163C36-179 61-72 57 0H25l-1-190h30c1 12-1 29 2 39 6-27 23-49 58-41v29" id="B"/><path fill="#333" d="M135-143c-3-34-86-38-87 0 15 53 115 12 119 90S17 21 10-45l28-5c4 36 97 45 98 0-10-56-113-15-118-90-4-57 82-63 122-42 12 7 21 19 24 35" id="C"/><path fill="#333" d="M108 0H70L1-190h34L89-25l56-165h34" id="D"/><g id="d"><use transform="matrix(0.06172839506172839,0,0,0.06172839506172839,0,0)" xlink:href="#y"/><use transform="matrix(0.06172839506172839,0,0,0.06172839506172839,18.456790123456788,0)" xlink:href="#z"/><use transform="matrix(0.06172839506172839,0,0,0.06172839506172839,23.33333333333333,0)" xlink:href="#A"/><use transform="matrix(0.06172839506172839,0,0,0.06172839506172839,34.44444444444444,0)" xlink:href="#B"/><use transform="matrix(0.06172839506172839,0,0,0.06172839506172839,41.79012345679012,0)" xlink:href="#p"/><use transform="matrix(0.06172839506172839,0,0,0.06172839506172839,54.1358024691358,0)" xlink:href="#C"/><use transform="matrix(0.06172839506172839,0,0,0.06172839506172839,65.24691358024691,0)" xlink:href="#v"/><use transform="matrix(0.06172839506172839,0,0,0.06172839506172839,77.5925925925926,0)" xlink:href="#B"/><use transform="matrix(0.06172839506172839,0,0,0.06172839506172839,84.93827160493828,0)" xlink:href="#D"/><use transform="matrix(0.06172839506172839,0,0,0.06172839506172839,96.0493827160494,0)" xlink:href="#z"/><use transform="matrix(0.06172839506172839,0,0,0.06172839506172839,100.92592592592594,0)" xlink:href="#A"/><use transform="matrix(0.06172839506172839,0,0,0.06172839506172839,112.03703703703705,0)" xlink:href="#v"/></g><path fill="#333" d="M27 0v-27h64v-190l-56 39v-29l58-41h29v221h61V0H27" id="E"/><use transform="matrix(0.06172839506172839,0,0,0.06172839506172839,0,0)" xlink:href="#E" id="e"/><path fill="#333" d="M4 7l51-268h42L46 7H4" id="F"/><path fill="#333" d="M133-34C117-15 103 5 69 4 32 3 11-16 11-54c-1-60 55-63 116-61 1-26-3-47-28-47-18 1-26 9-28 27l-52-2c7-38 36-58 82-57s74 22 75 68l1 82c-1 14 12 18 25 15v27c-30 8-71 5-69-32zm-48 3c29 0 43-24 42-57-32 0-66-3-65 30 0 17 8 27 23 27" id="G"/><path fill="#333" d="M135-194c53 0 70 44 70 98 0 56-19 98-73 100-31 1-45-17-59-34 3 33 2 69 2 105H25l-1-265h48c2 10 0 23 3 31 11-24 29-35 60-35zM114-30c33 0 39-31 40-66 0-38-9-64-40-64-56 0-55 130 0 130" id="H"/><path fill="#333" d="M25-224v-37h50v37H25zM25 0v-190h50V0H25" id="I"/><path fill="#333" d="M185-48c-13 30-37 53-82 52C43 2 14-33 14-96s30-98 90-98c62 0 83 45 84 108H66c0 31 8 55 39 56 18 0 30-7 34-22zm-45-69c5-46-57-63-70-21-2 6-4 13-4 21h74" id="J"/><path fill="#333" d="M135-194c87-1 58 113 63 194h-50c-7-57 23-157-34-157-59 0-34 97-39 157H25l-1-190h47c2 12-1 28 3 38 12-26 28-41 61-42" id="K"/><path fill="#333" d="M88-194c31-1 46 15 58 34l-1-101h50l1 261h-48c-2-10 0-23-3-31C134-8 116 4 84 4 32 4 16-41 15-95c0-56 19-97 73-99zm17 164c33 0 40-30 41-66 1-37-9-64-41-64s-38 30-39 65c0 43 13 65 39 65" id="L"/><path fill="#333" d="M110-194c64 0 96 36 96 99 0 64-35 99-97 99-61 0-95-36-95-99 0-62 34-99 96-99zm-1 164c35 0 45-28 45-65 0-40-10-65-43-65-34 0-45 26-45 65 0 36 10 65 43 65" id="M"/><path fill="#333" d="M115-3C79 11 28 4 28-45v-112H4v-33h27l15-45h31v45h36v33H77v99c-1 23 16 31 38 25v30" id="N"/><path fill="#333" d="M14-72v-43h91v43H14" id="O"/><path fill="#333" d="M23 0v-37h61v-169l-59 37v-38l62-41h46v211h57V0H23" id="P"/><g id="f"><use transform="matrix(0.04938271604938272,0,0,0.04938271604938272,0,0)" xlink:href="#F"/><use transform="matrix(0.04938271604938272,0,0,0.04938271604938272,4.938271604938272,0)" xlink:href="#G"/><use transform="matrix(0.04938271604938272,0,0,0.04938271604938272,14.814814814814817,0)" xlink:href="#H"/><use transform="matrix(0.04938271604938272,0,0,0.04938271604938272,25.629629629629633,0)" xlink:href="#I"/><use transform="matrix(0.04938271604938272,0,0,0.04938271604938272,30.567901234567906,0)" xlink:href="#F"/><use transform="matrix(0.04938271604938272,0,0,0.04938271604938272,35.50617283950618,0)" xlink:href="#J"/><use transform="matrix(0.04938271604938272,0,0,0.04938271604938272,45.38271604938272,0)" xlink:href="#K"/><use transform="matrix(0.04938271604938272,0,0,0.04938271604938272,56.19753086419754,0)" xlink:href="#L"/><use transform="matrix(0.04938271604938272,0,0,0.04938271604938272,67.01234567901236,0)" xlink:href="#H"/><use transform="matrix(0.04938271604938272,0,0,0.04938271604938272,77.82716049382717,0)" xlink:href="#M"/><use transform="matrix(0.04938271604938272,0,0,0.04938271604938272,88.64197530864197,0)" xlink:href="#I"/><use transform="matrix(0.04938271604938272,0,0,0.04938271604938272,93.58024691358025,0)" xlink:href="#K"/><use transform="matrix(0.04938271604938272,0,0,0.04938271604938272,104.39506172839508,0)" xlink:href="#N"/><use transform="matrix(0.04938271604938272,0,0,0.04938271604938272,110.27160493827161,0)" xlink:href="#O"/><use transform="matrix(0.04938271604938272,0,0,0.04938271604938272,116.14814814814815,0)" xlink:href="#P"/></g><path fill="#333" d="M128-127c34 4 56 21 59 58 7 91-148 94-172 28-4-9-6-17-7-26l51-5c1 24 16 35 40 36 23 0 39-12 38-36-1-31-31-36-65-34v-40c32 2 59-3 59-33 0-20-13-33-34-33s-33 13-35 32l-50-3c6-44 37-68 86-68 50 0 83 20 83 66 0 35-22 52-53 58" id="Q"/><g id="g"><use transform="matrix(0.04938271604938272,0,0,0.04938271604938272,0,0)" xlink:href="#F"/><use transform="matrix(0.04938271604938272,0,0,0.04938271604938272,4.938271604938272,0)" xlink:href="#G"/><use transform="matrix(0.04938271604938272,0,0,0.04938271604938272,14.814814814814817,0)" xlink:href="#H"/><use transform="matrix(0.04938271604938272,0,0,0.04938271604938272,25.629629629629633,0)" xlink:href="#I"/><use transform="matrix(0.04938271604938272,0,0,0.04938271604938272,30.567901234567906,0)" xlink:href="#F"/><use transform="matrix(0.04938271604938272,0,0,0.04938271604938272,35.50617283950618,0)" xlink:href="#J"/><use transform="matrix(0.04938271604938272,0,0,0.04938271604938272,45.38271604938272,0)" xlink:href="#K"/><use transform="matrix(0.04938271604938272,0,0,0.04938271604938272,56.19753086419754,0)" xlink:href="#L"/><use transform="matrix(0.04938271604938272,0,0,0.04938271604938272,67.01234567901236,0)" xlink:href="#H"/><use transform="matrix(0.04938271604938272,0,0,0.04938271604938272,77.82716049382717,0)" xlink:href="#M"/><use transform="matrix(0.04938271604938272,0,0,0.04938271604938272,88.64197530864197,0)" xlink:href="#I"/><use transform="matrix(0.04938271604938272,0,0,0.04938271604938272,93.58024691358025,0)" xlink:href="#K"/><use transform="matrix(0.04938271604938272,0,0,0.04938271604938272,104.39506172839508,0)" xlink:href="#N"/><use transform="matrix(0.04938271604938272,0,0,0.04938271604938272,110.27160493827161,0)" xlink:href="#O"/><use transform="matrix(0.04938271604938272,0,0,0.04938271604938272,116.14814814814815,0)" xlink:href="#Q"/></g><path fill="#333" d="M182-182c0 78-84 86-111 141h115V0H12c-6-101 99-100 120-180 1-22-12-31-33-32-23 0-32 14-35 34l-49-3c5-45 32-70 84-70 51 0 83 22 83 69" id="R"/><g id="h"><use transform="matrix(0.04938271604938272,0,0,0.04938271604938272,0,0)" xlink:href="#F"/><use transform="matrix(0.04938271604938272,0,0,0.04938271604938272,4.938271604938272,0)" xlink:href="#G"/><use transform="matrix(0.04938271604938272,0,0,0.04938271604938272,14.814814814814817,0)" xlink:href="#H"/><use transform="matrix(0.04938271604938272,0,0,0.04938271604938272,25.629629629629633,0)" xlink:href="#I"/><use transform="matrix(0.04938271604938272,0,0,0.04938271604938272,30.567901234567906,0)" xlink:href="#F"/><use transform="matrix(0.04938271604938272,0,0,0.04938271604938272,35.50617283950618,0)" xlink:href="#J"/><use transform="matrix(0.04938271604938272,0,0,0.04938271604938272,45.38271604938272,0)" xlink:href="#K"/><use transform="matrix(0.04938271604938272,0,0,0.04938271604938272,56.19753086419754,0)" xlink:href="#L"/><use transform="matrix(0.04938271604938272,0,0,0.04938271604938272,67.01234567901236,0)" xlink:href="#H"/><use transform="matrix(0.04938271604938272,0,0,0.04938271604938272,77.82716049382717,0)" xlink:href="#M"/><use transform="matrix(0.04938271604938272,0,0,0.04938271604938272,88.64197530864197,0)" xlink:href="#I"/><use transform="matrix(0.04938271604938272,0,0,0.04938271604938272,93.58024691358025,0)" xlink:href="#K"/><use transform="matrix(0.04938271604938272,0,0,0.04938271604938272,104.39506172839508,0)" xlink:href="#N"/><use transform="matrix(0.04938271604938272,0,0,0.04938271604938272,110.27160493827161,0)" xlink:href="#O"/><use transform="matrix(0.04938271604938272,0,0,0.04938271604938272,116.14814814814815,0)" xlink:href="#R"/></g><path fill="#333" d="M24 0v-261h32V0H24" id="S"/><path fill="#333" d="M106-169C34-169 62-67 57 0H25v-261h32l-1 103c12-21 28-36 61-36 89 0 53 116 60 194h-32v-121c2-32-8-49-39-48" id="T"/><g id="i"><use transform="matrix(0.06172839506172839,0,0,0.06172839506172839,0,0)" xlink:href="#y"/><use transform="matrix(0.06172839506172839,0,0,0.06172839506172839,18.456790123456788,0)" xlink:href="#p"/><use transform="matrix(0.06172839506172839,0,0,0.06172839506172839,30.80246913580247,0)" xlink:href="#q"/><use transform="matrix(0.06172839506172839,0,0,0.06172839506172839,43.148148148148145,0)" xlink:href="#p"/><use transform="matrix(0.06172839506172839,0,0,0.06172839506172839,55.49382716049382,0)" xlink:href="#S"/><use transform="matrix(0.06172839506172839,0,0,0.06172839506172839,60.37037037037037,0)" xlink:href="#z"/><use transform="matrix(0.06172839506172839,0,0,0.06172839506172839,65.24691358024691,0)" xlink:href="#u"/><use transform="matrix(0.06172839506172839,0,0,0.06172839506172839,71.41975308641975,0)" xlink:href="#T"/></g><path fill="#333" d="M101-251c82-7 93 87 43 132L82-64C71-53 59-42 53-27h129V0H18c2-99 128-94 128-182 0-28-16-43-45-43s-46 15-49 41l-32-3c6-41 34-60 81-64" id="U"/><use transform="matrix(0.06172839506172839,0,0,0.06172839506172839,0,0)" xlink:href="#U" id="j"/><path fill="#333" d="M165-50V0h-47v-50H5v-38l105-160h55v161h33v37h-33zm-47-37l2-116L46-87h72" id="V"/><g id="k"><use transform="matrix(0.04938271604938272,0,0,0.04938271604938272,0,0)" xlink:href="#F"/><use transform="matrix(0.04938271604938272,0,0,0.04938271604938272,4.938271604938272,0)" xlink:href="#G"/><use transform="matrix(0.04938271604938272,0,0,0.04938271604938272,14.814814814814817,0)" xlink:href="#H"/><use transform="matrix(0.04938271604938272,0,0,0.04938271604938272,25.629629629629633,0)" xlink:href="#I"/><use transform="matrix(0.04938271604938272,0,0,0.04938271604938272,30.567901234567906,0)" xlink:href="#F"/><use transform="matrix(0.04938271604938272,0,0,0.04938271604938272,35.50617283950618,0)" xlink:href="#J"/><use transform="matrix(0.04938271604938272,0,0,0.04938271604938272,45.38271604938272,0)" xlink:href="#K"/><use transform="matrix(0.04938271604938272,0,0,0.04938271604938272,56.19753086419754,0)" xlink:href="#L"/><use transform="matrix(0.04938271604938272,0,0,0.04938271604938272,67.01234567901236,0)" xlink:href="#H"/><use transform="matrix(0.04938271604938272,0,0,0.04938271604938272,77.82716049382717,0)" xlink:href="#M"/><use transform="matrix(0.04938271604938272,0,0,0.04938271604938272,88.64197530864197,0)" xlink:href="#I"/><use transform="matrix(0.04938271604938272,0,0,0.04938271604938272,93.58024691358025,0)" xlink:href="#K"/><use transform="matrix(0.04938271604938272,0,0,0.04938271604938272,104.39506172839508,0)" xlink:href="#N"/><use transform="matrix(0.04938271604938272,0,0,0.04938271604938272,110.27160493827161,0)" xlink:href="#O"/><use transform="matrix(0.04938271604938272,0,0,0.04938271604938272,116.14814814814815,0)" xlink:href="#V"/></g></defs></g></svg>