<svg xmlns="http://www.w3.org/2000/svg" xmlns:xlink="http://www.w3.org/1999/xlink" xmlns:lucid="lucid" width="1172.69" height="544.67"><g transform="translate(-314.3333333333333 -244.33333333337214)" lucid:page-tab-id="0_0"><path d="M956.14 264.33h56.65V397h-56.66V264.33zM1016.42 264.33h56.78V397h-56.78V264.33z" fill="#979ea8"/><path d="M970.07 273.62c1.52 0 1.52 0 1.52 1.33v8.1c0 1.32 0 1.32-1.53 1.32s-1.53 0-1.53-1.33v-8.1c0-1.32 0-1.32 1.53-1.32zM977.2 273.62c1.65 0 1.65 0 1.65 1.33v8.1c0 1.32 0 1.32-1.64 1.32-1.5 0-1.5 0-1.5-1.33v-8.1c0-1.32 0-1.32 1.5-1.32zM991.37 273.62c1.52 0 1.52 0 1.52 1.33v8.1c0 1.32 0 1.32-1.53 1.32-1.52 0-1.52 0-1.52-1.33v-8.1c0-1.32 0-1.32 1.52-1.32zM998.04 273.62c1.64 0 1.64 0 1.64 1.33v8.1c0 1.32 0 1.32-1.64 1.32-1.52 0-1.52 0-1.52-1.33v-8.1c0-1.32 0-1.32 1.52-1.32zM969.95 288.88h.7c1.17 0 1.17 0 1.17 1.2v6.36c0 1.06 0 1.06-1.17 1.06h-.7c-1.17 0-1.17 0-1.17-1.06v-6.37c0-1.2 0-1.2 1.17-1.2zM977.2 288.88h.7c1.18 0 1.18 0 1.18 1.2v6.36c0 1.06 0 1.06-1.17 1.06h-.7c-1.16 0-1.16 0-1.16-1.06v-6.37c0-1.2 0-1.2 1.17-1.2zM991.5 288.88h.7c1.16 0 1.16 0 1.16 1.2v6.36c0 1.06 0 1.06-1.17 1.06h-.7c-1.18 0-1.18 0-1.18-1.06v-6.37c0-1.2 0-1.2 1.17-1.2zM998.28 288.88h.7c1.3 0 1.3 0 1.3 1.2v6.36c0 1.06 0 1.06-1.3 1.06h-.7c-1.17 0-1.17 0-1.17-1.06v-6.37c0-1.2 0-1.2 1.18-1.2zM978.03 380.02h26.1c1.3 0 1.3 0 1.3 1.06 0 1.2 0 1.2-1.3 1.2h-26.1c-1.3 0-1.3 0-1.3-1.2 0-1.06 0-1.06 1.3-1.06zM978.03 384.53h26.1c1.3 0 1.3 0 1.3 1.2 0 1.06 0 1.06-1.3 1.06h-26.1c-1.3 0-1.3 0-1.3-1.08 0-1.2 0-1.2 1.3-1.2zM978.03 388.38h26.1c1.3 0 1.3 0 1.3 1.06s0 1.06-1.3 1.06h-26.1c-1.3 0-1.3 0-1.3-1.06s0-1.06 1.3-1.06zM1039.48 380.95h26.1c1.3 0 1.3 0 1.3 1.06 0 1.07 0 1.07-1.3 1.07h-26.1c-1.3 0-1.3 0-1.3-1.06 0-1.05 0-1.05 1.3-1.05zM1039.48 385.46h26.1c1.3 0 1.3 0 1.3 1.06s0 1.06-1.3 1.06h-26.1c-1.3 0-1.3 0-1.3-1.06s0-1.06 1.3-1.06zM1039.48 389.17h26.1c1.3 0 1.3 0 1.3 1.2 0 1.06 0 1.06-1.3 1.06h-26.1c-1.3 0-1.3 0-1.3-1.06 0-1.2 0-1.2 1.3-1.2zM1040.3 272.43h25.52v24.94h-25.52v-24.94z" fill="#fff"/><path d="M1043.35 274.42h3.04v4.5h-3.05v-4.5zM1051.54 274.42h3.04v4.5h-3.04v-4.5zM1059.85 274.42h3.05v4.5h-3.05v-4.5zM1043.46 283.44h3.16v4.38h-3.16v-4.38zM1051.66 283.44h3.16v4.38h-3.16v-4.38zM1059.85 283.44h3.05v4.38h-3.05v-4.38zM1043.58 291.53h3.04v4.38h-3.04v-4.37zM1051.77 291.53h3.05v4.38h-3.05v-4.37zM1059.97 291.53h3.16v4.38h-3.16v-4.37z" fill="#acb1b9"/><use xlink:href="#a" transform="matrix(1,0,0,1,926.1372549019609,397.00000000003877) translate(50.79012345679013 19.444444444444443)"/><path d="M540 452h120v120H540V452z" stroke="#fff" stroke-opacity="0" fill="#693cc5"/><path d="M617.6 550.42c-.35 0-.64-.15-.93-.3-.43-.3-.67-.77-.67-1.3v-73.63c0-.55.3-1.08.77-1.4.48-.3 1.08-.3 1.6-.07l20.8 10.22c.56.23.9.77.9 1.38v56.56c.02.76-.4 1.37-1.1 1.6l-20.8 6.92h-.56zm1.63-72.62v68.78l17.6-5.84v-54.4zM582.4 550.42h-.52l-20.8-6.92c-.67-.23-1.1-.92-1.08-1.6v-56.57c0-.6.33-1.15.9-1.38l20.8-10.22c.52-.23 1.1-.23 1.6.08.48.3.75.85.75 1.4v73.6c0 .54-.24 1-.67 1.3-.3.24-.6.32-1 .32zm-19.2-9.6l17.6 5.83V477.8l-17.6 8.6z" stroke="#fff" stroke-opacity="0" fill="#fff"/><path d="M616 496h-4.8v-3.2h4.8zm-9.6 0h-4.8v-3.2h4.8zm-9.6 0H592v-3.2h4.8zm-9.6 0h-4.8v-3.2h4.8zM616 531.2h-4.8V528h4.8zm-9.6 0h-4.8V528h4.8zm-9.6 0H592V528h4.8zm-9.6 0h-4.8V528h4.8zM592.98 517.5l-6.02-5.13c-.67-.57-.75-1.6-.18-2.26l.18-.17 6-5.13 2.08 2.43-4.58 3.97 4.58 3.92zM607.04 517.5l-2.08-2.42 4.57-3.88-4.6-3.9 2.1-2.5 6 5.12c.68.57.76 1.6.2 2.26-.07.07-.12.12-.2.17z" stroke="#fff" stroke-opacity="0" fill="#fff"/><path d="M595.3 520.87l6.35-18.8 3.03 1.03-6.35 18.8-3.04-1.03z" stroke="#fff" stroke-opacity="0" stroke-width=".32" fill="#fff"/><use xlink:href="#b" transform="matrix(1,0,0,1,510.00000000003877,581) translate(28.30246913580247 17.77777777777778)"/><use xlink:href="#c" transform="matrix(1,0,0,1,510.00000000003877,581) translate(115.89506172839506 17.77777777777778)"/><use xlink:href="#d" transform="matrix(1,0,0,1,510.00000000003877,581) translate(46.2037037037037 44.44444444444444)"/><path d="M954.67 620h120v120h-120V620z" stroke="#fff" stroke-opacity="0" stroke-width="2" fill="#d86613"/><path d="M1051.47 720h-19.72c-.64 0-1.15-.32-1.4-.88l-27.92-58.32h-11.78c-.9 0-1.6-.72-1.6-1.6v-17.6c0-.88.7-1.6 1.6-1.6h24.65c.64 0 1.15.32 1.4.88l27.8 58.32h6.97c.9 0 1.6.72 1.6 1.6v17.6c0 .88-.7 1.6-1.6 1.6zm-18.7-3.2h17.1v-14.4h-6.4c-.65 0-1.16-.32-1.4-.88l-27.8-58.32h-22.02v14.4h11.2c.64 0 1.16.32 1.48.88z" stroke="#fff" stroke-opacity="0" stroke-width="2" fill="#fff"/><path d="M998.62 720h-20.78c-.57 0-1.06-.3-1.38-.73-.32-.54-.32-1.12-.07-1.6l21.76-45.46c.25-.58.82-.92 1.42-.92.64 0 1.17.34 1.45.88l10.4 21.43c.26.43.26.92 0 1.4L1000.08 719c-.2.63-.78 1.02-1.45 1.02zm-18.23-3.22h17.23l10.6-22.36-8.62-17.88z" stroke="#fff" stroke-opacity="0" stroke-width="2" fill="#fff"/><use xlink:href="#e" transform="matrix(1,0,0,1,924.6666666666667,749) translate(21.944444444444443 17.77777777777778)"/><use xlink:href="#f" transform="matrix(1,0,0,1,924.6666666666667,749) translate(77.87037037037035 17.77777777777778)"/><path d="M745.06 424.07l-83.7 45.66-.96-1.75 84.66-46.2zm16.36-8.93h-4.18l11.48-6.26h4.18zm178.95-97.63L812 387.56h-4.17l131.6-71.8z" stroke="#5e5e5e" stroke-width=".05" fill="#5e5e5e"/><path d="M661.38 469.72l-1.38.75v-2.28l.42-.24z" fill="#5e5e5e"/><path d="M661.4 469.73l-1.42.78v-2.32l.45-.25zm-1.38-1.52v2.23l1.33-.72-.94-1.7z" stroke="#5e5e5e" stroke-width=".05" fill="#5e5e5e"/><path d="M943 320.23l-4.45-8.14 14.75-2.78z" fill="#5e5e5e"/><path d="M942.77 321.9l-5.75-10.54 19.12-3.6zm-2.68-9.08l3.1 5.72 7.26-7.67z" stroke="#5e5e5e" stroke-width=".05" fill="#5e5e5e"/><use xlink:href="#g" transform="matrix(1,0,0,1,727.3492683442806,387.54767220480124) translate(0.005000000000002558 14.222222222222223)"/><path d="M937.66 648.33l-.7 1.88-103.68-38.35h5.76zM781.4 590.5h-5.78L660.6 547.96l.68-1.87z" stroke="#5e5e5e" stroke-width=".05" fill="#5e5e5e"/><path d="M661.3 546.1l-.68 1.86-.62-.23v-2.13z" fill="#5e5e5e"/><path d="M661.34 546.07l-.7 1.92-.66-.25v-2.18zm-1.32 1.65l.58.2.68-1.82-1.25-.46z" stroke="#5e5e5e" stroke-width=".05" fill="#5e5e5e"/><path d="M951.63 654.57l-15-.6 3.23-8.7z" fill="#5e5e5e"/><path d="M954.67 655.7l-19.44-.8 4.17-11.27zm-16.6-2.68l10.53.43-8.28-6.54z" stroke="#5e5e5e" stroke-width=".05" fill="#5e5e5e"/><use xlink:href="#h" transform="matrix(1,0,0,1,744.3209876543405,590.5123258306527) translate(0.005000000000002558 14.222222222222223)"/><path d="M1418.1 452c27.93 0 47.4 8.04 47.4 19.56v80.88c0 5.04-3.42 14.04-26.22 17.88-3.6.6-7.4 1.08-11.3 1.32-1.62.12-3.24.24-4.94.24-1.62.12-3.23.12-4.94.12-1.7 0-3.33 0-5.04-.12-1.62 0-3.23-.12-4.85-.24-3.88-.24-7.68-.72-11.3-1.32-22.98-3.84-26.4-12.84-26.4-17.88v-80.88c0-11.52 19.57-19.56 47.6-19.56zm20.33 112.92c13.48-2.28 21.56-6.96 21.56-12.48v-76.32c-8.28 5.04-23.76 8.28-41.9 8.28-18.15 0-33.92-3.24-42.1-8.4v76.44c0 5.4 8.37 10.2 21.77 12.48 3.4.6 7.12.96 10.92 1.32 1.5.12 3.03.12 4.64.24 3.14.12 6.37.12 9.5 0 1.62-.12 3.14-.12 4.66-.24 3.8-.36 7.4-.72 10.92-1.32zm-20.34-107.4c-23.56 0-38.95 5.88-41.62 12.12l.1-.12c4.37 4.56 19.3 9.36 41.52 9.36 22.23 0 36.86-4.8 41.42-9.24-2.66-6.24-18.06-12.12-41.42-12.12z" stroke="#000" stroke-opacity="0" fill="#5e5e5e"/><use xlink:href="#i" transform="matrix(1,0,0,1,1340.4999999999613,581) translate(29.52500000000002 17.955555555555552)"/><path d="M1074.1 357.4l279.53 125.66" stroke="#5e5e5e" stroke-width="2" fill="none"/><path d="M1074.54 356.5l-.82 1.8-.52-.22v-2.2z" stroke="#5e5e5e" stroke-width=".05" fill="#5e5e5e"/><path d="M1367.55 489.32l-14.9-1.62 3.8-8.46z" stroke="#5e5e5e" stroke-width="2" fill="#5e5e5e"/><path d="M1075.6 654.62L1353.4 538.9" stroke="#5e5e5e" stroke-width="2" fill="none"/><path d="M1076 655.54l-1.33.55v-2.18l.56-.23z" stroke="#5e5e5e" stroke-width=".05" fill="#5e5e5e"/><path d="M1367.5 533.03l-11.37 9.76-3.57-8.56z" stroke="#5e5e5e" stroke-width="2" fill="#5e5e5e"/><path d="M365.65 477h-47.32v-2h47.32zm155.85 0h-29.82v-2h29.82z" stroke="#5e5e5e" stroke-width=".05" fill="#5e5e5e"/><path d="M318.36 477h-1.03v-2h1.03z" stroke="#5e5e5e" stroke-width=".05" fill="#5e5e5e"/><path d="M536.76 476l-14.26 4.63v-9.26z" fill="#5e5e5e"/><path d="M540 476l-18.5 6v-12zm-16.5 3.26l10.03-3.26-10.03-3.26z" stroke="#5e5e5e" stroke-width=".05" fill="#5e5e5e"/><use xlink:href="#g" transform="matrix(1,0,0,1,365.6543209876737,465.3333333333333) translate(0.005000000000002558 14.222222222222223)"/><path d="M365.65 509h-47.32v-2h47.32zm155.85 0h-29.82v-2h29.82z" stroke="#5e5e5e" stroke-width=".05" fill="#5e5e5e"/><path d="M318.36 509h-1.03v-2h1.03z" stroke="#5e5e5e" stroke-width=".05" fill="#5e5e5e"/><path d="M536.76 508l-14.26 4.63v-9.26z" fill="#5e5e5e"/><path d="M540 508l-18.5 6v-12zm-16.5 3.26l10.03-3.26-10.03-3.26z" stroke="#5e5e5e" stroke-width=".05" fill="#5e5e5e"/><use xlink:href="#j" transform="matrix(1,0,0,1,365.6543209876737,497.33333333333337) translate(0.005000000000002558 14.222222222222223)"/><path d="M661.35 505.73l-.94-1.76 125.7-67.5h4.22zm168.7-90.6h-4.23l11.66-6.25h4.23zm110.26-59.2l-86.93 46.7v-2.28l86-46.18z" stroke="#5e5e5e" stroke-width=".05" fill="#5e5e5e"/><path d="M661.38 505.72l-1.38.74v-2.27l.43-.24z" fill="#5e5e5e"/><path d="M661.4 505.73l-1.42.77v-2.32l.46-.25zm-1.38-1.52v2.22l1.32-.7-.92-1.73z" stroke="#5e5e5e" stroke-width=".05" fill="#5e5e5e"/><path d="M942.9 358.66l-4.38-8.17 14.77-2.67z" fill="#5e5e5e"/><path d="M942.68 360.35l-5.7-10.6 19.16-3.45zm-2.62-9.12l3.08 5.75 7.3-7.62z" stroke="#5e5e5e" stroke-width=".05" fill="#5e5e5e"/><use xlink:href="#j" transform="matrix(1,0,0,1,745.0562817719875,415.14511335398157) translate(0.005000000000002558 14.222222222222223)"/><path d="M365.65 547.67h-47.32v-2h47.32zm155.85 0h-29.82v-2h29.82z" stroke="#5e5e5e" stroke-width=".05" fill="#5e5e5e"/><path d="M318.36 547.67h-1.03v-2h1.03z" stroke="#5e5e5e" stroke-width=".05" fill="#5e5e5e"/><path d="M536.76 546.67l-14.26 4.63v-9.27z" fill="#5e5e5e"/><path d="M540 546.67l-18.5 6v-12zm-16.5 3.26l10.03-3.26-10.03-3.26z" stroke="#5e5e5e" stroke-width=".05" fill="#5e5e5e"/><g><use xlink:href="#h" transform="matrix(1,0,0,1,365.6543209876737,536.0000000000001) translate(0.005000000000002558 14.222222222222223)"/></g><defs><path fill="#333" d="M185-189c-5-48-123-54-124 2 14 75 158 14 163 119 3 78-121 87-175 55-17-10-28-26-33-46l33-7c5 56 141 63 141-1 0-78-155-14-162-118-5-82 145-84 179-34 5 7 8 16 11 25" id="k"/><path fill="#333" d="M100-194c63 0 86 42 84 106H49c0 40 14 67 53 68 26 1 43-12 49-29l28 8c-11 28-37 45-77 45C44 4 14-33 15-96c1-61 26-98 85-98zm52 81c6-60-76-77-97-28-3 7-6 17-6 28h103" id="l"/><path fill="#333" d="M114-163C36-179 61-72 57 0H25l-1-190h30c1 12-1 29 2 39 6-27 23-49 58-41v29" id="m"/><path fill="#333" d="M108 0H70L1-190h34L89-25l56-165h34" id="n"/><path fill="#333" d="M135-143c-3-34-86-38-87 0 15 53 115 12 119 90S17 21 10-45l28-5c4 36 97 45 98 0-10-56-113-15-118-90-4-57 82-63 122-42 12 7 21 19 24 35" id="o"/><g id="a"><use transform="matrix(0.06172839506172839,0,0,0.06172839506172839,0,0)" xlink:href="#k"/><use transform="matrix(0.06172839506172839,0,0,0.06172839506172839,14.814814814814813,0)" xlink:href="#l"/><use transform="matrix(0.06172839506172839,0,0,0.06172839506172839,27.160493827160494,0)" xlink:href="#m"/><use transform="matrix(0.06172839506172839,0,0,0.06172839506172839,34.50617283950617,0)" xlink:href="#n"/><use transform="matrix(0.06172839506172839,0,0,0.06172839506172839,45.61728395061728,0)" xlink:href="#l"/><use transform="matrix(0.06172839506172839,0,0,0.06172839506172839,57.962962962962955,0)" xlink:href="#m"/><use transform="matrix(0.06172839506172839,0,0,0.06172839506172839,65.30864197530863,0)" xlink:href="#o"/></g><path fill="#333" d="M205 0l-28-72H64L36 0H1l101-248h38L239 0h-34zm-38-99l-47-123c-12 45-31 82-46 123h93" id="p"/><path fill="#333" d="M210-169c-67 3-38 105-44 169h-31v-121c0-29-5-50-35-48C34-165 62-65 56 0H25l-1-190h30c1 10-1 24 2 32 10-44 99-50 107 0 11-21 27-35 58-36 85-2 47 119 55 194h-31v-121c0-29-5-49-35-48" id="q"/><path fill="#333" d="M141-36C126-15 110 5 73 4 37 3 15-17 15-53c-1-64 63-63 125-63 3-35-9-54-41-54-24 1-41 7-42 31l-33-3c5-37 33-52 76-52 45 0 72 20 72 64v82c-1 20 7 32 28 27v20c-31 9-61-2-59-35zM48-53c0 20 12 33 32 33 41-3 63-29 60-74-43 2-92-5-92 41" id="r"/><path fill="#333" d="M9 0v-24l116-142H16v-24h144v24L44-24h123V0H9" id="s"/><path fill="#333" d="M100-194c62-1 85 37 85 99 1 63-27 99-86 99S16-35 15-95c0-66 28-99 85-99zM99-20c44 1 53-31 53-75 0-43-8-75-51-75s-53 32-53 75 10 74 51 75" id="t"/><path fill="#333" d="M117-194c89-4 53 116 60 194h-32v-121c0-31-8-49-39-48C34-167 62-67 57 0H25l-1-190h30c1 10-1 24 2 32 11-22 29-35 61-36" id="u"/><g id="b"><use transform="matrix(0.06172839506172839,0,0,0.06172839506172839,0,0)" xlink:href="#p"/><use transform="matrix(0.06172839506172839,0,0,0.06172839506172839,14.814814814814813,0)" xlink:href="#q"/><use transform="matrix(0.06172839506172839,0,0,0.06172839506172839,33.2716049382716,0)" xlink:href="#r"/><use transform="matrix(0.06172839506172839,0,0,0.06172839506172839,45.61728395061728,0)" xlink:href="#s"/><use transform="matrix(0.06172839506172839,0,0,0.06172839506172839,56.72839506172839,0)" xlink:href="#t"/><use transform="matrix(0.06172839506172839,0,0,0.06172839506172839,69.07407407407408,0)" xlink:href="#u"/></g><path fill="#333" d="M30-248c87 1 191-15 191 75 0 78-77 80-158 76V0H30v-248zm33 125c57 0 124 11 124-50 0-59-68-47-124-48v98" id="v"/><path fill="#333" d="M33 0v-248h34V0H33" id="w"/><g id="c"><use transform="matrix(0.06172839506172839,0,0,0.06172839506172839,0,0)" xlink:href="#p"/><use transform="matrix(0.06172839506172839,0,0,0.06172839506172839,14.814814814814813,0)" xlink:href="#v"/><use transform="matrix(0.06172839506172839,0,0,0.06172839506172839,29.629629629629626,0)" xlink:href="#w"/></g><path fill="#333" d="M143 4C61 4 22-44 18-125c-5-107 100-154 193-111 17 8 29 25 37 43l-32 9c-13-25-37-40-76-40-61 0-88 39-88 99 0 61 29 100 91 101 35 0 62-11 79-27v-45h-74v-28h105v86C228-13 192 4 143 4" id="x"/><path fill="#333" d="M59-47c-2 24 18 29 38 22v24C64 9 27 4 27-40v-127H5v-23h24l9-43h21v43h35v23H59v120" id="y"/><path fill="#333" d="M206 0h-36l-40-164L89 0H53L-1-190h32L70-26l43-164h34l41 164 42-164h31" id="z"/><path fill="#333" d="M179-190L93 31C79 59 56 82 12 73V49c39 6 53-20 64-50L1-190h34L92-34l54-156h33" id="A"/><g id="d"><use transform="matrix(0.06172839506172839,0,0,0.06172839506172839,0,0)" xlink:href="#x"/><use transform="matrix(0.06172839506172839,0,0,0.06172839506172839,17.28395061728395,0)" xlink:href="#r"/><use transform="matrix(0.06172839506172839,0,0,0.06172839506172839,29.629629629629626,0)" xlink:href="#y"/><use transform="matrix(0.06172839506172839,0,0,0.06172839506172839,35.80246913580247,0)" xlink:href="#l"/><use transform="matrix(0.06172839506172839,0,0,0.06172839506172839,48.148148148148145,0)" xlink:href="#z"/><use transform="matrix(0.06172839506172839,0,0,0.06172839506172839,64.1358024691358,0)" xlink:href="#r"/><use transform="matrix(0.06172839506172839,0,0,0.06172839506172839,76.48148148148148,0)" xlink:href="#A"/></g><path fill="#333" d="M266 0h-40l-56-210L115 0H75L2-248h35L96-30l15-64 43-154h32l59 218 59-218h35" id="B"/><g id="e"><use transform="matrix(0.06172839506172839,0,0,0.06172839506172839,0,0)" xlink:href="#p"/><use transform="matrix(0.06172839506172839,0,0,0.06172839506172839,14.012345679012345,0)" xlink:href="#B"/><use transform="matrix(0.06172839506172839,0,0,0.06172839506172839,34.938271604938265,0)" xlink:href="#k"/></g><path fill="#333" d="M30 0v-248h33v221h125V0H30" id="C"/><path fill="#333" d="M115-194c53 0 69 39 70 98 0 66-23 100-70 100C84 3 66-7 56-30L54 0H23l1-261h32v101c10-23 28-34 59-34zm-8 174c40 0 45-34 45-75 0-40-5-75-45-74-42 0-51 32-51 76 0 43 10 73 51 73" id="D"/><path fill="#333" d="M85-194c31 0 48 13 60 33l-1-100h32l1 261h-30c-2-10 0-23-3-31C134-8 116 4 85 4 32 4 16-35 15-94c0-66 23-100 70-100zm9 24c-40 0-46 34-46 75 0 40 6 74 45 74 42 0 51-32 51-76 0-42-9-74-50-73" id="E"/><g id="f"><use transform="matrix(0.06172839506172839,0,0,0.06172839506172839,0,0)" xlink:href="#C"/><use transform="matrix(0.06172839506172839,0,0,0.06172839506172839,12.345679012345679,0)" xlink:href="#r"/><use transform="matrix(0.06172839506172839,0,0,0.06172839506172839,24.691358024691358,0)" xlink:href="#q"/><use transform="matrix(0.06172839506172839,0,0,0.06172839506172839,43.148148148148145,0)" xlink:href="#D"/><use transform="matrix(0.06172839506172839,0,0,0.06172839506172839,55.49382716049382,0)" xlink:href="#E"/><use transform="matrix(0.06172839506172839,0,0,0.06172839506172839,67.8395061728395,0)" xlink:href="#r"/></g><path fill="#333" d="M4 7l51-268h42L46 7H4" id="F"/><path fill="#333" d="M133-34C117-15 103 5 69 4 32 3 11-16 11-54c-1-60 55-63 116-61 1-26-3-47-28-47-18 1-26 9-28 27l-52-2c7-38 36-58 82-57s74 22 75 68l1 82c-1 14 12 18 25 15v27c-30 8-71 5-69-32zm-48 3c29 0 43-24 42-57-32 0-66-3-65 30 0 17 8 27 23 27" id="G"/><path fill="#333" d="M135-194c53 0 70 44 70 98 0 56-19 98-73 100-31 1-45-17-59-34 3 33 2 69 2 105H25l-1-265h48c2 10 0 23 3 31 11-24 29-35 60-35zM114-30c33 0 39-31 40-66 0-38-9-64-40-64-56 0-55 130 0 130" id="H"/><path fill="#333" d="M25-224v-37h50v37H25zM25 0v-190h50V0H25" id="I"/><path fill="#333" d="M185-48c-13 30-37 53-82 52C43 2 14-33 14-96s30-98 90-98c62 0 83 45 84 108H66c0 31 8 55 39 56 18 0 30-7 34-22zm-45-69c5-46-57-63-70-21-2 6-4 13-4 21h74" id="J"/><path fill="#333" d="M135-194c87-1 58 113 63 194h-50c-7-57 23-157-34-157-59 0-34 97-39 157H25l-1-190h47c2 12-1 28 3 38 12-26 28-41 61-42" id="K"/><path fill="#333" d="M88-194c31-1 46 15 58 34l-1-101h50l1 261h-48c-2-10 0-23-3-31C134-8 116 4 84 4 32 4 16-41 15-95c0-56 19-97 73-99zm17 164c33 0 40-30 41-66 1-37-9-64-41-64s-38 30-39 65c0 43 13 65 39 65" id="L"/><path fill="#333" d="M110-194c64 0 96 36 96 99 0 64-35 99-97 99-61 0-95-36-95-99 0-62 34-99 96-99zm-1 164c35 0 45-28 45-65 0-40-10-65-43-65-34 0-45 26-45 65 0 36 10 65 43 65" id="M"/><path fill="#333" d="M115-3C79 11 28 4 28-45v-112H4v-33h27l15-45h31v45h36v33H77v99c-1 23 16 31 38 25v30" id="N"/><path fill="#333" d="M14-72v-43h91v43H14" id="O"/><path fill="#333" d="M23 0v-37h61v-169l-59 37v-38l62-41h46v211h57V0H23" id="P"/><g id="g"><use transform="matrix(0.04938271604938272,0,0,0.04938271604938272,0,0)" xlink:href="#F"/><use transform="matrix(0.04938271604938272,0,0,0.04938271604938272,4.938271604938272,0)" xlink:href="#G"/><use transform="matrix(0.04938271604938272,0,0,0.04938271604938272,14.814814814814817,0)" xlink:href="#H"/><use transform="matrix(0.04938271604938272,0,0,0.04938271604938272,25.629629629629633,0)" xlink:href="#I"/><use transform="matrix(0.04938271604938272,0,0,0.04938271604938272,30.567901234567906,0)" xlink:href="#F"/><use transform="matrix(0.04938271604938272,0,0,0.04938271604938272,35.50617283950618,0)" xlink:href="#J"/><use transform="matrix(0.04938271604938272,0,0,0.04938271604938272,45.38271604938272,0)" xlink:href="#K"/><use transform="matrix(0.04938271604938272,0,0,0.04938271604938272,56.19753086419754,0)" xlink:href="#L"/><use transform="matrix(0.04938271604938272,0,0,0.04938271604938272,67.01234567901236,0)" xlink:href="#H"/><use transform="matrix(0.04938271604938272,0,0,0.04938271604938272,77.82716049382717,0)" xlink:href="#M"/><use transform="matrix(0.04938271604938272,0,0,0.04938271604938272,88.64197530864197,0)" xlink:href="#I"/><use transform="matrix(0.04938271604938272,0,0,0.04938271604938272,93.58024691358025,0)" xlink:href="#K"/><use transform="matrix(0.04938271604938272,0,0,0.04938271604938272,104.39506172839508,0)" xlink:href="#N"/><use transform="matrix(0.04938271604938272,0,0,0.04938271604938272,110.27160493827161,0)" xlink:href="#O"/><use transform="matrix(0.04938271604938272,0,0,0.04938271604938272,116.14814814814815,0)" xlink:href="#P"/></g><path fill="#333" d="M128-127c34 4 56 21 59 58 7 91-148 94-172 28-4-9-6-17-7-26l51-5c1 24 16 35 40 36 23 0 39-12 38-36-1-31-31-36-65-34v-40c32 2 59-3 59-33 0-20-13-33-34-33s-33 13-35 32l-50-3c6-44 37-68 86-68 50 0 83 20 83 66 0 35-22 52-53 58" id="Q"/><g id="h"><use transform="matrix(0.04938271604938272,0,0,0.04938271604938272,0,0)" xlink:href="#F"/><use transform="matrix(0.04938271604938272,0,0,0.04938271604938272,4.938271604938272,0)" xlink:href="#G"/><use transform="matrix(0.04938271604938272,0,0,0.04938271604938272,14.814814814814817,0)" xlink:href="#H"/><use transform="matrix(0.04938271604938272,0,0,0.04938271604938272,25.629629629629633,0)" xlink:href="#I"/><use transform="matrix(0.04938271604938272,0,0,0.04938271604938272,30.567901234567906,0)" xlink:href="#F"/><use transform="matrix(0.04938271604938272,0,0,0.04938271604938272,35.50617283950618,0)" xlink:href="#J"/><use transform="matrix(0.04938271604938272,0,0,0.04938271604938272,45.38271604938272,0)" xlink:href="#K"/><use transform="matrix(0.04938271604938272,0,0,0.04938271604938272,56.19753086419754,0)" xlink:href="#L"/><use transform="matrix(0.04938271604938272,0,0,0.04938271604938272,67.01234567901236,0)" xlink:href="#H"/><use transform="matrix(0.04938271604938272,0,0,0.04938271604938272,77.82716049382717,0)" xlink:href="#M"/><use transform="matrix(0.04938271604938272,0,0,0.04938271604938272,88.64197530864197,0)" xlink:href="#I"/><use transform="matrix(0.04938271604938272,0,0,0.04938271604938272,93.58024691358025,0)" xlink:href="#K"/><use transform="matrix(0.04938271604938272,0,0,0.04938271604938272,104.39506172839508,0)" xlink:href="#N"/><use transform="matrix(0.04938271604938272,0,0,0.04938271604938272,110.27160493827161,0)" xlink:href="#O"/><use transform="matrix(0.04938271604938272,0,0,0.04938271604938272,116.14814814814815,0)" xlink:href="#Q"/></g><path fill="#333" d="M30-248c118-7 216 8 213 122C240-48 200 0 122 0H30v-248zM63-27c89 8 146-16 146-99s-60-101-146-95v194" id="R"/><g id="i"><use transform="matrix(0.06234567901234567,0,0,0.06234567901234567,0,0)" xlink:href="#R"/><use transform="matrix(0.06234567901234567,0,0,0.06234567901234567,16.147530864197527,0)" xlink:href="#r"/><use transform="matrix(0.06234567901234567,0,0,0.06234567901234567,28.61666666666666,0)" xlink:href="#y"/><use transform="matrix(0.06234567901234567,0,0,0.06234567901234567,34.85123456790123,0)" xlink:href="#r"/><use transform="matrix(0.06234567901234567,0,0,0.06234567901234567,47.32037037037036,0)" xlink:href="#D"/><use transform="matrix(0.06234567901234567,0,0,0.06234567901234567,59.789506172839495,0)" xlink:href="#r"/><use transform="matrix(0.06234567901234567,0,0,0.06234567901234567,72.25864197530862,0)" xlink:href="#o"/><use transform="matrix(0.06234567901234567,0,0,0.06234567901234567,83.48086419753083,0)" xlink:href="#l"/></g><path fill="#333" d="M182-182c0 78-84 86-111 141h115V0H12c-6-101 99-100 120-180 1-22-12-31-33-32-23 0-32 14-35 34l-49-3c5-45 32-70 84-70 51 0 83 22 83 69" id="S"/><g id="j"><use transform="matrix(0.04938271604938272,0,0,0.04938271604938272,0,0)" xlink:href="#F"/><use transform="matrix(0.04938271604938272,0,0,0.04938271604938272,4.938271604938272,0)" xlink:href="#G"/><use transform="matrix(0.04938271604938272,0,0,0.04938271604938272,14.814814814814817,0)" xlink:href="#H"/><use transform="matrix(0.04938271604938272,0,0,0.04938271604938272,25.629629629629633,0)" xlink:href="#I"/><use transform="matrix(0.04938271604938272,0,0,0.04938271604938272,30.567901234567906,0)" xlink:href="#F"/><use transform="matrix(0.04938271604938272,0,0,0.04938271604938272,35.50617283950618,0)" xlink:href="#J"/><use transform="matrix(0.04938271604938272,0,0,0.04938271604938272,45.38271604938272,0)" xlink:href="#K"/><use transform="matrix(0.04938271604938272,0,0,0.04938271604938272,56.19753086419754,0)" xlink:href="#L"/><use transform="matrix(0.04938271604938272,0,0,0.04938271604938272,67.01234567901236,0)" xlink:href="#H"/><use transform="matrix(0.04938271604938272,0,0,0.04938271604938272,77.82716049382717,0)" xlink:href="#M"/><use transform="matrix(0.04938271604938272,0,0,0.04938271604938272,88.64197530864197,0)" xlink:href="#I"/><use transform="matrix(0.04938271604938272,0,0,0.04938271604938272,93.58024691358025,0)" xlink:href="#K"/><use transform="matrix(0.04938271604938272,0,0,0.04938271604938272,104.39506172839508,0)" xlink:href="#N"/><use transform="matrix(0.04938271604938272,0,0,0.04938271604938272,110.27160493827161,0)" xlink:href="#O"/><use transform="matrix(0.04938271604938272,0,0,0.04938271604938272,116.14814814814815,0)" xlink:href="#S"/></g></defs></g></svg>